G04 (created by PCBNEW (2013-07-07 BZR 4022)-stable) date 01/04/2014 01:53:02*
%MOIN*%
G04 Gerber Fmt 3.4, Leading zero omitted, Abs format*
%FSLAX34Y34*%
G01*
G70*
G90*
G04 APERTURE LIST*
%ADD10C,0.00590551*%
%ADD11R,0.025X0.05*%
%ADD12R,0.055X0.035*%
%ADD13R,0.035X0.055*%
%ADD14R,0.071X0.063*%
%ADD15R,0.063X0.071*%
%ADD16R,0.0315X0.0394*%
G04 APERTURE END LIST*
G54D10*
G54D11*
X58580Y-37600D03*
X59080Y-37600D03*
X59580Y-37600D03*
X60080Y-37600D03*
X60080Y-39800D03*
X59580Y-39800D03*
X59080Y-39800D03*
X58580Y-39800D03*
X60041Y-32832D03*
X59541Y-32832D03*
X59041Y-32832D03*
X58541Y-32832D03*
X58541Y-30632D03*
X59041Y-30632D03*
X59541Y-30632D03*
X60041Y-30632D03*
X60080Y-45076D03*
X59580Y-45076D03*
X59080Y-45076D03*
X58580Y-45076D03*
X58580Y-42876D03*
X59080Y-42876D03*
X59580Y-42876D03*
X60080Y-42876D03*
X58344Y-51183D03*
X58844Y-51183D03*
X59344Y-51183D03*
X59844Y-51183D03*
X59844Y-53383D03*
X59344Y-53383D03*
X58844Y-53383D03*
X58344Y-53383D03*
G54D12*
X60669Y-51871D03*
X60669Y-51121D03*
X60748Y-38524D03*
X60748Y-37774D03*
G54D13*
X58680Y-29881D03*
X59430Y-29881D03*
X59941Y-40551D03*
X59191Y-40551D03*
X59745Y-54173D03*
X58995Y-54173D03*
X58680Y-42047D03*
X59430Y-42047D03*
G54D14*
X60787Y-41851D03*
X60787Y-42951D03*
G54D15*
X56457Y-51181D03*
X57557Y-51181D03*
X58820Y-50078D03*
X59920Y-50078D03*
X59565Y-45944D03*
X58465Y-45944D03*
X59526Y-33700D03*
X58426Y-33700D03*
G54D14*
X60748Y-29725D03*
X60748Y-30825D03*
G54D15*
X56339Y-38503D03*
X57439Y-38503D03*
G54D16*
X44212Y-48543D03*
X44587Y-47677D03*
X43837Y-47677D03*
X37440Y-48503D03*
X37815Y-47637D03*
X37065Y-47637D03*
M02*
