G04 (created by PCBNEW (2013-07-07 BZR 4022)-stable) date 01/04/2014 01:30:57*
%MOIN*%
G04 Gerber Fmt 3.4, Leading zero omitted, Abs format*
%FSLAX34Y34*%
G01*
G70*
G90*
G04 APERTURE LIST*
%ADD10C,0.005*%
%ADD11C,0.00393701*%
%ADD12C,0.00787402*%
%ADD13C,0.011811*%
G04 APERTURE END LIST*
G54D10*
G54D11*
X39370Y-78740D02*
X39370Y-39370D01*
X78740Y-78740D02*
X39370Y-78740D01*
X78740Y-39370D02*
X78740Y-78740D01*
X39370Y-39370D02*
X78740Y-39370D01*
G54D12*
X46299Y-45314D02*
X46456Y-45472D01*
X46456Y-45314D02*
X46299Y-45472D01*
X48858Y-44409D02*
X49015Y-44566D01*
X49015Y-44409D02*
X48858Y-44566D01*
X54173Y-66023D02*
X54330Y-66181D01*
X54330Y-66023D02*
X54173Y-66181D01*
X54409Y-45236D02*
X54566Y-45393D01*
X54566Y-45236D02*
X54409Y-45393D01*
X54448Y-43976D02*
X54606Y-44133D01*
X54606Y-43976D02*
X54448Y-44133D01*
X55039Y-44921D02*
X55196Y-45078D01*
X55196Y-44921D02*
X55039Y-45078D01*
X55433Y-52283D02*
X55590Y-52440D01*
X55590Y-52283D02*
X55433Y-52440D01*
X55511Y-52834D02*
X55669Y-52992D01*
X55669Y-52834D02*
X55511Y-52992D01*
X55629Y-64448D02*
X55787Y-64606D01*
X55787Y-64448D02*
X55629Y-64606D01*
X55669Y-44448D02*
X55826Y-44606D01*
X55826Y-44448D02*
X55669Y-44606D01*
X55669Y-51023D02*
X55826Y-51181D01*
X55826Y-51023D02*
X55669Y-51181D01*
X55748Y-66692D02*
X55905Y-66850D01*
X55905Y-66692D02*
X55748Y-66850D01*
X56023Y-45236D02*
X56181Y-45393D01*
X56181Y-45236D02*
X56023Y-45393D01*
X56062Y-43937D02*
X56220Y-44094D01*
X56220Y-43937D02*
X56062Y-44094D01*
X56141Y-65708D02*
X56299Y-65866D01*
X56299Y-65708D02*
X56141Y-65866D01*
X56496Y-43622D02*
X56653Y-43779D01*
X56653Y-43622D02*
X56496Y-43779D01*
X56535Y-52401D02*
X56692Y-52559D01*
X56692Y-52401D02*
X56535Y-52559D01*
X56535Y-53070D02*
X56692Y-53228D01*
X56692Y-53070D02*
X56535Y-53228D01*
X57125Y-65708D02*
X57283Y-65866D01*
X57283Y-65708D02*
X57125Y-65866D01*
X58622Y-50629D02*
X58779Y-50787D01*
X58779Y-50629D02*
X58622Y-50787D01*
X58779Y-50905D02*
X58937Y-51062D01*
X58937Y-50905D02*
X58779Y-51062D01*
X59763Y-50905D02*
X59921Y-51062D01*
X59921Y-50905D02*
X59763Y-51062D01*
X60118Y-51299D02*
X60275Y-51456D01*
X60275Y-51299D02*
X60118Y-51456D01*
X60236Y-63976D02*
X60393Y-64133D01*
X60393Y-63976D02*
X60236Y-64133D01*
X60354Y-64685D02*
X60511Y-64842D01*
X60511Y-64685D02*
X60354Y-64842D01*
X60944Y-51653D02*
X61102Y-51811D01*
X61102Y-51653D02*
X60944Y-51811D01*
X60944Y-52283D02*
X61102Y-52440D01*
X61102Y-52283D02*
X60944Y-52440D01*
X60944Y-52874D02*
X61102Y-53031D01*
X61102Y-52874D02*
X60944Y-53031D01*
X60944Y-53464D02*
X61102Y-53622D01*
X61102Y-53464D02*
X60944Y-53622D01*
X60944Y-54094D02*
X61102Y-54251D01*
X61102Y-54094D02*
X60944Y-54251D01*
X60944Y-54685D02*
X61102Y-54842D01*
X61102Y-54685D02*
X60944Y-54842D01*
X60944Y-55354D02*
X61102Y-55511D01*
X61102Y-55354D02*
X60944Y-55511D01*
X60984Y-51181D02*
X61141Y-51338D01*
X61141Y-51181D02*
X60984Y-51338D01*
X61181Y-64527D02*
X61338Y-64685D01*
X61338Y-64527D02*
X61181Y-64685D01*
X61220Y-55669D02*
X61377Y-55826D01*
X61377Y-55669D02*
X61220Y-55826D01*
X61220Y-66062D02*
X61377Y-66220D01*
X61377Y-66062D02*
X61220Y-66220D01*
X61220Y-66653D02*
X61377Y-66811D01*
X61377Y-66653D02*
X61220Y-66811D01*
X61220Y-67952D02*
X61377Y-68110D01*
X61377Y-67952D02*
X61220Y-68110D01*
X61614Y-57322D02*
X61771Y-57480D01*
X61771Y-57322D02*
X61614Y-57480D01*
X61692Y-70157D02*
X61850Y-70314D01*
X61850Y-70157D02*
X61692Y-70314D01*
X61732Y-51141D02*
X61889Y-51299D01*
X61889Y-51141D02*
X61732Y-51299D01*
X61732Y-64842D02*
X61889Y-65000D01*
X61889Y-64842D02*
X61732Y-65000D01*
X61732Y-65787D02*
X61889Y-65944D01*
X61889Y-65787D02*
X61732Y-65944D01*
X61732Y-66811D02*
X61889Y-66968D01*
X61889Y-66811D02*
X61732Y-66968D01*
X61732Y-67874D02*
X61889Y-68031D01*
X61889Y-67874D02*
X61732Y-68031D01*
X61771Y-55669D02*
X61929Y-55826D01*
X61929Y-55669D02*
X61771Y-55826D01*
X62204Y-51141D02*
X62362Y-51299D01*
X62362Y-51141D02*
X62204Y-51299D01*
X62244Y-55669D02*
X62401Y-55826D01*
X62401Y-55669D02*
X62244Y-55826D01*
X62440Y-64527D02*
X62598Y-64685D01*
X62598Y-64527D02*
X62440Y-64685D01*
X62440Y-65472D02*
X62598Y-65629D01*
X62598Y-65472D02*
X62440Y-65629D01*
X62440Y-66377D02*
X62598Y-66535D01*
X62598Y-66377D02*
X62440Y-66535D01*
X62440Y-67204D02*
X62598Y-67362D01*
X62598Y-67204D02*
X62440Y-67362D01*
X62440Y-67874D02*
X62598Y-68031D01*
X62598Y-67874D02*
X62440Y-68031D01*
X62519Y-71968D02*
X62677Y-72125D01*
X62677Y-71968D02*
X62519Y-72125D01*
X62559Y-51299D02*
X62716Y-51456D01*
X62716Y-51299D02*
X62559Y-51456D01*
X62559Y-51771D02*
X62716Y-51929D01*
X62716Y-51771D02*
X62559Y-51929D01*
X62559Y-52204D02*
X62716Y-52362D01*
X62716Y-52204D02*
X62559Y-52362D01*
X62559Y-52598D02*
X62716Y-52755D01*
X62716Y-52598D02*
X62559Y-52755D01*
X62559Y-52992D02*
X62716Y-53149D01*
X62716Y-52992D02*
X62559Y-53149D01*
X62559Y-53425D02*
X62716Y-53582D01*
X62716Y-53425D02*
X62559Y-53582D01*
X62559Y-53818D02*
X62716Y-53976D01*
X62716Y-53818D02*
X62559Y-53976D01*
X62559Y-54212D02*
X62716Y-54370D01*
X62716Y-54212D02*
X62559Y-54370D01*
X62559Y-54606D02*
X62716Y-54763D01*
X62716Y-54606D02*
X62559Y-54763D01*
X62559Y-54960D02*
X62716Y-55118D01*
X62716Y-54960D02*
X62559Y-55118D01*
X62559Y-55354D02*
X62716Y-55511D01*
X62716Y-55354D02*
X62559Y-55511D01*
X62755Y-56496D02*
X62913Y-56653D01*
X62913Y-56496D02*
X62755Y-56653D01*
X62755Y-65000D02*
X62913Y-65157D01*
X62913Y-65000D02*
X62755Y-65157D01*
X62795Y-65944D02*
X62952Y-66102D01*
X62952Y-65944D02*
X62795Y-66102D01*
X62795Y-66811D02*
X62952Y-66968D01*
X62952Y-66811D02*
X62795Y-66968D01*
X62795Y-67519D02*
X62952Y-67677D01*
X62952Y-67519D02*
X62795Y-67677D01*
X62834Y-69133D02*
X62992Y-69291D01*
X62992Y-69133D02*
X62834Y-69291D01*
X62913Y-50748D02*
X63070Y-50905D01*
X63070Y-50748D02*
X62913Y-50905D01*
X62913Y-51338D02*
X63070Y-51496D01*
X63070Y-51338D02*
X62913Y-51496D01*
X62913Y-52716D02*
X63070Y-52874D01*
X63070Y-52716D02*
X62913Y-52874D01*
X62913Y-53976D02*
X63070Y-54133D01*
X63070Y-53976D02*
X62913Y-54133D01*
X62913Y-55590D02*
X63070Y-55748D01*
X63070Y-55590D02*
X62913Y-55748D01*
X63110Y-59094D02*
X63267Y-59251D01*
X63267Y-59094D02*
X63110Y-59251D01*
X63149Y-49173D02*
X63307Y-49330D01*
X63307Y-49173D02*
X63149Y-49330D01*
X63228Y-63700D02*
X63385Y-63858D01*
X63385Y-63700D02*
X63228Y-63858D01*
X63464Y-72007D02*
X63622Y-72165D01*
X63622Y-72007D02*
X63464Y-72165D01*
X63779Y-61889D02*
X63937Y-62047D01*
X63937Y-61889D02*
X63779Y-62047D01*
X63818Y-58307D02*
X63976Y-58464D01*
X63976Y-58307D02*
X63818Y-58464D01*
X63897Y-49566D02*
X64055Y-49724D01*
X64055Y-49566D02*
X63897Y-49724D01*
X63937Y-46811D02*
X64094Y-46968D01*
X64094Y-46811D02*
X63937Y-46968D01*
X64173Y-61417D02*
X64330Y-61574D01*
X64330Y-61417D02*
X64173Y-61574D01*
X64212Y-69842D02*
X64370Y-70000D01*
X64370Y-69842D02*
X64212Y-70000D01*
X64291Y-54685D02*
X64448Y-54842D01*
X64448Y-54685D02*
X64291Y-54842D01*
X64370Y-57204D02*
X64527Y-57362D01*
X64527Y-57204D02*
X64370Y-57362D01*
X64488Y-59094D02*
X64645Y-59251D01*
X64645Y-59094D02*
X64488Y-59251D01*
X64724Y-47874D02*
X64881Y-48031D01*
X64881Y-47874D02*
X64724Y-48031D01*
X64724Y-56889D02*
X64881Y-57047D01*
X64881Y-56889D02*
X64724Y-57047D01*
X64724Y-59566D02*
X64881Y-59724D01*
X64881Y-59566D02*
X64724Y-59724D01*
X65275Y-47795D02*
X65433Y-47952D01*
X65433Y-47795D02*
X65275Y-47952D01*
X65314Y-49488D02*
X65472Y-49645D01*
X65472Y-49488D02*
X65314Y-49645D01*
X65373Y-61850D02*
X65530Y-62007D01*
X65530Y-61850D02*
X65373Y-62007D01*
X65393Y-54645D02*
X65551Y-54803D01*
X65551Y-54645D02*
X65393Y-54803D01*
X65433Y-47165D02*
X65590Y-47322D01*
X65590Y-47165D02*
X65433Y-47322D01*
X66023Y-47165D02*
X66181Y-47322D01*
X66181Y-47165D02*
X66023Y-47322D01*
X66023Y-47716D02*
X66181Y-47874D01*
X66181Y-47716D02*
X66023Y-47874D01*
X66023Y-48818D02*
X66181Y-48976D01*
X66181Y-48818D02*
X66023Y-48976D01*
X66062Y-59291D02*
X66220Y-59448D01*
X66220Y-59291D02*
X66062Y-59448D01*
X66062Y-59842D02*
X66220Y-60000D01*
X66220Y-59842D02*
X66062Y-60000D01*
X66062Y-60944D02*
X66220Y-61102D01*
X66220Y-60944D02*
X66062Y-61102D01*
X66377Y-57125D02*
X66535Y-57283D01*
X66535Y-57125D02*
X66377Y-57283D01*
X66496Y-50393D02*
X66653Y-50551D01*
X66653Y-50393D02*
X66496Y-50551D01*
X66496Y-50866D02*
X66653Y-51023D01*
X66653Y-50866D02*
X66496Y-51023D01*
X66496Y-51338D02*
X66653Y-51496D01*
X66653Y-51338D02*
X66496Y-51496D01*
X66496Y-51771D02*
X66653Y-51929D01*
X66653Y-51771D02*
X66496Y-51929D01*
X66496Y-52283D02*
X66653Y-52440D01*
X66653Y-52283D02*
X66496Y-52440D01*
X66535Y-53622D02*
X66692Y-53779D01*
X66692Y-53622D02*
X66535Y-53779D01*
X66535Y-54055D02*
X66692Y-54212D01*
X66692Y-54055D02*
X66535Y-54212D01*
X66535Y-54488D02*
X66692Y-54645D01*
X66692Y-54488D02*
X66535Y-54645D01*
X66535Y-54921D02*
X66692Y-55078D01*
X66692Y-54921D02*
X66535Y-55078D01*
X66535Y-55354D02*
X66692Y-55511D01*
X66692Y-55354D02*
X66535Y-55511D01*
X66574Y-62913D02*
X66732Y-63070D01*
X66732Y-62913D02*
X66574Y-63070D01*
X66574Y-63346D02*
X66732Y-63503D01*
X66732Y-63346D02*
X66574Y-63503D01*
X66574Y-63779D02*
X66732Y-63937D01*
X66732Y-63779D02*
X66574Y-63937D01*
X66574Y-64173D02*
X66732Y-64330D01*
X66732Y-64173D02*
X66574Y-64330D01*
X66574Y-64566D02*
X66732Y-64724D01*
X66732Y-64566D02*
X66574Y-64724D01*
X66574Y-66062D02*
X66732Y-66220D01*
X66732Y-66062D02*
X66574Y-66220D01*
X66574Y-66535D02*
X66732Y-66692D01*
X66732Y-66535D02*
X66574Y-66692D01*
X66574Y-67007D02*
X66732Y-67165D01*
X66732Y-67007D02*
X66574Y-67165D01*
X66574Y-67480D02*
X66732Y-67637D01*
X66732Y-67480D02*
X66574Y-67637D01*
X66574Y-67952D02*
X66732Y-68110D01*
X66732Y-67952D02*
X66574Y-68110D01*
X66732Y-70708D02*
X66889Y-70866D01*
X66889Y-70708D02*
X66732Y-70866D01*
X66929Y-53267D02*
X67086Y-53425D01*
X67086Y-53267D02*
X66929Y-53425D01*
X66929Y-65866D02*
X67086Y-66023D01*
X67086Y-65866D02*
X66929Y-66023D01*
X66968Y-64881D02*
X67125Y-65039D01*
X67125Y-64881D02*
X66968Y-65039D01*
X67125Y-47401D02*
X67283Y-47559D01*
X67283Y-47401D02*
X67125Y-47559D01*
X67125Y-47874D02*
X67283Y-48031D01*
X67283Y-47874D02*
X67125Y-48031D01*
X67125Y-48346D02*
X67283Y-48503D01*
X67283Y-48346D02*
X67125Y-48503D01*
X67125Y-48858D02*
X67283Y-49015D01*
X67283Y-48858D02*
X67125Y-49015D01*
X67125Y-52283D02*
X67283Y-52440D01*
X67283Y-52283D02*
X67125Y-52440D01*
X67125Y-56102D02*
X67283Y-56259D01*
X67283Y-56102D02*
X67125Y-56259D01*
X67125Y-56653D02*
X67283Y-56811D01*
X67283Y-56653D02*
X67125Y-56811D01*
X67125Y-57125D02*
X67283Y-57283D01*
X67283Y-57125D02*
X67125Y-57283D01*
X67125Y-58031D02*
X67283Y-58188D01*
X67283Y-58031D02*
X67125Y-58188D01*
X67125Y-58543D02*
X67283Y-58700D01*
X67283Y-58543D02*
X67125Y-58700D01*
X67125Y-59094D02*
X67283Y-59251D01*
X67283Y-59094D02*
X67125Y-59251D01*
X67125Y-59685D02*
X67283Y-59842D01*
X67283Y-59685D02*
X67125Y-59842D01*
X67125Y-60078D02*
X67283Y-60236D01*
X67283Y-60078D02*
X67125Y-60236D01*
X67125Y-60590D02*
X67283Y-60748D01*
X67283Y-60590D02*
X67125Y-60748D01*
X67125Y-61062D02*
X67283Y-61220D01*
X67283Y-61062D02*
X67125Y-61220D01*
X67125Y-68740D02*
X67283Y-68897D01*
X67283Y-68740D02*
X67125Y-68897D01*
X67125Y-69212D02*
X67283Y-69370D01*
X67283Y-69212D02*
X67125Y-69370D01*
X67125Y-69763D02*
X67283Y-69921D01*
X67283Y-69763D02*
X67125Y-69921D01*
X67125Y-70708D02*
X67283Y-70866D01*
X67283Y-70708D02*
X67125Y-70866D01*
X67204Y-50196D02*
X67362Y-50354D01*
X67362Y-50196D02*
X67204Y-50354D01*
X67204Y-50551D02*
X67362Y-50708D01*
X67362Y-50551D02*
X67204Y-50708D01*
X67204Y-50984D02*
X67362Y-51141D01*
X67362Y-50984D02*
X67204Y-51141D01*
X67204Y-51377D02*
X67362Y-51535D01*
X67362Y-51377D02*
X67204Y-51535D01*
X67204Y-51771D02*
X67362Y-51929D01*
X67362Y-51771D02*
X67204Y-51929D01*
X67204Y-53740D02*
X67362Y-53897D01*
X67362Y-53740D02*
X67204Y-53897D01*
X67204Y-54094D02*
X67362Y-54251D01*
X67362Y-54094D02*
X67204Y-54251D01*
X67204Y-54527D02*
X67362Y-54685D01*
X67362Y-54527D02*
X67204Y-54685D01*
X67204Y-54921D02*
X67362Y-55078D01*
X67362Y-54921D02*
X67204Y-55078D01*
X67204Y-55314D02*
X67362Y-55472D01*
X67362Y-55314D02*
X67204Y-55472D01*
X67204Y-62795D02*
X67362Y-62952D01*
X67362Y-62795D02*
X67204Y-62952D01*
X67204Y-63188D02*
X67362Y-63346D01*
X67362Y-63188D02*
X67204Y-63346D01*
X67204Y-63582D02*
X67362Y-63740D01*
X67362Y-63582D02*
X67204Y-63740D01*
X67204Y-63976D02*
X67362Y-64133D01*
X67362Y-63976D02*
X67204Y-64133D01*
X67204Y-64370D02*
X67362Y-64527D01*
X67362Y-64370D02*
X67204Y-64527D01*
X67204Y-66338D02*
X67362Y-66496D01*
X67362Y-66338D02*
X67204Y-66496D01*
X67204Y-66732D02*
X67362Y-66889D01*
X67362Y-66732D02*
X67204Y-66889D01*
X67204Y-67086D02*
X67362Y-67244D01*
X67362Y-67086D02*
X67204Y-67244D01*
X67204Y-67480D02*
X67362Y-67637D01*
X67362Y-67480D02*
X67204Y-67637D01*
X67204Y-67952D02*
X67362Y-68110D01*
X67362Y-67952D02*
X67204Y-68110D01*
X67283Y-46811D02*
X67440Y-46968D01*
X67440Y-46811D02*
X67283Y-46968D01*
X67322Y-43582D02*
X67480Y-43740D01*
X67480Y-43582D02*
X67322Y-43740D01*
X67401Y-65866D02*
X67559Y-66023D01*
X67559Y-65866D02*
X67401Y-66023D01*
X67480Y-53267D02*
X67637Y-53425D01*
X67637Y-53267D02*
X67480Y-53425D01*
X67519Y-64881D02*
X67677Y-65039D01*
X67677Y-64881D02*
X67519Y-65039D01*
X67716Y-43937D02*
X67874Y-44094D01*
X67874Y-43937D02*
X67716Y-44094D01*
X67716Y-50393D02*
X67874Y-50551D01*
X67874Y-50393D02*
X67716Y-50551D01*
X67716Y-50787D02*
X67874Y-50944D01*
X67874Y-50787D02*
X67716Y-50944D01*
X67716Y-51181D02*
X67874Y-51338D01*
X67874Y-51181D02*
X67716Y-51338D01*
X67716Y-51574D02*
X67874Y-51732D01*
X67874Y-51574D02*
X67716Y-51732D01*
X67716Y-53937D02*
X67874Y-54094D01*
X67874Y-53937D02*
X67716Y-54094D01*
X67716Y-54330D02*
X67874Y-54488D01*
X67874Y-54330D02*
X67716Y-54488D01*
X67716Y-54724D02*
X67874Y-54881D01*
X67874Y-54724D02*
X67716Y-54881D01*
X67716Y-55118D02*
X67874Y-55275D01*
X67874Y-55118D02*
X67716Y-55275D01*
X67716Y-62992D02*
X67874Y-63149D01*
X67874Y-62992D02*
X67716Y-63149D01*
X67716Y-63385D02*
X67874Y-63543D01*
X67874Y-63385D02*
X67716Y-63543D01*
X67716Y-63779D02*
X67874Y-63937D01*
X67874Y-63779D02*
X67716Y-63937D01*
X67716Y-64173D02*
X67874Y-64330D01*
X67874Y-64173D02*
X67716Y-64330D01*
X67716Y-66535D02*
X67874Y-66692D01*
X67874Y-66535D02*
X67716Y-66692D01*
X67716Y-66929D02*
X67874Y-67086D01*
X67874Y-66929D02*
X67716Y-67086D01*
X67716Y-67322D02*
X67874Y-67480D01*
X67874Y-67322D02*
X67716Y-67480D01*
X67716Y-67716D02*
X67874Y-67874D01*
X67874Y-67716D02*
X67716Y-67874D01*
X67834Y-46653D02*
X67992Y-46811D01*
X67992Y-46653D02*
X67834Y-46811D01*
X67834Y-52165D02*
X67992Y-52322D01*
X67992Y-52165D02*
X67834Y-52322D01*
X67874Y-66023D02*
X68031Y-66181D01*
X68031Y-66023D02*
X67874Y-66181D01*
X67913Y-64724D02*
X68070Y-64881D01*
X68070Y-64724D02*
X67913Y-64881D01*
X67992Y-53385D02*
X68149Y-53543D01*
X68149Y-53385D02*
X67992Y-53543D01*
X68110Y-48031D02*
X68267Y-48188D01*
X68267Y-48031D02*
X68110Y-48188D01*
X68110Y-48425D02*
X68267Y-48582D01*
X68267Y-48425D02*
X68110Y-48582D01*
X68110Y-48818D02*
X68267Y-48976D01*
X68267Y-48818D02*
X68110Y-48976D01*
X68110Y-49212D02*
X68267Y-49370D01*
X68267Y-49212D02*
X68110Y-49370D01*
X68110Y-50393D02*
X68267Y-50551D01*
X68267Y-50393D02*
X68110Y-50551D01*
X68110Y-50787D02*
X68267Y-50944D01*
X68267Y-50787D02*
X68110Y-50944D01*
X68110Y-51181D02*
X68267Y-51338D01*
X68267Y-51181D02*
X68110Y-51338D01*
X68110Y-51574D02*
X68267Y-51732D01*
X68267Y-51574D02*
X68110Y-51732D01*
X68110Y-53937D02*
X68267Y-54094D01*
X68267Y-53937D02*
X68110Y-54094D01*
X68110Y-54330D02*
X68267Y-54488D01*
X68267Y-54330D02*
X68110Y-54488D01*
X68110Y-54724D02*
X68267Y-54881D01*
X68267Y-54724D02*
X68110Y-54881D01*
X68110Y-55118D02*
X68267Y-55275D01*
X68267Y-55118D02*
X68110Y-55275D01*
X68110Y-56299D02*
X68267Y-56456D01*
X68267Y-56299D02*
X68110Y-56456D01*
X68110Y-56692D02*
X68267Y-56850D01*
X68267Y-56692D02*
X68110Y-56850D01*
X68110Y-57086D02*
X68267Y-57244D01*
X68267Y-57086D02*
X68110Y-57244D01*
X68110Y-57480D02*
X68267Y-57637D01*
X68267Y-57480D02*
X68110Y-57637D01*
X68110Y-60236D02*
X68267Y-60393D01*
X68267Y-60236D02*
X68110Y-60393D01*
X68110Y-60629D02*
X68267Y-60787D01*
X68267Y-60629D02*
X68110Y-60787D01*
X68110Y-61023D02*
X68267Y-61181D01*
X68267Y-61023D02*
X68110Y-61181D01*
X68110Y-61417D02*
X68267Y-61574D01*
X68267Y-61417D02*
X68110Y-61574D01*
X68110Y-62992D02*
X68267Y-63149D01*
X68267Y-62992D02*
X68110Y-63149D01*
X68110Y-63385D02*
X68267Y-63543D01*
X68267Y-63385D02*
X68110Y-63543D01*
X68110Y-63779D02*
X68267Y-63937D01*
X68267Y-63779D02*
X68110Y-63937D01*
X68110Y-64173D02*
X68267Y-64330D01*
X68267Y-64173D02*
X68110Y-64330D01*
X68110Y-66535D02*
X68267Y-66692D01*
X68267Y-66535D02*
X68110Y-66692D01*
X68110Y-66929D02*
X68267Y-67086D01*
X68267Y-66929D02*
X68110Y-67086D01*
X68110Y-67322D02*
X68267Y-67480D01*
X68267Y-67322D02*
X68110Y-67480D01*
X68110Y-67716D02*
X68267Y-67874D01*
X68267Y-67716D02*
X68110Y-67874D01*
X68110Y-68897D02*
X68267Y-69055D01*
X68267Y-68897D02*
X68110Y-69055D01*
X68110Y-69291D02*
X68267Y-69448D01*
X68267Y-69291D02*
X68110Y-69448D01*
X68110Y-69685D02*
X68267Y-69842D01*
X68267Y-69685D02*
X68110Y-69842D01*
X68110Y-70078D02*
X68267Y-70236D01*
X68267Y-70078D02*
X68110Y-70236D01*
X68110Y-70984D02*
X68267Y-71141D01*
X68267Y-70984D02*
X68110Y-71141D01*
X68267Y-45157D02*
X68425Y-45314D01*
X68425Y-45157D02*
X68267Y-45314D01*
X68464Y-66023D02*
X68622Y-66181D01*
X68622Y-66023D02*
X68464Y-66181D01*
X68503Y-48031D02*
X68661Y-48188D01*
X68661Y-48031D02*
X68503Y-48188D01*
X68503Y-48425D02*
X68661Y-48582D01*
X68661Y-48425D02*
X68503Y-48582D01*
X68503Y-48818D02*
X68661Y-48976D01*
X68661Y-48818D02*
X68503Y-48976D01*
X68503Y-49212D02*
X68661Y-49370D01*
X68661Y-49212D02*
X68503Y-49370D01*
X68503Y-50393D02*
X68661Y-50551D01*
X68661Y-50393D02*
X68503Y-50551D01*
X68503Y-50787D02*
X68661Y-50944D01*
X68661Y-50787D02*
X68503Y-50944D01*
X68503Y-51181D02*
X68661Y-51338D01*
X68661Y-51181D02*
X68503Y-51338D01*
X68503Y-51574D02*
X68661Y-51732D01*
X68661Y-51574D02*
X68503Y-51732D01*
X68503Y-53937D02*
X68661Y-54094D01*
X68661Y-53937D02*
X68503Y-54094D01*
X68503Y-54330D02*
X68661Y-54488D01*
X68661Y-54330D02*
X68503Y-54488D01*
X68503Y-54724D02*
X68661Y-54881D01*
X68661Y-54724D02*
X68503Y-54881D01*
X68503Y-55118D02*
X68661Y-55275D01*
X68661Y-55118D02*
X68503Y-55275D01*
X68503Y-56299D02*
X68661Y-56456D01*
X68661Y-56299D02*
X68503Y-56456D01*
X68503Y-56692D02*
X68661Y-56850D01*
X68661Y-56692D02*
X68503Y-56850D01*
X68503Y-57086D02*
X68661Y-57244D01*
X68661Y-57086D02*
X68503Y-57244D01*
X68503Y-57480D02*
X68661Y-57637D01*
X68661Y-57480D02*
X68503Y-57637D01*
X68503Y-60236D02*
X68661Y-60393D01*
X68661Y-60236D02*
X68503Y-60393D01*
X68503Y-60629D02*
X68661Y-60787D01*
X68661Y-60629D02*
X68503Y-60787D01*
X68503Y-61023D02*
X68661Y-61181D01*
X68661Y-61023D02*
X68503Y-61181D01*
X68503Y-61417D02*
X68661Y-61574D01*
X68661Y-61417D02*
X68503Y-61574D01*
X68503Y-62952D02*
X68661Y-63110D01*
X68661Y-62952D02*
X68503Y-63110D01*
X68503Y-63385D02*
X68661Y-63543D01*
X68661Y-63385D02*
X68503Y-63543D01*
X68503Y-63779D02*
X68661Y-63937D01*
X68661Y-63779D02*
X68503Y-63937D01*
X68503Y-64173D02*
X68661Y-64330D01*
X68661Y-64173D02*
X68503Y-64330D01*
X68503Y-66535D02*
X68661Y-66692D01*
X68661Y-66535D02*
X68503Y-66692D01*
X68503Y-66929D02*
X68661Y-67086D01*
X68661Y-66929D02*
X68503Y-67086D01*
X68503Y-67322D02*
X68661Y-67480D01*
X68661Y-67322D02*
X68503Y-67480D01*
X68503Y-67716D02*
X68661Y-67874D01*
X68661Y-67716D02*
X68503Y-67874D01*
X68503Y-68897D02*
X68661Y-69055D01*
X68661Y-68897D02*
X68503Y-69055D01*
X68503Y-69291D02*
X68661Y-69448D01*
X68661Y-69291D02*
X68503Y-69448D01*
X68503Y-69685D02*
X68661Y-69842D01*
X68661Y-69685D02*
X68503Y-69842D01*
X68503Y-70078D02*
X68661Y-70236D01*
X68661Y-70078D02*
X68503Y-70236D01*
X68543Y-52125D02*
X68700Y-52283D01*
X68700Y-52125D02*
X68543Y-52283D01*
X68543Y-53385D02*
X68700Y-53543D01*
X68700Y-53385D02*
X68543Y-53543D01*
X68543Y-64724D02*
X68700Y-64881D01*
X68700Y-64724D02*
X68543Y-64881D01*
X68779Y-45157D02*
X68937Y-45314D01*
X68937Y-45157D02*
X68779Y-45314D01*
X68897Y-48031D02*
X69055Y-48188D01*
X69055Y-48031D02*
X68897Y-48188D01*
X68897Y-48425D02*
X69055Y-48582D01*
X69055Y-48425D02*
X68897Y-48582D01*
X68897Y-48818D02*
X69055Y-48976D01*
X69055Y-48818D02*
X68897Y-48976D01*
X68897Y-49212D02*
X69055Y-49370D01*
X69055Y-49212D02*
X68897Y-49370D01*
X68897Y-56299D02*
X69055Y-56456D01*
X69055Y-56299D02*
X68897Y-56456D01*
X68897Y-56692D02*
X69055Y-56850D01*
X69055Y-56692D02*
X68897Y-56850D01*
X68897Y-57086D02*
X69055Y-57244D01*
X69055Y-57086D02*
X68897Y-57244D01*
X68897Y-57480D02*
X69055Y-57637D01*
X69055Y-57480D02*
X68897Y-57637D01*
X68897Y-60196D02*
X69055Y-60354D01*
X69055Y-60196D02*
X68897Y-60354D01*
X68897Y-60629D02*
X69055Y-60787D01*
X69055Y-60629D02*
X68897Y-60787D01*
X68897Y-61023D02*
X69055Y-61181D01*
X69055Y-61023D02*
X68897Y-61181D01*
X68897Y-61417D02*
X69055Y-61574D01*
X69055Y-61417D02*
X68897Y-61574D01*
X68897Y-68464D02*
X69055Y-68622D01*
X69055Y-68464D02*
X68897Y-68622D01*
X68897Y-68897D02*
X69055Y-69055D01*
X69055Y-68897D02*
X68897Y-69055D01*
X68897Y-69291D02*
X69055Y-69448D01*
X69055Y-69291D02*
X68897Y-69448D01*
X68897Y-69685D02*
X69055Y-69842D01*
X69055Y-69685D02*
X68897Y-69842D01*
X68897Y-70078D02*
X69055Y-70236D01*
X69055Y-70078D02*
X68897Y-70236D01*
X69173Y-65826D02*
X69330Y-65984D01*
X69330Y-65826D02*
X69173Y-65984D01*
X69251Y-45157D02*
X69409Y-45314D01*
X69409Y-45157D02*
X69251Y-45314D01*
X69291Y-68267D02*
X69448Y-68425D01*
X69448Y-68267D02*
X69291Y-68425D01*
X69409Y-47834D02*
X69566Y-47992D01*
X69566Y-47834D02*
X69409Y-47992D01*
X69409Y-48267D02*
X69566Y-48425D01*
X69566Y-48267D02*
X69409Y-48425D01*
X69409Y-48622D02*
X69566Y-48779D01*
X69566Y-48622D02*
X69409Y-48779D01*
X69409Y-49015D02*
X69566Y-49173D01*
X69566Y-49015D02*
X69409Y-49173D01*
X69409Y-49409D02*
X69566Y-49566D01*
X69566Y-49409D02*
X69409Y-49566D01*
X69409Y-56102D02*
X69566Y-56259D01*
X69566Y-56102D02*
X69409Y-56259D01*
X69409Y-56496D02*
X69566Y-56653D01*
X69566Y-56496D02*
X69409Y-56653D01*
X69409Y-56889D02*
X69566Y-57047D01*
X69566Y-56889D02*
X69409Y-57047D01*
X69409Y-57283D02*
X69566Y-57440D01*
X69566Y-57283D02*
X69409Y-57440D01*
X69409Y-57677D02*
X69566Y-57834D01*
X69566Y-57677D02*
X69409Y-57834D01*
X69409Y-68700D02*
X69566Y-68858D01*
X69566Y-68700D02*
X69409Y-68858D01*
X69409Y-69055D02*
X69566Y-69212D01*
X69566Y-69055D02*
X69409Y-69212D01*
X69409Y-69488D02*
X69566Y-69645D01*
X69566Y-69488D02*
X69409Y-69645D01*
X69409Y-69881D02*
X69566Y-70039D01*
X69566Y-69881D02*
X69409Y-70039D01*
X69409Y-70275D02*
X69566Y-70433D01*
X69566Y-70275D02*
X69409Y-70433D01*
X69448Y-60039D02*
X69606Y-60196D01*
X69606Y-60039D02*
X69448Y-60196D01*
X69448Y-60433D02*
X69606Y-60590D01*
X69606Y-60433D02*
X69448Y-60590D01*
X69448Y-60826D02*
X69606Y-60984D01*
X69606Y-60826D02*
X69448Y-60984D01*
X69448Y-61220D02*
X69606Y-61377D01*
X69606Y-61220D02*
X69448Y-61377D01*
X69448Y-61614D02*
X69606Y-61771D01*
X69606Y-61614D02*
X69448Y-61771D01*
X69685Y-68267D02*
X69842Y-68425D01*
X69842Y-68267D02*
X69685Y-68425D01*
X70039Y-68582D02*
X70196Y-68740D01*
X70196Y-68582D02*
X70039Y-68740D01*
X70039Y-68937D02*
X70196Y-69094D01*
X70196Y-68937D02*
X70039Y-69094D01*
X70039Y-69291D02*
X70196Y-69448D01*
X70196Y-69291D02*
X70039Y-69448D01*
X70039Y-69645D02*
X70196Y-69803D01*
X70196Y-69645D02*
X70039Y-69803D01*
X70039Y-70078D02*
X70196Y-70236D01*
X70196Y-70078D02*
X70039Y-70236D01*
X70039Y-70511D02*
X70196Y-70669D01*
X70196Y-70511D02*
X70039Y-70669D01*
X70196Y-66692D02*
X70354Y-66850D01*
X70354Y-66692D02*
X70196Y-66850D01*
X70196Y-67125D02*
X70354Y-67283D01*
X70354Y-67125D02*
X70196Y-67283D01*
X70196Y-67637D02*
X70354Y-67795D01*
X70354Y-67637D02*
X70196Y-67795D01*
X70196Y-68149D02*
X70354Y-68307D01*
X70354Y-68149D02*
X70196Y-68307D01*
X70275Y-66181D02*
X70433Y-66338D01*
X70433Y-66181D02*
X70275Y-66338D01*
X70354Y-53582D02*
X70511Y-53740D01*
X70511Y-53582D02*
X70354Y-53740D01*
X70511Y-67362D02*
X70669Y-67519D01*
X70669Y-67362D02*
X70511Y-67519D01*
X70511Y-67913D02*
X70669Y-68070D01*
X70669Y-67913D02*
X70511Y-68070D01*
X70551Y-66889D02*
X70708Y-67047D01*
X70708Y-66889D02*
X70551Y-67047D01*
X70590Y-66535D02*
X70748Y-66692D01*
X70748Y-66535D02*
X70590Y-66692D01*
X71259Y-65787D02*
X71417Y-65944D01*
X71417Y-65787D02*
X71259Y-65944D01*
X71811Y-46968D02*
X71968Y-47125D01*
X71968Y-46968D02*
X71811Y-47125D01*
X71929Y-50393D02*
X72086Y-50551D01*
X72086Y-50393D02*
X71929Y-50551D01*
X72086Y-43897D02*
X72244Y-44055D01*
X72244Y-43897D02*
X72086Y-44055D01*
X72165Y-71023D02*
X72322Y-71181D01*
X72322Y-71023D02*
X72165Y-71181D01*
X72204Y-50708D02*
X72362Y-50866D01*
X72362Y-50708D02*
X72204Y-50866D01*
X72362Y-69606D02*
X72519Y-69763D01*
X72519Y-69606D02*
X72362Y-69763D01*
X72401Y-63582D02*
X72559Y-63740D01*
X72559Y-63582D02*
X72401Y-63740D01*
X72440Y-64645D02*
X72598Y-64803D01*
X72598Y-64645D02*
X72440Y-64803D01*
X72992Y-63070D02*
X73149Y-63228D01*
X73149Y-63070D02*
X72992Y-63228D01*
X74488Y-46299D02*
X74645Y-46456D01*
X74645Y-46299D02*
X74488Y-46456D01*
X74803Y-63031D02*
X74960Y-63188D01*
X74960Y-63031D02*
X74803Y-63188D01*
X75118Y-50708D02*
X75275Y-50866D01*
X75275Y-50708D02*
X75118Y-50866D01*
X75118Y-63425D02*
X75275Y-63582D01*
X75275Y-63425D02*
X75118Y-63582D01*
X75118Y-66968D02*
X75275Y-67125D01*
X75275Y-66968D02*
X75118Y-67125D01*
X75275Y-46338D02*
X75433Y-46496D01*
X75433Y-46338D02*
X75275Y-46496D01*
X75629Y-50196D02*
X75787Y-50354D01*
X75787Y-50196D02*
X75629Y-50354D01*
X75669Y-46732D02*
X75826Y-46889D01*
X75826Y-46732D02*
X75669Y-46889D01*
X52979Y-57440D02*
G75*
G03X52979Y-57440I-200J0D01*
G74*
G01*
X52979Y-58464D02*
G75*
G03X52979Y-58464I-200J0D01*
G74*
G01*
X53979Y-57440D02*
G75*
G03X53979Y-57440I-200J0D01*
G74*
G01*
X53979Y-58464D02*
G75*
G03X53979Y-58464I-200J0D01*
G74*
G01*
X54979Y-57440D02*
G75*
G03X54979Y-57440I-200J0D01*
G74*
G01*
X54979Y-58464D02*
G75*
G03X54979Y-58464I-200J0D01*
G74*
G01*
X44874Y-48909D02*
X44874Y-49342D01*
X44657Y-49125D02*
X45090Y-49125D01*
X44874Y-49909D02*
X44874Y-50342D01*
X44657Y-50125D02*
X45090Y-50125D01*
X44874Y-50909D02*
X44874Y-51342D01*
X44657Y-51125D02*
X45090Y-51125D01*
X44874Y-51909D02*
X44874Y-52342D01*
X44657Y-52125D02*
X45090Y-52125D01*
X44874Y-52909D02*
X44874Y-53342D01*
X44657Y-53125D02*
X45090Y-53125D01*
X44874Y-53909D02*
X44874Y-54342D01*
X44657Y-54125D02*
X45090Y-54125D01*
X44874Y-54909D02*
X44874Y-55342D01*
X44657Y-55125D02*
X45090Y-55125D01*
X44874Y-55909D02*
X44874Y-56342D01*
X44657Y-56125D02*
X45090Y-56125D01*
X44874Y-56909D02*
X44874Y-57342D01*
X44657Y-57125D02*
X45090Y-57125D01*
X44874Y-57909D02*
X44874Y-58342D01*
X44657Y-58125D02*
X45090Y-58125D01*
X44874Y-58909D02*
X44874Y-59342D01*
X44657Y-59125D02*
X45090Y-59125D01*
X44874Y-59909D02*
X44874Y-60342D01*
X44657Y-60125D02*
X45090Y-60125D01*
X44874Y-60909D02*
X44874Y-61342D01*
X44657Y-61125D02*
X45090Y-61125D01*
X44874Y-61909D02*
X44874Y-62342D01*
X44657Y-62125D02*
X45090Y-62125D01*
X44874Y-62909D02*
X44874Y-63342D01*
X44657Y-63125D02*
X45090Y-63125D01*
X50874Y-48909D02*
X50874Y-49342D01*
X50657Y-49125D02*
X51090Y-49125D01*
X50874Y-49909D02*
X50874Y-50342D01*
X50657Y-50125D02*
X51090Y-50125D01*
X50874Y-50909D02*
X50874Y-51342D01*
X50657Y-51125D02*
X51090Y-51125D01*
X50874Y-51909D02*
X50874Y-52342D01*
X50657Y-52125D02*
X51090Y-52125D01*
X50874Y-52909D02*
X50874Y-53342D01*
X50657Y-53125D02*
X51090Y-53125D01*
X50874Y-53909D02*
X50874Y-54342D01*
X50657Y-54125D02*
X51090Y-54125D01*
X50874Y-54909D02*
X50874Y-55342D01*
X50657Y-55125D02*
X51090Y-55125D01*
X50874Y-55909D02*
X50874Y-56342D01*
X50657Y-56125D02*
X51090Y-56125D01*
X50874Y-56909D02*
X50874Y-57342D01*
X50657Y-57125D02*
X51090Y-57125D01*
X50874Y-57909D02*
X50874Y-58342D01*
X50657Y-58125D02*
X51090Y-58125D01*
X50874Y-58909D02*
X50874Y-59342D01*
X50657Y-59125D02*
X51090Y-59125D01*
X50874Y-59909D02*
X50874Y-60342D01*
X50657Y-60125D02*
X51090Y-60125D01*
X50874Y-60909D02*
X50874Y-61342D01*
X50657Y-61125D02*
X51090Y-61125D01*
X50874Y-61909D02*
X50874Y-62342D01*
X50657Y-62125D02*
X51090Y-62125D01*
X50874Y-62909D02*
X50874Y-63342D01*
X50657Y-63125D02*
X51090Y-63125D01*
X42956Y-67917D02*
X42956Y-67555D01*
X42594Y-67555D01*
X42594Y-67917D01*
X42956Y-67917D01*
X42956Y-71932D02*
X42956Y-71571D01*
X42594Y-71571D01*
X42594Y-71932D01*
X42956Y-71932D01*
X43330Y-76755D02*
X43330Y-76393D01*
X42968Y-76393D01*
X42968Y-76755D01*
X43330Y-76755D01*
X45299Y-76755D02*
X45299Y-76393D01*
X44937Y-76393D01*
X44937Y-76755D01*
X45299Y-76755D01*
X45318Y-67129D02*
X45318Y-66767D01*
X44956Y-66767D01*
X44956Y-67129D01*
X45318Y-67129D01*
X47267Y-76755D02*
X47267Y-76393D01*
X46905Y-76393D01*
X46905Y-76755D01*
X47267Y-76755D01*
X47680Y-67917D02*
X47680Y-67555D01*
X47319Y-67555D01*
X47319Y-67917D01*
X47680Y-67917D01*
X47680Y-71932D02*
X47680Y-71571D01*
X47319Y-71571D01*
X47319Y-71932D01*
X47680Y-71932D01*
X49728Y-67917D02*
X49728Y-67555D01*
X49366Y-67555D01*
X49366Y-67917D01*
X49728Y-67917D01*
X49728Y-71932D02*
X49728Y-71571D01*
X49366Y-71571D01*
X49366Y-71932D01*
X49728Y-71932D01*
X50180Y-76755D02*
X50180Y-76393D01*
X49819Y-76393D01*
X49819Y-76755D01*
X50180Y-76755D01*
X52090Y-67129D02*
X52090Y-66767D01*
X51728Y-66767D01*
X51728Y-67129D01*
X52090Y-67129D01*
X52149Y-76755D02*
X52149Y-76393D01*
X51787Y-76393D01*
X51787Y-76755D01*
X52149Y-76755D01*
X54117Y-76755D02*
X54117Y-76393D01*
X53756Y-76393D01*
X53756Y-76755D01*
X54117Y-76755D01*
X54452Y-67917D02*
X54452Y-67555D01*
X54090Y-67555D01*
X54090Y-67917D01*
X54452Y-67917D01*
X54452Y-71932D02*
X54452Y-71571D01*
X54090Y-71571D01*
X54090Y-71932D01*
X54452Y-71932D01*
X73952Y-48409D02*
X74267Y-48094D01*
X73952Y-47779D01*
X73637Y-48094D01*
X73952Y-48409D01*
X73952Y-49989D02*
X74267Y-49674D01*
X73952Y-49359D01*
X73637Y-49674D01*
X73952Y-49989D01*
X73952Y-56409D02*
X74267Y-56094D01*
X73952Y-55779D01*
X73637Y-56094D01*
X73952Y-56409D01*
X73952Y-57989D02*
X74267Y-57674D01*
X73952Y-57359D01*
X73637Y-57674D01*
X73952Y-57989D01*
X73952Y-64409D02*
X74267Y-64094D01*
X73952Y-63779D01*
X73637Y-64094D01*
X73952Y-64409D01*
X73952Y-65989D02*
X74267Y-65674D01*
X73952Y-65359D01*
X73637Y-65674D01*
X73952Y-65989D01*
X77942Y-60409D02*
X78257Y-60094D01*
X77942Y-59779D01*
X77627Y-60094D01*
X77942Y-60409D01*
X77947Y-61989D02*
X78262Y-61674D01*
X77947Y-61359D01*
X77632Y-61674D01*
X77947Y-61989D01*
X77952Y-44409D02*
X78267Y-44094D01*
X77952Y-43779D01*
X77637Y-44094D01*
X77952Y-44409D01*
X77952Y-45989D02*
X78267Y-45674D01*
X77952Y-45359D01*
X77637Y-45674D01*
X77952Y-45989D01*
X77952Y-52409D02*
X78267Y-52094D01*
X77952Y-51779D01*
X77637Y-52094D01*
X77952Y-52409D01*
X77952Y-53989D02*
X78267Y-53674D01*
X77952Y-53359D01*
X77637Y-53674D01*
X77952Y-53989D01*
G54D13*
X40419Y-80537D02*
X40419Y-79356D01*
X40700Y-79356D01*
X40868Y-79412D01*
X40981Y-79524D01*
X41037Y-79637D01*
X41093Y-79862D01*
X41093Y-80030D01*
X41037Y-80255D01*
X40981Y-80368D01*
X40868Y-80480D01*
X40700Y-80537D01*
X40419Y-80537D01*
X41600Y-80537D02*
X41600Y-79749D01*
X41600Y-79974D02*
X41656Y-79862D01*
X41712Y-79805D01*
X41825Y-79749D01*
X41937Y-79749D01*
X42331Y-80537D02*
X42331Y-79749D01*
X42331Y-79356D02*
X42275Y-79412D01*
X42331Y-79468D01*
X42387Y-79412D01*
X42331Y-79356D01*
X42331Y-79468D01*
X43062Y-80537D02*
X42949Y-80480D01*
X42893Y-80368D01*
X42893Y-79356D01*
X43681Y-80537D02*
X43568Y-80480D01*
X43512Y-80368D01*
X43512Y-79356D01*
X45030Y-80537D02*
X45030Y-79356D01*
X45424Y-80199D01*
X45818Y-79356D01*
X45818Y-80537D01*
X46886Y-80537D02*
X46886Y-79918D01*
X46830Y-79805D01*
X46718Y-79749D01*
X46493Y-79749D01*
X46380Y-79805D01*
X46886Y-80480D02*
X46774Y-80537D01*
X46493Y-80537D01*
X46380Y-80480D01*
X46324Y-80368D01*
X46324Y-80255D01*
X46380Y-80143D01*
X46493Y-80087D01*
X46774Y-80087D01*
X46886Y-80030D01*
X47449Y-79749D02*
X47449Y-80930D01*
X47449Y-79805D02*
X47561Y-79749D01*
X47786Y-79749D01*
X47899Y-79805D01*
X47955Y-79862D01*
X48011Y-79974D01*
X48011Y-80312D01*
X47955Y-80424D01*
X47899Y-80480D01*
X47786Y-80537D01*
X47561Y-80537D01*
X47449Y-80480D01*
X48517Y-80424D02*
X48574Y-80480D01*
X48517Y-80537D01*
X48461Y-80480D01*
X48517Y-80424D01*
X48517Y-80537D01*
X48517Y-79805D02*
X48574Y-79862D01*
X48517Y-79918D01*
X48461Y-79862D01*
X48517Y-79805D01*
X48517Y-79918D01*
X39192Y-82460D02*
X39350Y-82618D01*
X39350Y-82460D02*
X39192Y-82618D01*
X40643Y-81836D02*
X40756Y-81836D01*
X40868Y-81892D01*
X40925Y-81948D01*
X40981Y-82061D01*
X41037Y-82286D01*
X41037Y-82567D01*
X40981Y-82792D01*
X40925Y-82904D01*
X40868Y-82961D01*
X40756Y-83017D01*
X40643Y-83017D01*
X40531Y-82961D01*
X40475Y-82904D01*
X40419Y-82792D01*
X40362Y-82567D01*
X40362Y-82286D01*
X40419Y-82061D01*
X40475Y-81948D01*
X40531Y-81892D01*
X40643Y-81836D01*
X41543Y-82904D02*
X41600Y-82961D01*
X41543Y-83017D01*
X41487Y-82961D01*
X41543Y-82904D01*
X41543Y-83017D01*
X42612Y-82230D02*
X42612Y-83017D01*
X42331Y-81780D02*
X42050Y-82623D01*
X42781Y-82623D01*
X43456Y-81836D02*
X43568Y-81836D01*
X43681Y-81892D01*
X43737Y-81948D01*
X43793Y-82061D01*
X43849Y-82286D01*
X43849Y-82567D01*
X43793Y-82792D01*
X43737Y-82904D01*
X43681Y-82961D01*
X43568Y-83017D01*
X43456Y-83017D01*
X43343Y-82961D01*
X43287Y-82904D01*
X43231Y-82792D01*
X43174Y-82567D01*
X43174Y-82286D01*
X43231Y-82061D01*
X43287Y-81948D01*
X43343Y-81892D01*
X43456Y-81836D01*
X44356Y-83017D02*
X44356Y-82230D01*
X44356Y-82342D02*
X44412Y-82286D01*
X44524Y-82230D01*
X44693Y-82230D01*
X44805Y-82286D01*
X44862Y-82398D01*
X44862Y-83017D01*
X44862Y-82398D02*
X44918Y-82286D01*
X45030Y-82230D01*
X45199Y-82230D01*
X45312Y-82286D01*
X45368Y-82398D01*
X45368Y-83017D01*
X45930Y-83017D02*
X45930Y-82230D01*
X45930Y-82342D02*
X45987Y-82286D01*
X46099Y-82230D01*
X46268Y-82230D01*
X46380Y-82286D01*
X46437Y-82398D01*
X46437Y-83017D01*
X46437Y-82398D02*
X46493Y-82286D01*
X46605Y-82230D01*
X46774Y-82230D01*
X46886Y-82286D01*
X46943Y-82398D01*
X46943Y-83017D01*
X49249Y-81780D02*
X48236Y-83298D01*
X50767Y-81836D02*
X50880Y-81836D01*
X50992Y-81892D01*
X51048Y-81948D01*
X51105Y-82061D01*
X51161Y-82286D01*
X51161Y-82567D01*
X51105Y-82792D01*
X51048Y-82904D01*
X50992Y-82961D01*
X50880Y-83017D01*
X50767Y-83017D01*
X50655Y-82961D01*
X50598Y-82904D01*
X50542Y-82792D01*
X50486Y-82567D01*
X50486Y-82286D01*
X50542Y-82061D01*
X50598Y-81948D01*
X50655Y-81892D01*
X50767Y-81836D01*
X51667Y-82904D02*
X51723Y-82961D01*
X51667Y-83017D01*
X51611Y-82961D01*
X51667Y-82904D01*
X51667Y-83017D01*
X52455Y-81836D02*
X52567Y-81836D01*
X52679Y-81892D01*
X52736Y-81948D01*
X52792Y-82061D01*
X52848Y-82286D01*
X52848Y-82567D01*
X52792Y-82792D01*
X52736Y-82904D01*
X52679Y-82961D01*
X52567Y-83017D01*
X52455Y-83017D01*
X52342Y-82961D01*
X52286Y-82904D01*
X52230Y-82792D01*
X52173Y-82567D01*
X52173Y-82286D01*
X52230Y-82061D01*
X52286Y-81948D01*
X52342Y-81892D01*
X52455Y-81836D01*
X53973Y-83017D02*
X53298Y-83017D01*
X53636Y-83017D02*
X53636Y-81836D01*
X53523Y-82005D01*
X53411Y-82117D01*
X53298Y-82173D01*
X54985Y-81836D02*
X54760Y-81836D01*
X54648Y-81892D01*
X54592Y-81948D01*
X54479Y-82117D01*
X54423Y-82342D01*
X54423Y-82792D01*
X54479Y-82904D01*
X54535Y-82961D01*
X54648Y-83017D01*
X54873Y-83017D01*
X54985Y-82961D01*
X55042Y-82904D01*
X55098Y-82792D01*
X55098Y-82511D01*
X55042Y-82398D01*
X54985Y-82342D01*
X54873Y-82286D01*
X54648Y-82286D01*
X54535Y-82342D01*
X54479Y-82398D01*
X54423Y-82511D01*
X55548Y-81836D02*
X55548Y-82061D01*
X55998Y-81836D02*
X55998Y-82061D01*
X57741Y-83467D02*
X57685Y-83411D01*
X57573Y-83242D01*
X57516Y-83129D01*
X57460Y-82961D01*
X57404Y-82679D01*
X57404Y-82455D01*
X57460Y-82173D01*
X57516Y-82005D01*
X57573Y-81892D01*
X57685Y-81723D01*
X57741Y-81667D01*
X58079Y-81836D02*
X58810Y-81836D01*
X58416Y-82286D01*
X58585Y-82286D01*
X58697Y-82342D01*
X58754Y-82398D01*
X58810Y-82511D01*
X58810Y-82792D01*
X58754Y-82904D01*
X58697Y-82961D01*
X58585Y-83017D01*
X58248Y-83017D01*
X58135Y-82961D01*
X58079Y-82904D01*
X59822Y-82230D02*
X59822Y-83017D01*
X59541Y-81780D02*
X59260Y-82623D01*
X59991Y-82623D01*
X60666Y-81836D02*
X60778Y-81836D01*
X60891Y-81892D01*
X60947Y-81948D01*
X61003Y-82061D01*
X61060Y-82286D01*
X61060Y-82567D01*
X61003Y-82792D01*
X60947Y-82904D01*
X60891Y-82961D01*
X60778Y-83017D01*
X60666Y-83017D01*
X60553Y-82961D01*
X60497Y-82904D01*
X60441Y-82792D01*
X60385Y-82567D01*
X60385Y-82286D01*
X60441Y-82061D01*
X60497Y-81948D01*
X60553Y-81892D01*
X60666Y-81836D01*
X62466Y-83017D02*
X62466Y-81836D01*
X62972Y-83017D02*
X62972Y-82398D01*
X62916Y-82286D01*
X62803Y-82230D01*
X62634Y-82230D01*
X62522Y-82286D01*
X62466Y-82342D01*
X63703Y-83017D02*
X63591Y-82961D01*
X63534Y-82904D01*
X63478Y-82792D01*
X63478Y-82455D01*
X63534Y-82342D01*
X63591Y-82286D01*
X63703Y-82230D01*
X63872Y-82230D01*
X63984Y-82286D01*
X64041Y-82342D01*
X64097Y-82455D01*
X64097Y-82792D01*
X64041Y-82904D01*
X63984Y-82961D01*
X63872Y-83017D01*
X63703Y-83017D01*
X64772Y-83017D02*
X64659Y-82961D01*
X64603Y-82848D01*
X64603Y-81836D01*
X65672Y-82961D02*
X65559Y-83017D01*
X65334Y-83017D01*
X65222Y-82961D01*
X65165Y-82848D01*
X65165Y-82398D01*
X65222Y-82286D01*
X65334Y-82230D01*
X65559Y-82230D01*
X65672Y-82286D01*
X65728Y-82398D01*
X65728Y-82511D01*
X65165Y-82623D01*
X66178Y-82961D02*
X66290Y-83017D01*
X66515Y-83017D01*
X66628Y-82961D01*
X66684Y-82848D01*
X66684Y-82792D01*
X66628Y-82679D01*
X66515Y-82623D01*
X66347Y-82623D01*
X66234Y-82567D01*
X66178Y-82455D01*
X66178Y-82398D01*
X66234Y-82286D01*
X66347Y-82230D01*
X66515Y-82230D01*
X66628Y-82286D01*
X67078Y-83467D02*
X67134Y-83411D01*
X67246Y-83242D01*
X67303Y-83129D01*
X67359Y-82961D01*
X67415Y-82679D01*
X67415Y-82455D01*
X67359Y-82173D01*
X67303Y-82005D01*
X67246Y-81892D01*
X67134Y-81723D01*
X67078Y-81667D01*
G54D12*
X39350Y-84098D02*
G75*
G03X39350Y-84098I-200J0D01*
G74*
G01*
G54D13*
X41037Y-84576D02*
X40362Y-84576D01*
X40700Y-84576D02*
X40700Y-83395D01*
X40587Y-83564D01*
X40475Y-83676D01*
X40362Y-83732D01*
X41543Y-84464D02*
X41600Y-84520D01*
X41543Y-84576D01*
X41487Y-84520D01*
X41543Y-84464D01*
X41543Y-84576D01*
X42331Y-83395D02*
X42443Y-83395D01*
X42556Y-83451D01*
X42612Y-83507D01*
X42668Y-83620D01*
X42724Y-83845D01*
X42724Y-84126D01*
X42668Y-84351D01*
X42612Y-84464D01*
X42556Y-84520D01*
X42443Y-84576D01*
X42331Y-84576D01*
X42218Y-84520D01*
X42162Y-84464D01*
X42106Y-84351D01*
X42050Y-84126D01*
X42050Y-83845D01*
X42106Y-83620D01*
X42162Y-83507D01*
X42218Y-83451D01*
X42331Y-83395D01*
X43174Y-83507D02*
X43231Y-83451D01*
X43343Y-83395D01*
X43624Y-83395D01*
X43737Y-83451D01*
X43793Y-83507D01*
X43849Y-83620D01*
X43849Y-83732D01*
X43793Y-83901D01*
X43118Y-84576D01*
X43849Y-84576D01*
X44356Y-84576D02*
X44356Y-83789D01*
X44356Y-83901D02*
X44412Y-83845D01*
X44524Y-83789D01*
X44693Y-83789D01*
X44805Y-83845D01*
X44862Y-83957D01*
X44862Y-84576D01*
X44862Y-83957D02*
X44918Y-83845D01*
X45030Y-83789D01*
X45199Y-83789D01*
X45312Y-83845D01*
X45368Y-83957D01*
X45368Y-84576D01*
X45930Y-84576D02*
X45930Y-83789D01*
X45930Y-83901D02*
X45987Y-83845D01*
X46099Y-83789D01*
X46268Y-83789D01*
X46380Y-83845D01*
X46437Y-83957D01*
X46437Y-84576D01*
X46437Y-83957D02*
X46493Y-83845D01*
X46605Y-83789D01*
X46774Y-83789D01*
X46886Y-83845D01*
X46943Y-83957D01*
X46943Y-84576D01*
X49249Y-83339D02*
X48236Y-84857D01*
X50767Y-83395D02*
X50880Y-83395D01*
X50992Y-83451D01*
X51048Y-83507D01*
X51105Y-83620D01*
X51161Y-83845D01*
X51161Y-84126D01*
X51105Y-84351D01*
X51048Y-84464D01*
X50992Y-84520D01*
X50880Y-84576D01*
X50767Y-84576D01*
X50655Y-84520D01*
X50598Y-84464D01*
X50542Y-84351D01*
X50486Y-84126D01*
X50486Y-83845D01*
X50542Y-83620D01*
X50598Y-83507D01*
X50655Y-83451D01*
X50767Y-83395D01*
X51667Y-84464D02*
X51723Y-84520D01*
X51667Y-84576D01*
X51611Y-84520D01*
X51667Y-84464D01*
X51667Y-84576D01*
X52455Y-83395D02*
X52567Y-83395D01*
X52679Y-83451D01*
X52736Y-83507D01*
X52792Y-83620D01*
X52848Y-83845D01*
X52848Y-84126D01*
X52792Y-84351D01*
X52736Y-84464D01*
X52679Y-84520D01*
X52567Y-84576D01*
X52455Y-84576D01*
X52342Y-84520D01*
X52286Y-84464D01*
X52230Y-84351D01*
X52173Y-84126D01*
X52173Y-83845D01*
X52230Y-83620D01*
X52286Y-83507D01*
X52342Y-83451D01*
X52455Y-83395D01*
X53861Y-83789D02*
X53861Y-84576D01*
X53579Y-83339D02*
X53298Y-84182D01*
X54029Y-84182D01*
X54704Y-83395D02*
X54817Y-83395D01*
X54929Y-83451D01*
X54985Y-83507D01*
X55042Y-83620D01*
X55098Y-83845D01*
X55098Y-84126D01*
X55042Y-84351D01*
X54985Y-84464D01*
X54929Y-84520D01*
X54817Y-84576D01*
X54704Y-84576D01*
X54592Y-84520D01*
X54535Y-84464D01*
X54479Y-84351D01*
X54423Y-84126D01*
X54423Y-83845D01*
X54479Y-83620D01*
X54535Y-83507D01*
X54592Y-83451D01*
X54704Y-83395D01*
X55548Y-83395D02*
X55548Y-83620D01*
X55998Y-83395D02*
X55998Y-83620D01*
X57741Y-85026D02*
X57685Y-84970D01*
X57573Y-84801D01*
X57516Y-84688D01*
X57460Y-84520D01*
X57404Y-84239D01*
X57404Y-84014D01*
X57460Y-83732D01*
X57516Y-83564D01*
X57573Y-83451D01*
X57685Y-83282D01*
X57741Y-83226D01*
X58697Y-83395D02*
X58473Y-83395D01*
X58360Y-83451D01*
X58304Y-83507D01*
X58191Y-83676D01*
X58135Y-83901D01*
X58135Y-84351D01*
X58191Y-84464D01*
X58248Y-84520D01*
X58360Y-84576D01*
X58585Y-84576D01*
X58697Y-84520D01*
X58754Y-84464D01*
X58810Y-84351D01*
X58810Y-84070D01*
X58754Y-83957D01*
X58697Y-83901D01*
X58585Y-83845D01*
X58360Y-83845D01*
X58248Y-83901D01*
X58191Y-83957D01*
X58135Y-84070D01*
X60216Y-84576D02*
X60216Y-83395D01*
X60722Y-84576D02*
X60722Y-83957D01*
X60666Y-83845D01*
X60553Y-83789D01*
X60385Y-83789D01*
X60272Y-83845D01*
X60216Y-83901D01*
X61453Y-84576D02*
X61341Y-84520D01*
X61285Y-84464D01*
X61228Y-84351D01*
X61228Y-84014D01*
X61285Y-83901D01*
X61341Y-83845D01*
X61453Y-83789D01*
X61622Y-83789D01*
X61735Y-83845D01*
X61791Y-83901D01*
X61847Y-84014D01*
X61847Y-84351D01*
X61791Y-84464D01*
X61735Y-84520D01*
X61622Y-84576D01*
X61453Y-84576D01*
X62522Y-84576D02*
X62410Y-84520D01*
X62353Y-84407D01*
X62353Y-83395D01*
X63422Y-84520D02*
X63309Y-84576D01*
X63084Y-84576D01*
X62972Y-84520D01*
X62916Y-84407D01*
X62916Y-83957D01*
X62972Y-83845D01*
X63084Y-83789D01*
X63309Y-83789D01*
X63422Y-83845D01*
X63478Y-83957D01*
X63478Y-84070D01*
X62916Y-84182D01*
X63928Y-84520D02*
X64041Y-84576D01*
X64266Y-84576D01*
X64378Y-84520D01*
X64434Y-84407D01*
X64434Y-84351D01*
X64378Y-84239D01*
X64266Y-84182D01*
X64097Y-84182D01*
X63984Y-84126D01*
X63928Y-84014D01*
X63928Y-83957D01*
X63984Y-83845D01*
X64097Y-83789D01*
X64266Y-83789D01*
X64378Y-83845D01*
X64828Y-85026D02*
X64884Y-84970D01*
X64997Y-84801D01*
X65053Y-84688D01*
X65109Y-84520D01*
X65165Y-84239D01*
X65165Y-84014D01*
X65109Y-83732D01*
X65053Y-83564D01*
X64997Y-83451D01*
X64884Y-83282D01*
X64828Y-83226D01*
X39133Y-85440D02*
X39133Y-85874D01*
X38917Y-85657D02*
X39350Y-85657D01*
X41037Y-86135D02*
X40362Y-86135D01*
X40700Y-86135D02*
X40700Y-84954D01*
X40587Y-85123D01*
X40475Y-85235D01*
X40362Y-85291D01*
X41543Y-86023D02*
X41600Y-86079D01*
X41543Y-86135D01*
X41487Y-86079D01*
X41543Y-86023D01*
X41543Y-86135D01*
X42724Y-86135D02*
X42050Y-86135D01*
X42387Y-86135D02*
X42387Y-84954D01*
X42275Y-85123D01*
X42162Y-85235D01*
X42050Y-85291D01*
X43456Y-84954D02*
X43568Y-84954D01*
X43681Y-85010D01*
X43737Y-85066D01*
X43793Y-85179D01*
X43849Y-85404D01*
X43849Y-85685D01*
X43793Y-85910D01*
X43737Y-86023D01*
X43681Y-86079D01*
X43568Y-86135D01*
X43456Y-86135D01*
X43343Y-86079D01*
X43287Y-86023D01*
X43231Y-85910D01*
X43174Y-85685D01*
X43174Y-85404D01*
X43231Y-85179D01*
X43287Y-85066D01*
X43343Y-85010D01*
X43456Y-84954D01*
X44356Y-86135D02*
X44356Y-85348D01*
X44356Y-85460D02*
X44412Y-85404D01*
X44524Y-85348D01*
X44693Y-85348D01*
X44805Y-85404D01*
X44862Y-85516D01*
X44862Y-86135D01*
X44862Y-85516D02*
X44918Y-85404D01*
X45030Y-85348D01*
X45199Y-85348D01*
X45312Y-85404D01*
X45368Y-85516D01*
X45368Y-86135D01*
X45930Y-86135D02*
X45930Y-85348D01*
X45930Y-85460D02*
X45987Y-85404D01*
X46099Y-85348D01*
X46268Y-85348D01*
X46380Y-85404D01*
X46437Y-85516D01*
X46437Y-86135D01*
X46437Y-85516D02*
X46493Y-85404D01*
X46605Y-85348D01*
X46774Y-85348D01*
X46886Y-85404D01*
X46943Y-85516D01*
X46943Y-86135D01*
X49249Y-84898D02*
X48236Y-86416D01*
X50767Y-84954D02*
X50880Y-84954D01*
X50992Y-85010D01*
X51048Y-85066D01*
X51105Y-85179D01*
X51161Y-85404D01*
X51161Y-85685D01*
X51105Y-85910D01*
X51048Y-86023D01*
X50992Y-86079D01*
X50880Y-86135D01*
X50767Y-86135D01*
X50655Y-86079D01*
X50598Y-86023D01*
X50542Y-85910D01*
X50486Y-85685D01*
X50486Y-85404D01*
X50542Y-85179D01*
X50598Y-85066D01*
X50655Y-85010D01*
X50767Y-84954D01*
X51667Y-86023D02*
X51723Y-86079D01*
X51667Y-86135D01*
X51611Y-86079D01*
X51667Y-86023D01*
X51667Y-86135D01*
X52455Y-84954D02*
X52567Y-84954D01*
X52679Y-85010D01*
X52736Y-85066D01*
X52792Y-85179D01*
X52848Y-85404D01*
X52848Y-85685D01*
X52792Y-85910D01*
X52736Y-86023D01*
X52679Y-86079D01*
X52567Y-86135D01*
X52455Y-86135D01*
X52342Y-86079D01*
X52286Y-86023D01*
X52230Y-85910D01*
X52173Y-85685D01*
X52173Y-85404D01*
X52230Y-85179D01*
X52286Y-85066D01*
X52342Y-85010D01*
X52455Y-84954D01*
X53861Y-85348D02*
X53861Y-86135D01*
X53579Y-84898D02*
X53298Y-85741D01*
X54029Y-85741D01*
X54367Y-84954D02*
X55098Y-84954D01*
X54704Y-85404D01*
X54873Y-85404D01*
X54985Y-85460D01*
X55042Y-85516D01*
X55098Y-85629D01*
X55098Y-85910D01*
X55042Y-86023D01*
X54985Y-86079D01*
X54873Y-86135D01*
X54535Y-86135D01*
X54423Y-86079D01*
X54367Y-86023D01*
X55548Y-84954D02*
X55548Y-85179D01*
X55998Y-84954D02*
X55998Y-85179D01*
X57741Y-86585D02*
X57685Y-86529D01*
X57573Y-86360D01*
X57516Y-86248D01*
X57460Y-86079D01*
X57404Y-85798D01*
X57404Y-85573D01*
X57460Y-85291D01*
X57516Y-85123D01*
X57573Y-85010D01*
X57685Y-84841D01*
X57741Y-84785D01*
X58079Y-84954D02*
X58810Y-84954D01*
X58416Y-85404D01*
X58585Y-85404D01*
X58697Y-85460D01*
X58754Y-85516D01*
X58810Y-85629D01*
X58810Y-85910D01*
X58754Y-86023D01*
X58697Y-86079D01*
X58585Y-86135D01*
X58248Y-86135D01*
X58135Y-86079D01*
X58079Y-86023D01*
X59541Y-84954D02*
X59654Y-84954D01*
X59766Y-85010D01*
X59822Y-85066D01*
X59879Y-85179D01*
X59935Y-85404D01*
X59935Y-85685D01*
X59879Y-85910D01*
X59822Y-86023D01*
X59766Y-86079D01*
X59654Y-86135D01*
X59541Y-86135D01*
X59429Y-86079D01*
X59372Y-86023D01*
X59316Y-85910D01*
X59260Y-85685D01*
X59260Y-85404D01*
X59316Y-85179D01*
X59372Y-85066D01*
X59429Y-85010D01*
X59541Y-84954D01*
X61341Y-86135D02*
X61341Y-84954D01*
X61847Y-86135D02*
X61847Y-85516D01*
X61791Y-85404D01*
X61678Y-85348D01*
X61510Y-85348D01*
X61397Y-85404D01*
X61341Y-85460D01*
X62578Y-86135D02*
X62466Y-86079D01*
X62410Y-86023D01*
X62353Y-85910D01*
X62353Y-85573D01*
X62410Y-85460D01*
X62466Y-85404D01*
X62578Y-85348D01*
X62747Y-85348D01*
X62859Y-85404D01*
X62916Y-85460D01*
X62972Y-85573D01*
X62972Y-85910D01*
X62916Y-86023D01*
X62859Y-86079D01*
X62747Y-86135D01*
X62578Y-86135D01*
X63647Y-86135D02*
X63534Y-86079D01*
X63478Y-85966D01*
X63478Y-84954D01*
X64547Y-86079D02*
X64434Y-86135D01*
X64209Y-86135D01*
X64097Y-86079D01*
X64041Y-85966D01*
X64041Y-85516D01*
X64097Y-85404D01*
X64209Y-85348D01*
X64434Y-85348D01*
X64547Y-85404D01*
X64603Y-85516D01*
X64603Y-85629D01*
X64041Y-85741D01*
X65053Y-86079D02*
X65165Y-86135D01*
X65390Y-86135D01*
X65503Y-86079D01*
X65559Y-85966D01*
X65559Y-85910D01*
X65503Y-85798D01*
X65390Y-85741D01*
X65222Y-85741D01*
X65109Y-85685D01*
X65053Y-85573D01*
X65053Y-85516D01*
X65109Y-85404D01*
X65222Y-85348D01*
X65390Y-85348D01*
X65503Y-85404D01*
X65953Y-86585D02*
X66009Y-86529D01*
X66122Y-86360D01*
X66178Y-86248D01*
X66234Y-86079D01*
X66290Y-85798D01*
X66290Y-85573D01*
X66234Y-85291D01*
X66178Y-85123D01*
X66122Y-85010D01*
X66009Y-84841D01*
X65953Y-84785D01*
G54D12*
X39275Y-87397D02*
X39275Y-87035D01*
X38913Y-87035D01*
X38913Y-87397D01*
X39275Y-87397D01*
G54D13*
X41037Y-87694D02*
X40362Y-87694D01*
X40700Y-87694D02*
X40700Y-86513D01*
X40587Y-86682D01*
X40475Y-86794D01*
X40362Y-86850D01*
X41543Y-87582D02*
X41600Y-87638D01*
X41543Y-87694D01*
X41487Y-87638D01*
X41543Y-87582D01*
X41543Y-87694D01*
X41993Y-86513D02*
X42724Y-86513D01*
X42331Y-86963D01*
X42499Y-86963D01*
X42612Y-87019D01*
X42668Y-87075D01*
X42724Y-87188D01*
X42724Y-87469D01*
X42668Y-87582D01*
X42612Y-87638D01*
X42499Y-87694D01*
X42162Y-87694D01*
X42050Y-87638D01*
X41993Y-87582D01*
X43456Y-86513D02*
X43568Y-86513D01*
X43681Y-86569D01*
X43737Y-86625D01*
X43793Y-86738D01*
X43849Y-86963D01*
X43849Y-87244D01*
X43793Y-87469D01*
X43737Y-87582D01*
X43681Y-87638D01*
X43568Y-87694D01*
X43456Y-87694D01*
X43343Y-87638D01*
X43287Y-87582D01*
X43231Y-87469D01*
X43174Y-87244D01*
X43174Y-86963D01*
X43231Y-86738D01*
X43287Y-86625D01*
X43343Y-86569D01*
X43456Y-86513D01*
X44356Y-87694D02*
X44356Y-86907D01*
X44356Y-87019D02*
X44412Y-86963D01*
X44524Y-86907D01*
X44693Y-86907D01*
X44805Y-86963D01*
X44862Y-87075D01*
X44862Y-87694D01*
X44862Y-87075D02*
X44918Y-86963D01*
X45030Y-86907D01*
X45199Y-86907D01*
X45312Y-86963D01*
X45368Y-87075D01*
X45368Y-87694D01*
X45930Y-87694D02*
X45930Y-86907D01*
X45930Y-87019D02*
X45987Y-86963D01*
X46099Y-86907D01*
X46268Y-86907D01*
X46380Y-86963D01*
X46437Y-87075D01*
X46437Y-87694D01*
X46437Y-87075D02*
X46493Y-86963D01*
X46605Y-86907D01*
X46774Y-86907D01*
X46886Y-86963D01*
X46943Y-87075D01*
X46943Y-87694D01*
X49249Y-86457D02*
X48236Y-87975D01*
X50767Y-86513D02*
X50880Y-86513D01*
X50992Y-86569D01*
X51048Y-86625D01*
X51105Y-86738D01*
X51161Y-86963D01*
X51161Y-87244D01*
X51105Y-87469D01*
X51048Y-87582D01*
X50992Y-87638D01*
X50880Y-87694D01*
X50767Y-87694D01*
X50655Y-87638D01*
X50598Y-87582D01*
X50542Y-87469D01*
X50486Y-87244D01*
X50486Y-86963D01*
X50542Y-86738D01*
X50598Y-86625D01*
X50655Y-86569D01*
X50767Y-86513D01*
X51667Y-87582D02*
X51723Y-87638D01*
X51667Y-87694D01*
X51611Y-87638D01*
X51667Y-87582D01*
X51667Y-87694D01*
X52455Y-86513D02*
X52567Y-86513D01*
X52679Y-86569D01*
X52736Y-86625D01*
X52792Y-86738D01*
X52848Y-86963D01*
X52848Y-87244D01*
X52792Y-87469D01*
X52736Y-87582D01*
X52679Y-87638D01*
X52567Y-87694D01*
X52455Y-87694D01*
X52342Y-87638D01*
X52286Y-87582D01*
X52230Y-87469D01*
X52173Y-87244D01*
X52173Y-86963D01*
X52230Y-86738D01*
X52286Y-86625D01*
X52342Y-86569D01*
X52455Y-86513D01*
X53917Y-86513D02*
X53354Y-86513D01*
X53298Y-87075D01*
X53354Y-87019D01*
X53467Y-86963D01*
X53748Y-86963D01*
X53861Y-87019D01*
X53917Y-87075D01*
X53973Y-87188D01*
X53973Y-87469D01*
X53917Y-87582D01*
X53861Y-87638D01*
X53748Y-87694D01*
X53467Y-87694D01*
X53354Y-87638D01*
X53298Y-87582D01*
X55098Y-87694D02*
X54423Y-87694D01*
X54760Y-87694D02*
X54760Y-86513D01*
X54648Y-86682D01*
X54535Y-86794D01*
X54423Y-86850D01*
X55548Y-86513D02*
X55548Y-86738D01*
X55998Y-86513D02*
X55998Y-86738D01*
X57741Y-88144D02*
X57685Y-88088D01*
X57573Y-87919D01*
X57516Y-87807D01*
X57460Y-87638D01*
X57404Y-87357D01*
X57404Y-87132D01*
X57460Y-86850D01*
X57516Y-86682D01*
X57573Y-86569D01*
X57685Y-86401D01*
X57741Y-86344D01*
X58810Y-87694D02*
X58135Y-87694D01*
X58473Y-87694D02*
X58473Y-86513D01*
X58360Y-86682D01*
X58248Y-86794D01*
X58135Y-86850D01*
X59822Y-86513D02*
X59597Y-86513D01*
X59485Y-86569D01*
X59429Y-86625D01*
X59316Y-86794D01*
X59260Y-87019D01*
X59260Y-87469D01*
X59316Y-87582D01*
X59372Y-87638D01*
X59485Y-87694D01*
X59710Y-87694D01*
X59822Y-87638D01*
X59879Y-87582D01*
X59935Y-87469D01*
X59935Y-87188D01*
X59879Y-87075D01*
X59822Y-87019D01*
X59710Y-86963D01*
X59485Y-86963D01*
X59372Y-87019D01*
X59316Y-87075D01*
X59260Y-87188D01*
X61341Y-87694D02*
X61341Y-86513D01*
X61847Y-87694D02*
X61847Y-87075D01*
X61791Y-86963D01*
X61678Y-86907D01*
X61510Y-86907D01*
X61397Y-86963D01*
X61341Y-87019D01*
X62578Y-87694D02*
X62466Y-87638D01*
X62410Y-87582D01*
X62353Y-87469D01*
X62353Y-87132D01*
X62410Y-87019D01*
X62466Y-86963D01*
X62578Y-86907D01*
X62747Y-86907D01*
X62859Y-86963D01*
X62916Y-87019D01*
X62972Y-87132D01*
X62972Y-87469D01*
X62916Y-87582D01*
X62859Y-87638D01*
X62747Y-87694D01*
X62578Y-87694D01*
X63647Y-87694D02*
X63534Y-87638D01*
X63478Y-87525D01*
X63478Y-86513D01*
X64547Y-87638D02*
X64434Y-87694D01*
X64209Y-87694D01*
X64097Y-87638D01*
X64041Y-87525D01*
X64041Y-87075D01*
X64097Y-86963D01*
X64209Y-86907D01*
X64434Y-86907D01*
X64547Y-86963D01*
X64603Y-87075D01*
X64603Y-87188D01*
X64041Y-87300D01*
X65053Y-87638D02*
X65165Y-87694D01*
X65390Y-87694D01*
X65503Y-87638D01*
X65559Y-87525D01*
X65559Y-87469D01*
X65503Y-87357D01*
X65390Y-87300D01*
X65222Y-87300D01*
X65109Y-87244D01*
X65053Y-87132D01*
X65053Y-87075D01*
X65109Y-86963D01*
X65222Y-86907D01*
X65390Y-86907D01*
X65503Y-86963D01*
X65953Y-88144D02*
X66009Y-88088D01*
X66122Y-87919D01*
X66178Y-87807D01*
X66234Y-87638D01*
X66290Y-87357D01*
X66290Y-87132D01*
X66234Y-86850D01*
X66178Y-86682D01*
X66122Y-86569D01*
X66009Y-86401D01*
X65953Y-86344D01*
G54D12*
X39035Y-89090D02*
X39350Y-88775D01*
X39035Y-88460D01*
X38720Y-88775D01*
X39035Y-89090D01*
G54D13*
X41037Y-89253D02*
X40362Y-89253D01*
X40700Y-89253D02*
X40700Y-88072D01*
X40587Y-88241D01*
X40475Y-88353D01*
X40362Y-88410D01*
X41543Y-89141D02*
X41600Y-89197D01*
X41543Y-89253D01*
X41487Y-89197D01*
X41543Y-89141D01*
X41543Y-89253D01*
X42612Y-88072D02*
X42387Y-88072D01*
X42275Y-88128D01*
X42218Y-88185D01*
X42106Y-88353D01*
X42050Y-88578D01*
X42050Y-89028D01*
X42106Y-89141D01*
X42162Y-89197D01*
X42275Y-89253D01*
X42499Y-89253D01*
X42612Y-89197D01*
X42668Y-89141D01*
X42724Y-89028D01*
X42724Y-88747D01*
X42668Y-88634D01*
X42612Y-88578D01*
X42499Y-88522D01*
X42275Y-88522D01*
X42162Y-88578D01*
X42106Y-88634D01*
X42050Y-88747D01*
X43456Y-88072D02*
X43568Y-88072D01*
X43681Y-88128D01*
X43737Y-88185D01*
X43793Y-88297D01*
X43849Y-88522D01*
X43849Y-88803D01*
X43793Y-89028D01*
X43737Y-89141D01*
X43681Y-89197D01*
X43568Y-89253D01*
X43456Y-89253D01*
X43343Y-89197D01*
X43287Y-89141D01*
X43231Y-89028D01*
X43174Y-88803D01*
X43174Y-88522D01*
X43231Y-88297D01*
X43287Y-88185D01*
X43343Y-88128D01*
X43456Y-88072D01*
X44356Y-89253D02*
X44356Y-88466D01*
X44356Y-88578D02*
X44412Y-88522D01*
X44524Y-88466D01*
X44693Y-88466D01*
X44805Y-88522D01*
X44862Y-88634D01*
X44862Y-89253D01*
X44862Y-88634D02*
X44918Y-88522D01*
X45030Y-88466D01*
X45199Y-88466D01*
X45312Y-88522D01*
X45368Y-88634D01*
X45368Y-89253D01*
X45930Y-89253D02*
X45930Y-88466D01*
X45930Y-88578D02*
X45987Y-88522D01*
X46099Y-88466D01*
X46268Y-88466D01*
X46380Y-88522D01*
X46437Y-88634D01*
X46437Y-89253D01*
X46437Y-88634D02*
X46493Y-88522D01*
X46605Y-88466D01*
X46774Y-88466D01*
X46886Y-88522D01*
X46943Y-88634D01*
X46943Y-89253D01*
X49249Y-88016D02*
X48236Y-89534D01*
X50767Y-88072D02*
X50880Y-88072D01*
X50992Y-88128D01*
X51048Y-88185D01*
X51105Y-88297D01*
X51161Y-88522D01*
X51161Y-88803D01*
X51105Y-89028D01*
X51048Y-89141D01*
X50992Y-89197D01*
X50880Y-89253D01*
X50767Y-89253D01*
X50655Y-89197D01*
X50598Y-89141D01*
X50542Y-89028D01*
X50486Y-88803D01*
X50486Y-88522D01*
X50542Y-88297D01*
X50598Y-88185D01*
X50655Y-88128D01*
X50767Y-88072D01*
X51667Y-89141D02*
X51723Y-89197D01*
X51667Y-89253D01*
X51611Y-89197D01*
X51667Y-89141D01*
X51667Y-89253D01*
X52455Y-88072D02*
X52567Y-88072D01*
X52679Y-88128D01*
X52736Y-88185D01*
X52792Y-88297D01*
X52848Y-88522D01*
X52848Y-88803D01*
X52792Y-89028D01*
X52736Y-89141D01*
X52679Y-89197D01*
X52567Y-89253D01*
X52455Y-89253D01*
X52342Y-89197D01*
X52286Y-89141D01*
X52230Y-89028D01*
X52173Y-88803D01*
X52173Y-88522D01*
X52230Y-88297D01*
X52286Y-88185D01*
X52342Y-88128D01*
X52455Y-88072D01*
X53861Y-88072D02*
X53636Y-88072D01*
X53523Y-88128D01*
X53467Y-88185D01*
X53354Y-88353D01*
X53298Y-88578D01*
X53298Y-89028D01*
X53354Y-89141D01*
X53411Y-89197D01*
X53523Y-89253D01*
X53748Y-89253D01*
X53861Y-89197D01*
X53917Y-89141D01*
X53973Y-89028D01*
X53973Y-88747D01*
X53917Y-88634D01*
X53861Y-88578D01*
X53748Y-88522D01*
X53523Y-88522D01*
X53411Y-88578D01*
X53354Y-88634D01*
X53298Y-88747D01*
X54367Y-88072D02*
X55098Y-88072D01*
X54704Y-88522D01*
X54873Y-88522D01*
X54985Y-88578D01*
X55042Y-88634D01*
X55098Y-88747D01*
X55098Y-89028D01*
X55042Y-89141D01*
X54985Y-89197D01*
X54873Y-89253D01*
X54535Y-89253D01*
X54423Y-89197D01*
X54367Y-89141D01*
X55548Y-88072D02*
X55548Y-88297D01*
X55998Y-88072D02*
X55998Y-88297D01*
X57741Y-89703D02*
X57685Y-89647D01*
X57573Y-89478D01*
X57516Y-89366D01*
X57460Y-89197D01*
X57404Y-88916D01*
X57404Y-88691D01*
X57460Y-88410D01*
X57516Y-88241D01*
X57573Y-88128D01*
X57685Y-87960D01*
X57741Y-87903D01*
X58810Y-89253D02*
X58135Y-89253D01*
X58473Y-89253D02*
X58473Y-88072D01*
X58360Y-88241D01*
X58248Y-88353D01*
X58135Y-88410D01*
X59260Y-88185D02*
X59316Y-88128D01*
X59429Y-88072D01*
X59710Y-88072D01*
X59822Y-88128D01*
X59879Y-88185D01*
X59935Y-88297D01*
X59935Y-88410D01*
X59879Y-88578D01*
X59204Y-89253D01*
X59935Y-89253D01*
X61341Y-89253D02*
X61341Y-88072D01*
X61847Y-89253D02*
X61847Y-88634D01*
X61791Y-88522D01*
X61678Y-88466D01*
X61510Y-88466D01*
X61397Y-88522D01*
X61341Y-88578D01*
X62578Y-89253D02*
X62466Y-89197D01*
X62410Y-89141D01*
X62353Y-89028D01*
X62353Y-88691D01*
X62410Y-88578D01*
X62466Y-88522D01*
X62578Y-88466D01*
X62747Y-88466D01*
X62859Y-88522D01*
X62916Y-88578D01*
X62972Y-88691D01*
X62972Y-89028D01*
X62916Y-89141D01*
X62859Y-89197D01*
X62747Y-89253D01*
X62578Y-89253D01*
X63647Y-89253D02*
X63534Y-89197D01*
X63478Y-89084D01*
X63478Y-88072D01*
X64547Y-89197D02*
X64434Y-89253D01*
X64209Y-89253D01*
X64097Y-89197D01*
X64041Y-89084D01*
X64041Y-88634D01*
X64097Y-88522D01*
X64209Y-88466D01*
X64434Y-88466D01*
X64547Y-88522D01*
X64603Y-88634D01*
X64603Y-88747D01*
X64041Y-88859D01*
X65053Y-89197D02*
X65165Y-89253D01*
X65390Y-89253D01*
X65503Y-89197D01*
X65559Y-89084D01*
X65559Y-89028D01*
X65503Y-88916D01*
X65390Y-88859D01*
X65222Y-88859D01*
X65109Y-88803D01*
X65053Y-88691D01*
X65053Y-88634D01*
X65109Y-88522D01*
X65222Y-88466D01*
X65390Y-88466D01*
X65503Y-88522D01*
X65953Y-89703D02*
X66009Y-89647D01*
X66122Y-89478D01*
X66178Y-89366D01*
X66234Y-89197D01*
X66290Y-88916D01*
X66290Y-88691D01*
X66234Y-88410D01*
X66178Y-88241D01*
X66122Y-88128D01*
X66009Y-87960D01*
X65953Y-87903D01*
M02*
