M48
;DRILL file {Pcbnew (2013-07-07 BZR 4022)-stable} date 30/10/2014 17:59:47
;FORMAT={-:-/ absolute / metric / decimal}
FMAT,2
METRIC,TZ
T1C0.400
T2C0.813
T3C1.016
T4C1.100
T5C1.300
T6C1.600
%
G90
G05
M71
T1
X104.2Y-69.4
X110.7Y-67.1
X124.2Y-122.
X124.8Y-69.2
X124.9Y-66.
X126.4Y-68.4
X127.4Y-87.1
X127.6Y-88.5
X127.9Y-118.
X128.Y-67.2
X128.Y-83.9
X128.2Y-123.7
X128.9Y-69.2
X129.Y-65.9
X129.2Y-121.2
X130.1Y-65.1
X130.2Y-87.4
X130.2Y-89.1
X131.7Y-121.2
X135.5Y-82.9
X135.9Y-83.6
X138.4Y-83.6
X139.3Y-84.6
X139.6Y-116.8
X139.9Y-118.6
X141.4Y-85.5
X141.4Y-87.1
X141.4Y-88.6
X141.4Y-90.1
X141.4Y-91.7
X141.4Y-93.2
X141.4Y-94.9
X141.5Y-84.3
X142.Y-118.2
X142.1Y-95.7
X142.1Y-122.1
X142.1Y-123.6
X142.1Y-126.9
X143.1Y-99.9
X143.3Y-132.5
X143.4Y-84.2
X143.4Y-119.
X143.4Y-121.4
X143.4Y-124.
X143.4Y-126.7
X143.5Y-95.7
X144.6Y-84.2
X144.7Y-95.7
X145.2Y-118.2
X145.2Y-120.6
X145.2Y-122.9
X145.2Y-125.
X145.2Y-126.7
X145.4Y-137.1
X145.5Y-84.6
X145.5Y-85.8
X145.5Y-86.9
X145.5Y-87.9
X145.5Y-88.9
X145.5Y-90.
X145.5Y-91.
X145.5Y-92.
X145.5Y-93.
X145.5Y-93.9
X145.5Y-94.9
X146.Y-97.8
X146.Y-119.4
X146.1Y-121.8
X146.1Y-124.
X146.1Y-125.8
X146.2Y-129.9
X146.4Y-83.2
X146.4Y-84.7
X146.4Y-88.2
X146.4Y-91.4
X146.4Y-95.5
X146.9Y-104.4
X147.Y-79.2
X147.2Y-116.1
X147.8Y-137.2
X148.6Y-111.5
X148.7Y-102.4
X148.9Y-80.2
X149.Y-73.2
X149.6Y-110.3
X149.7Y-131.7
X149.9Y-93.2
X150.1Y-99.6
X150.4Y-104.4
X151.Y-75.9
X151.Y-98.8
X151.Y-105.6
X152.4Y-75.7
X152.5Y-80.
X152.647Y-111.4
X152.7Y-93.1
X152.8Y-74.1
X154.3Y-74.1
X154.3Y-75.5
X154.3Y-78.3
X154.4Y-104.9
X154.4Y-106.3
X154.4Y-109.1
X155.2Y-99.4
X155.5Y-82.3
X155.5Y-83.5
X155.5Y-84.7
X155.5Y-85.8
X155.5Y-87.1
X155.6Y-90.5
X155.6Y-91.6
X155.6Y-92.7
X155.6Y-93.8
X155.6Y-94.9
X155.7Y-114.1
X155.7Y-115.2
X155.7Y-116.3
X155.7Y-117.3
X155.7Y-118.3
X155.7Y-122.1
X155.7Y-123.3
X155.7Y-124.5
X155.7Y-125.7
X155.7Y-126.9
X156.1Y-133.9
X156.6Y-89.6
X156.6Y-121.6
X156.7Y-119.1
X157.1Y-74.7
X157.1Y-75.9
X157.1Y-77.1
X157.1Y-78.4
X157.1Y-87.1
X157.1Y-96.8
X157.1Y-98.2
X157.1Y-99.4
X157.1Y-101.7
X157.1Y-103.
X157.1Y-104.4
X157.1Y-105.9
X157.1Y-106.9
X157.1Y-108.2
X157.1Y-109.4
X157.1Y-128.9
X157.1Y-130.1
X157.1Y-131.5
X157.1Y-133.9
X157.3Y-81.8
X157.3Y-82.7
X157.3Y-83.8
X157.3Y-84.8
X157.3Y-85.8
X157.3Y-90.8
X157.3Y-91.7
X157.3Y-92.8
X157.3Y-93.8
X157.3Y-94.8
X157.3Y-113.8
X157.3Y-114.8
X157.3Y-115.8
X157.3Y-116.8
X157.3Y-117.8
X157.3Y-122.8
X157.3Y-123.8
X157.3Y-124.7
X157.3Y-125.7
X157.3Y-126.9
X157.5Y-73.2
X157.6Y-65.
X157.8Y-121.6
X158.Y-89.6
X158.1Y-119.1
X158.6Y-65.9
X158.6Y-82.3
X158.6Y-83.3
X158.6Y-84.3
X158.6Y-85.3
X158.6Y-91.3
X158.6Y-92.3
X158.6Y-93.3
X158.6Y-94.3
X158.6Y-114.3
X158.6Y-115.3
X158.6Y-116.3
X158.6Y-117.3
X158.6Y-123.3
X158.6Y-124.3
X158.6Y-125.3
X158.6Y-126.3
X158.9Y-72.8
X158.9Y-86.8
X159.Y-122.
X159.1Y-118.7
X159.3Y-89.9
X159.6Y-76.3
X159.6Y-77.3
X159.6Y-78.3
X159.6Y-79.3
X159.6Y-82.3
X159.6Y-83.3
X159.6Y-84.3
X159.6Y-85.3
X159.6Y-91.3
X159.6Y-92.3
X159.6Y-93.3
X159.6Y-94.3
X159.6Y-97.3
X159.6Y-98.3
X159.6Y-99.3
X159.6Y-100.3
X159.6Y-107.3
X159.6Y-108.3
X159.6Y-109.3
X159.6Y-110.3
X159.6Y-114.3
X159.6Y-115.3
X159.6Y-116.3
X159.6Y-117.3
X159.6Y-123.3
X159.6Y-124.3
X159.6Y-125.3
X159.6Y-126.3
X159.6Y-129.3
X159.6Y-130.3
X159.6Y-131.3
X159.6Y-132.3
X159.6Y-134.6
X160.Y-69.
X160.5Y-122.
X160.6Y-76.3
X160.6Y-77.3
X160.6Y-78.3
X160.6Y-79.3
X160.6Y-82.3
X160.6Y-83.3
X160.6Y-84.3
X160.6Y-85.3
X160.6Y-91.3
X160.6Y-92.3
X160.6Y-93.3
X160.6Y-94.3
X160.6Y-97.3
X160.6Y-98.3
X160.6Y-99.3
X160.6Y-100.3
X160.6Y-107.3
X160.6Y-108.3
X160.6Y-109.3
X160.6Y-110.3
X160.6Y-114.2
X160.6Y-115.3
X160.6Y-116.3
X160.6Y-117.3
X160.6Y-123.3
X160.6Y-124.3
X160.6Y-125.3
X160.6Y-126.3
X160.6Y-129.3
X160.6Y-130.3
X160.6Y-131.3
X160.6Y-132.3
X160.7Y-86.7
X160.7Y-89.9
X160.7Y-118.7
X161.3Y-69.
X161.6Y-76.3
X161.6Y-77.3
X161.6Y-78.3
X161.6Y-79.3
X161.6Y-97.3
X161.6Y-98.3
X161.6Y-99.3
X161.6Y-100.3
X161.6Y-107.2
X161.6Y-108.3
X161.6Y-109.3
X161.6Y-110.3
X161.6Y-128.2
X161.6Y-129.3
X161.6Y-130.3
X161.6Y-131.3
X161.6Y-132.3
X162.3Y-121.5
X162.5Y-69.
X162.6Y-127.7
X162.9Y-75.8
X162.9Y-76.9
X162.9Y-77.8
X162.9Y-78.8
X162.9Y-79.8
X162.9Y-96.8
X162.9Y-97.8
X162.9Y-98.8
X162.9Y-99.8
X162.9Y-100.8
X162.9Y-128.8
X162.9Y-129.7
X162.9Y-130.8
X162.9Y-131.8
X162.9Y-132.8
X163.Y-106.8
X163.Y-107.8
X163.Y-108.8
X163.Y-109.8
X163.Y-110.8
X163.6Y-127.7
X164.5Y-128.5
X164.5Y-129.4
X164.5Y-130.3
X164.5Y-131.2
X164.5Y-132.3
X164.5Y-133.4
X164.9Y-123.7
X164.9Y-124.8
X164.9Y-126.1
X164.9Y-127.4
X165.1Y-122.4
X165.3Y-90.4
X165.7Y-125.4
X165.7Y-126.8
X165.8Y-124.2
X165.9Y-123.3
X167.6Y-121.4
X169.Y-73.6
X169.3Y-82.3
X169.7Y-65.8
X169.9Y-134.7
X170.Y-83.1
X170.4Y-131.1
X170.5Y-115.8
X170.6Y-118.5
X172.Y-114.5
X175.8Y-71.9
X176.6Y-114.4
X177.4Y-83.1
X177.4Y-115.4
X177.4Y-124.4
X177.8Y-72.
X178.7Y-81.8
X178.8Y-73.
T2
X94.323Y-86.474
X94.323Y-89.014
X94.323Y-91.554
X94.323Y-94.094
X94.323Y-96.634
X94.323Y-99.174
X94.323Y-101.714
X94.323Y-104.254
X94.323Y-106.794
X94.323Y-109.334
T3
X120.46Y-100.
X120.46Y-102.6
X123.Y-100.
X123.Y-102.6
X125.54Y-100.
X125.54Y-102.6
T4
X100.38Y-78.88
X100.38Y-81.42
X100.38Y-83.96
X100.38Y-86.5
X100.38Y-89.04
X100.38Y-91.58
X100.38Y-94.12
X100.38Y-96.66
X100.38Y-99.2
X100.38Y-101.74
X100.38Y-104.28
X100.38Y-106.82
X100.38Y-109.36
X100.38Y-111.9
X100.38Y-114.44
X115.62Y-78.88
X115.62Y-81.42
X115.62Y-83.96
X115.62Y-86.5
X115.62Y-89.04
X115.62Y-91.58
X115.62Y-94.12
X115.62Y-96.66
X115.62Y-99.2
X115.62Y-101.74
X115.62Y-104.28
X115.62Y-106.82
X115.62Y-109.36
X115.62Y-111.9
X115.62Y-114.44
T5
X95.05Y-126.15
X95.05Y-136.35
X96.Y-148.6
X101.Y-148.6
X101.05Y-124.15
X106.Y-148.6
X107.05Y-126.15
X107.05Y-136.35
X112.25Y-126.15
X112.25Y-136.35
X113.4Y-148.6
X118.25Y-124.15
X118.4Y-148.6
X123.4Y-148.6
X124.25Y-126.15
X124.25Y-136.35
T6
X174.24Y-76.26
X174.24Y-80.273
X174.24Y-96.58
X174.24Y-100.593
X174.24Y-116.9
X174.24Y-120.913
X184.375Y-106.74
X184.387Y-110.753
X184.4Y-66.1
X184.4Y-70.113
X184.4Y-86.42
X184.4Y-90.433
T0
M30
