G04 (created by PCBNEW (2013-07-07 BZR 4022)-stable) date 30/10/2014 17:58:33*
%MOIN*%
G04 Gerber Fmt 3.4, Leading zero omitted, Abs format*
%FSLAX34Y34*%
G01*
G70*
G90*
G04 APERTURE LIST*
%ADD10C,0.00590551*%
%ADD11C,0.011811*%
%ADD12C,0.005*%
%ADD13C,0.0039*%
%ADD14C,0.006*%
%ADD15C,0.012*%
%ADD16C,2.75591e-007*%
%ADD17C,0.0059*%
%ADD18C,0.0043*%
%ADD19C,0.0047*%
%ADD20C,0.0107*%
%ADD21C,0.01*%
%ADD22R,0.224409X0.216535*%
%ADD23R,0.0748031X0.0551181*%
%ADD24R,0.127953X0.17126*%
%ADD25R,0.0767717X0.202756*%
%ADD26R,0.0826772X0.0314961*%
%ADD27R,0.0787402X0.0275591*%
%ADD28R,0.025X0.05*%
%ADD29R,0.055X0.035*%
%ADD30R,0.035X0.055*%
%ADD31R,0.06X0.06*%
%ADD32C,0.06*%
%ADD33C,0.11811*%
%ADD34R,0.0787402X0.173228*%
%ADD35R,0.173228X0.0787402*%
%ADD36R,0.114173X0.0944882*%
%ADD37R,0.0944882X0.114173*%
%ADD38R,0.071X0.063*%
%ADD39R,0.063X0.071*%
%ADD40O,0.11811X0.0708661*%
%ADD41O,0.11811X0.11811*%
%ADD42R,0.055X0.055*%
%ADD43C,0.055*%
G04 APERTURE END LIST*
G54D10*
G54D11*
X54180Y-57589D02*
X54180Y-56998D01*
X54377Y-57420D01*
X54574Y-56998D01*
X54574Y-57589D01*
X54939Y-57589D02*
X54883Y-57560D01*
X54855Y-57532D01*
X54827Y-57476D01*
X54827Y-57307D01*
X54855Y-57251D01*
X54883Y-57223D01*
X54939Y-57195D01*
X55024Y-57195D01*
X55080Y-57223D01*
X55108Y-57251D01*
X55136Y-57307D01*
X55136Y-57476D01*
X55108Y-57532D01*
X55080Y-57560D01*
X55024Y-57589D01*
X54939Y-57589D01*
X54883Y-56998D02*
X54911Y-57026D01*
X54883Y-57054D01*
X54855Y-57026D01*
X54883Y-56998D01*
X54883Y-57054D01*
X55108Y-56998D02*
X55136Y-57026D01*
X55108Y-57054D01*
X55080Y-57026D01*
X55108Y-56998D01*
X55108Y-57054D01*
X55389Y-57589D02*
X55389Y-57195D01*
X55389Y-57307D02*
X55417Y-57251D01*
X55445Y-57223D01*
X55502Y-57195D01*
X55558Y-57195D01*
X55755Y-57589D02*
X55755Y-56998D01*
X55811Y-57364D02*
X55980Y-57589D01*
X55980Y-57195D02*
X55755Y-57420D01*
X56317Y-57589D02*
X56261Y-57560D01*
X56233Y-57532D01*
X56205Y-57476D01*
X56205Y-57307D01*
X56233Y-57251D01*
X56261Y-57223D01*
X56317Y-57195D01*
X56402Y-57195D01*
X56458Y-57223D01*
X56486Y-57251D01*
X56514Y-57307D01*
X56514Y-57476D01*
X56486Y-57532D01*
X56458Y-57560D01*
X56402Y-57589D01*
X56317Y-57589D01*
X56261Y-56998D02*
X56289Y-57026D01*
X56261Y-57054D01*
X56233Y-57026D01*
X56261Y-56998D01*
X56261Y-57054D01*
X56486Y-56998D02*
X56514Y-57026D01*
X56486Y-57054D01*
X56458Y-57026D01*
X56486Y-56998D01*
X56486Y-57054D01*
X57217Y-57589D02*
X57217Y-57195D01*
X57217Y-57251D02*
X57245Y-57223D01*
X57301Y-57195D01*
X57386Y-57195D01*
X57442Y-57223D01*
X57470Y-57279D01*
X57470Y-57589D01*
X57470Y-57279D02*
X57498Y-57223D01*
X57555Y-57195D01*
X57639Y-57195D01*
X57695Y-57223D01*
X57723Y-57279D01*
X57723Y-57589D01*
X58089Y-57589D02*
X58033Y-57560D01*
X58004Y-57532D01*
X57976Y-57476D01*
X57976Y-57307D01*
X58004Y-57251D01*
X58033Y-57223D01*
X58089Y-57195D01*
X58173Y-57195D01*
X58229Y-57223D01*
X58258Y-57251D01*
X58286Y-57307D01*
X58286Y-57476D01*
X58258Y-57532D01*
X58229Y-57560D01*
X58173Y-57589D01*
X58089Y-57589D01*
X58454Y-57195D02*
X58679Y-57195D01*
X58539Y-56998D02*
X58539Y-57504D01*
X58567Y-57560D01*
X58623Y-57589D01*
X58679Y-57589D01*
X58961Y-57589D02*
X58904Y-57560D01*
X58876Y-57532D01*
X58848Y-57476D01*
X58848Y-57307D01*
X58876Y-57251D01*
X58904Y-57223D01*
X58961Y-57195D01*
X59045Y-57195D01*
X59101Y-57223D01*
X59129Y-57251D01*
X59157Y-57307D01*
X59157Y-57476D01*
X59129Y-57532D01*
X59101Y-57560D01*
X59045Y-57589D01*
X58961Y-57589D01*
X59411Y-57589D02*
X59411Y-57195D01*
X59411Y-57307D02*
X59439Y-57251D01*
X59467Y-57223D01*
X59523Y-57195D01*
X59579Y-57195D01*
X60479Y-57560D02*
X60423Y-57589D01*
X60310Y-57589D01*
X60254Y-57560D01*
X60226Y-57532D01*
X60198Y-57476D01*
X60198Y-57307D01*
X60226Y-57251D01*
X60254Y-57223D01*
X60310Y-57195D01*
X60423Y-57195D01*
X60479Y-57223D01*
X60817Y-57589D02*
X60760Y-57560D01*
X60732Y-57532D01*
X60704Y-57476D01*
X60704Y-57307D01*
X60732Y-57251D01*
X60760Y-57223D01*
X60817Y-57195D01*
X60901Y-57195D01*
X60957Y-57223D01*
X60985Y-57251D01*
X61013Y-57307D01*
X61013Y-57476D01*
X60985Y-57532D01*
X60957Y-57560D01*
X60901Y-57589D01*
X60817Y-57589D01*
X61267Y-57195D02*
X61267Y-57589D01*
X61267Y-57251D02*
X61295Y-57223D01*
X61351Y-57195D01*
X61435Y-57195D01*
X61492Y-57223D01*
X61520Y-57279D01*
X61520Y-57589D01*
X61716Y-57195D02*
X61941Y-57195D01*
X61801Y-56998D02*
X61801Y-57504D01*
X61829Y-57560D01*
X61885Y-57589D01*
X61941Y-57589D01*
X62138Y-57589D02*
X62138Y-57195D01*
X62138Y-57307D02*
X62166Y-57251D01*
X62195Y-57223D01*
X62251Y-57195D01*
X62307Y-57195D01*
X62588Y-57589D02*
X62532Y-57560D01*
X62504Y-57532D01*
X62476Y-57476D01*
X62476Y-57307D01*
X62504Y-57251D01*
X62532Y-57223D01*
X62588Y-57195D01*
X62673Y-57195D01*
X62729Y-57223D01*
X62757Y-57251D01*
X62785Y-57307D01*
X62785Y-57476D01*
X62757Y-57532D01*
X62729Y-57560D01*
X62673Y-57589D01*
X62588Y-57589D01*
X63123Y-57589D02*
X63066Y-57560D01*
X63038Y-57504D01*
X63038Y-56998D01*
X63797Y-57589D02*
X63797Y-56998D01*
X63797Y-57223D02*
X63854Y-57195D01*
X63966Y-57195D01*
X64022Y-57223D01*
X64051Y-57251D01*
X64079Y-57307D01*
X64079Y-57476D01*
X64051Y-57532D01*
X64022Y-57560D01*
X63966Y-57589D01*
X63854Y-57589D01*
X63797Y-57560D01*
X64416Y-57589D02*
X64360Y-57560D01*
X64332Y-57532D01*
X64304Y-57476D01*
X64304Y-57307D01*
X64332Y-57251D01*
X64360Y-57223D01*
X64416Y-57195D01*
X64501Y-57195D01*
X64557Y-57223D01*
X64585Y-57251D01*
X64613Y-57307D01*
X64613Y-57476D01*
X64585Y-57532D01*
X64557Y-57560D01*
X64501Y-57589D01*
X64416Y-57589D01*
X65119Y-57589D02*
X65119Y-57279D01*
X65091Y-57223D01*
X65035Y-57195D01*
X64922Y-57195D01*
X64866Y-57223D01*
X65119Y-57560D02*
X65063Y-57589D01*
X64922Y-57589D01*
X64866Y-57560D01*
X64838Y-57504D01*
X64838Y-57448D01*
X64866Y-57392D01*
X64922Y-57364D01*
X65063Y-57364D01*
X65119Y-57335D01*
X65400Y-57589D02*
X65400Y-57195D01*
X65400Y-57307D02*
X65429Y-57251D01*
X65457Y-57223D01*
X65513Y-57195D01*
X65569Y-57195D01*
X66019Y-57589D02*
X66019Y-56998D01*
X66019Y-57560D02*
X65963Y-57589D01*
X65850Y-57589D01*
X65794Y-57560D01*
X65766Y-57532D01*
X65738Y-57476D01*
X65738Y-57307D01*
X65766Y-57251D01*
X65794Y-57223D01*
X65850Y-57195D01*
X65963Y-57195D01*
X66019Y-57223D01*
X55389Y-58758D02*
X55361Y-58730D01*
X55305Y-58646D01*
X55277Y-58590D01*
X55249Y-58505D01*
X55220Y-58365D01*
X55220Y-58252D01*
X55249Y-58112D01*
X55277Y-58027D01*
X55305Y-57971D01*
X55361Y-57887D01*
X55389Y-57858D01*
X55867Y-58505D02*
X55811Y-58533D01*
X55698Y-58533D01*
X55642Y-58505D01*
X55614Y-58477D01*
X55586Y-58421D01*
X55586Y-58252D01*
X55614Y-58196D01*
X55642Y-58168D01*
X55698Y-58140D01*
X55811Y-58140D01*
X55867Y-58168D01*
X56064Y-58758D02*
X56092Y-58730D01*
X56148Y-58646D01*
X56177Y-58590D01*
X56205Y-58505D01*
X56233Y-58365D01*
X56233Y-58252D01*
X56205Y-58112D01*
X56177Y-58027D01*
X56148Y-57971D01*
X56092Y-57887D01*
X56064Y-57858D01*
X56880Y-57943D02*
X57217Y-57943D01*
X57048Y-58533D02*
X57048Y-57943D01*
X57667Y-58533D02*
X57667Y-58224D01*
X57639Y-58168D01*
X57583Y-58140D01*
X57470Y-58140D01*
X57414Y-58168D01*
X57667Y-58505D02*
X57611Y-58533D01*
X57470Y-58533D01*
X57414Y-58505D01*
X57386Y-58449D01*
X57386Y-58393D01*
X57414Y-58337D01*
X57470Y-58308D01*
X57611Y-58308D01*
X57667Y-58280D01*
X57948Y-58140D02*
X57948Y-58730D01*
X57948Y-58168D02*
X58004Y-58140D01*
X58117Y-58140D01*
X58173Y-58168D01*
X58201Y-58196D01*
X58229Y-58252D01*
X58229Y-58421D01*
X58201Y-58477D01*
X58173Y-58505D01*
X58117Y-58533D01*
X58004Y-58533D01*
X57948Y-58505D01*
X58483Y-58533D02*
X58483Y-58140D01*
X58483Y-57943D02*
X58454Y-57971D01*
X58483Y-57999D01*
X58511Y-57971D01*
X58483Y-57943D01*
X58483Y-57999D01*
X58848Y-58533D02*
X58792Y-58505D01*
X58764Y-58477D01*
X58736Y-58421D01*
X58736Y-58252D01*
X58764Y-58196D01*
X58792Y-58168D01*
X58848Y-58140D01*
X58932Y-58140D01*
X58989Y-58168D01*
X59017Y-58196D01*
X59045Y-58252D01*
X59045Y-58421D01*
X59017Y-58477D01*
X58989Y-58505D01*
X58932Y-58533D01*
X58848Y-58533D01*
X60085Y-58533D02*
X59889Y-58252D01*
X59748Y-58533D02*
X59748Y-57943D01*
X59973Y-57943D01*
X60029Y-57971D01*
X60057Y-57999D01*
X60085Y-58055D01*
X60085Y-58140D01*
X60057Y-58196D01*
X60029Y-58224D01*
X59973Y-58252D01*
X59748Y-58252D01*
X60592Y-58533D02*
X60592Y-58224D01*
X60564Y-58168D01*
X60507Y-58140D01*
X60395Y-58140D01*
X60339Y-58168D01*
X60592Y-58505D02*
X60535Y-58533D01*
X60395Y-58533D01*
X60339Y-58505D01*
X60310Y-58449D01*
X60310Y-58393D01*
X60339Y-58337D01*
X60395Y-58308D01*
X60535Y-58308D01*
X60592Y-58280D01*
X61126Y-58140D02*
X61126Y-58533D01*
X60873Y-58140D02*
X60873Y-58449D01*
X60901Y-58505D01*
X60957Y-58533D01*
X61042Y-58533D01*
X61098Y-58505D01*
X61126Y-58477D01*
X61323Y-58140D02*
X61548Y-58140D01*
X61407Y-57943D02*
X61407Y-58449D01*
X61435Y-58505D01*
X61492Y-58533D01*
X61548Y-58533D01*
X61745Y-58533D02*
X61745Y-58140D01*
X61745Y-57943D02*
X61716Y-57971D01*
X61745Y-57999D01*
X61773Y-57971D01*
X61745Y-57943D01*
X61745Y-57999D01*
X62110Y-58533D02*
X62054Y-58505D01*
X62026Y-58477D01*
X61998Y-58421D01*
X61998Y-58252D01*
X62026Y-58196D01*
X62054Y-58168D01*
X62110Y-58140D01*
X62195Y-58140D01*
X62251Y-58168D01*
X62279Y-58196D01*
X62307Y-58252D01*
X62307Y-58421D01*
X62279Y-58477D01*
X62251Y-58505D01*
X62195Y-58533D01*
X62110Y-58533D01*
X62982Y-57999D02*
X63010Y-57971D01*
X63066Y-57943D01*
X63207Y-57943D01*
X63263Y-57971D01*
X63291Y-57999D01*
X63319Y-58055D01*
X63319Y-58112D01*
X63291Y-58196D01*
X62954Y-58533D01*
X63319Y-58533D01*
X63685Y-57943D02*
X63741Y-57943D01*
X63797Y-57971D01*
X63826Y-57999D01*
X63854Y-58055D01*
X63882Y-58168D01*
X63882Y-58308D01*
X63854Y-58421D01*
X63826Y-58477D01*
X63797Y-58505D01*
X63741Y-58533D01*
X63685Y-58533D01*
X63629Y-58505D01*
X63601Y-58477D01*
X63573Y-58421D01*
X63544Y-58308D01*
X63544Y-58168D01*
X63573Y-58055D01*
X63601Y-57999D01*
X63629Y-57971D01*
X63685Y-57943D01*
X64444Y-58533D02*
X64107Y-58533D01*
X64276Y-58533D02*
X64276Y-57943D01*
X64219Y-58027D01*
X64163Y-58083D01*
X64107Y-58112D01*
X64950Y-58140D02*
X64950Y-58533D01*
X64810Y-57915D02*
X64669Y-58337D01*
X65035Y-58337D01*
G54D12*
X50150Y-47330D02*
X50150Y-48890D01*
X50150Y-48890D02*
X53550Y-48890D01*
X53550Y-48890D02*
X53550Y-47330D01*
X53550Y-47330D02*
X50150Y-47330D01*
X50850Y-47330D02*
X50850Y-46900D01*
X51350Y-47330D02*
X51350Y-46900D01*
X51850Y-47330D02*
X51850Y-46900D01*
X50350Y-47330D02*
X50350Y-46900D01*
X52350Y-46900D02*
X52350Y-47330D01*
X52850Y-46900D02*
X52850Y-47330D01*
X53350Y-46900D02*
X53350Y-47330D01*
X53350Y-48890D02*
X53350Y-49320D01*
X52850Y-48890D02*
X52850Y-49320D01*
X50350Y-48890D02*
X50350Y-49320D01*
X50850Y-49320D02*
X50850Y-48890D01*
X52350Y-49320D02*
X52350Y-48890D01*
X51850Y-49320D02*
X51850Y-48890D01*
X51350Y-49320D02*
X51350Y-48890D01*
X50626Y-48600D02*
G75*
G03X50626Y-48600I-186J0D01*
G74*
G01*
X49953Y-34220D02*
X49953Y-35780D01*
X49953Y-35780D02*
X53353Y-35780D01*
X53353Y-35780D02*
X53353Y-34220D01*
X53353Y-34220D02*
X49953Y-34220D01*
X50653Y-34220D02*
X50653Y-33790D01*
X51153Y-34220D02*
X51153Y-33790D01*
X51653Y-34220D02*
X51653Y-33790D01*
X50153Y-34220D02*
X50153Y-33790D01*
X52153Y-33790D02*
X52153Y-34220D01*
X52653Y-33790D02*
X52653Y-34220D01*
X53153Y-33790D02*
X53153Y-34220D01*
X53153Y-35780D02*
X53153Y-36210D01*
X52653Y-35780D02*
X52653Y-36210D01*
X50153Y-35780D02*
X50153Y-36210D01*
X50653Y-36210D02*
X50653Y-35780D01*
X52153Y-36210D02*
X52153Y-35780D01*
X51653Y-36210D02*
X51653Y-35780D01*
X51153Y-36210D02*
X51153Y-35780D01*
X50429Y-35490D02*
G75*
G03X50429Y-35490I-186J0D01*
G74*
G01*
G54D13*
X42554Y-25886D02*
G75*
G03X42554Y-25886I-50J0D01*
G74*
G01*
X42504Y-25436D02*
X42504Y-25836D01*
X42504Y-25836D02*
X41904Y-25836D01*
X41904Y-25836D02*
X41904Y-25436D01*
X41904Y-25036D02*
X41904Y-24636D01*
X41904Y-24636D02*
X42504Y-24636D01*
X42504Y-24636D02*
X42504Y-25036D01*
X61019Y-53720D02*
G75*
G03X61019Y-53720I-50J0D01*
G74*
G01*
X60969Y-53270D02*
X60969Y-53670D01*
X60969Y-53670D02*
X60369Y-53670D01*
X60369Y-53670D02*
X60369Y-53270D01*
X60369Y-52870D02*
X60369Y-52470D01*
X60369Y-52470D02*
X60969Y-52470D01*
X60969Y-52470D02*
X60969Y-52870D01*
X59872Y-44158D02*
G75*
G03X59872Y-44158I-50J0D01*
G74*
G01*
X60272Y-44158D02*
X59872Y-44158D01*
X59872Y-44158D02*
X59872Y-43558D01*
X59872Y-43558D02*
X60272Y-43558D01*
X60672Y-43558D02*
X61072Y-43558D01*
X61072Y-43558D02*
X61072Y-44158D01*
X61072Y-44158D02*
X60672Y-44158D01*
X58297Y-44197D02*
G75*
G03X58297Y-44197I-50J0D01*
G74*
G01*
X58697Y-44197D02*
X58297Y-44197D01*
X58297Y-44197D02*
X58297Y-43597D01*
X58297Y-43597D02*
X58697Y-43597D01*
X59097Y-43597D02*
X59497Y-43597D01*
X59497Y-43597D02*
X59497Y-44197D01*
X59497Y-44197D02*
X59097Y-44197D01*
X40541Y-25929D02*
G75*
G03X40541Y-25929I-50J0D01*
G74*
G01*
X40941Y-25929D02*
X40541Y-25929D01*
X40541Y-25929D02*
X40541Y-25329D01*
X40541Y-25329D02*
X40941Y-25329D01*
X41341Y-25329D02*
X41741Y-25329D01*
X41741Y-25329D02*
X41741Y-25929D01*
X41741Y-25929D02*
X41341Y-25929D01*
X48893Y-25925D02*
G75*
G03X48893Y-25925I-50J0D01*
G74*
G01*
X48843Y-25475D02*
X48843Y-25875D01*
X48843Y-25875D02*
X48243Y-25875D01*
X48243Y-25875D02*
X48243Y-25475D01*
X48243Y-25075D02*
X48243Y-24675D01*
X48243Y-24675D02*
X48843Y-24675D01*
X48843Y-24675D02*
X48843Y-25075D01*
X46801Y-25969D02*
G75*
G03X46801Y-25969I-50J0D01*
G74*
G01*
X47201Y-25969D02*
X46801Y-25969D01*
X46801Y-25969D02*
X46801Y-25369D01*
X46801Y-25369D02*
X47201Y-25369D01*
X47601Y-25369D02*
X48001Y-25369D01*
X48001Y-25369D02*
X48001Y-25969D01*
X48001Y-25969D02*
X47601Y-25969D01*
X61255Y-40689D02*
G75*
G03X61255Y-40689I-50J0D01*
G74*
G01*
X61205Y-40239D02*
X61205Y-40639D01*
X61205Y-40639D02*
X60605Y-40639D01*
X60605Y-40639D02*
X60605Y-40239D01*
X60605Y-39839D02*
X60605Y-39439D01*
X60605Y-39439D02*
X61205Y-39439D01*
X61205Y-39439D02*
X61205Y-39839D01*
X59833Y-31835D02*
G75*
G03X59833Y-31835I-50J0D01*
G74*
G01*
X60233Y-31835D02*
X59833Y-31835D01*
X59833Y-31835D02*
X59833Y-31235D01*
X59833Y-31235D02*
X60233Y-31235D01*
X60633Y-31235D02*
X61033Y-31235D01*
X61033Y-31235D02*
X61033Y-31835D01*
X61033Y-31835D02*
X60633Y-31835D01*
X58415Y-31874D02*
G75*
G03X58415Y-31874I-50J0D01*
G74*
G01*
X58815Y-31874D02*
X58415Y-31874D01*
X58415Y-31874D02*
X58415Y-31274D01*
X58415Y-31274D02*
X58815Y-31274D01*
X59215Y-31274D02*
X59615Y-31274D01*
X59615Y-31274D02*
X59615Y-31874D01*
X59615Y-31874D02*
X59215Y-31874D01*
G54D14*
X46925Y-39870D02*
X46925Y-38870D01*
X46925Y-38870D02*
X49925Y-38870D01*
X49925Y-38870D02*
X49925Y-39870D01*
X49925Y-39870D02*
X46925Y-39870D01*
X47925Y-38870D02*
X47925Y-39870D01*
X46925Y-40893D02*
X46925Y-39893D01*
X46925Y-39893D02*
X49925Y-39893D01*
X49925Y-39893D02*
X49925Y-40893D01*
X49925Y-40893D02*
X46925Y-40893D01*
X47925Y-39893D02*
X47925Y-40893D01*
G54D10*
X43031Y-47874D02*
X43031Y-56732D01*
X43031Y-56732D02*
X36535Y-56751D01*
X36535Y-56751D02*
X36535Y-47893D01*
X36535Y-47893D02*
X43031Y-47874D01*
X49803Y-47874D02*
X49803Y-56732D01*
X49803Y-56732D02*
X43307Y-56751D01*
X43307Y-56751D02*
X43307Y-47893D01*
X43307Y-47893D02*
X49803Y-47874D01*
X55944Y-52559D02*
X54803Y-52559D01*
X54803Y-52559D02*
X54803Y-49409D01*
X54803Y-49409D02*
X55196Y-49015D01*
X55196Y-49015D02*
X55944Y-49015D01*
X56968Y-52559D02*
X58110Y-52559D01*
X58110Y-52559D02*
X58110Y-49409D01*
X58110Y-49409D02*
X57716Y-49015D01*
X57716Y-49015D02*
X56968Y-49015D01*
X56850Y-31181D02*
X57992Y-31181D01*
X57992Y-31181D02*
X57992Y-34330D01*
X57992Y-34330D02*
X57598Y-34724D01*
X57598Y-34724D02*
X56850Y-34724D01*
X55826Y-31181D02*
X54685Y-31181D01*
X54685Y-31181D02*
X54685Y-34330D01*
X54685Y-34330D02*
X55078Y-34724D01*
X55078Y-34724D02*
X55826Y-34724D01*
X60314Y-26653D02*
X60314Y-25511D01*
X60314Y-25511D02*
X63464Y-25511D01*
X63464Y-25511D02*
X63858Y-25905D01*
X63858Y-25905D02*
X63858Y-26653D01*
X60314Y-27677D02*
X60314Y-28818D01*
X60314Y-28818D02*
X63464Y-28818D01*
X63464Y-28818D02*
X63858Y-28425D01*
X63858Y-28425D02*
X63858Y-27677D01*
X56968Y-44133D02*
X58110Y-44133D01*
X58110Y-44133D02*
X58110Y-47283D01*
X58110Y-47283D02*
X57716Y-47677D01*
X57716Y-47677D02*
X56968Y-47677D01*
X55944Y-44133D02*
X54803Y-44133D01*
X54803Y-44133D02*
X54803Y-47283D01*
X54803Y-47283D02*
X55196Y-47677D01*
X55196Y-47677D02*
X55944Y-47677D01*
X55826Y-39685D02*
X54685Y-39685D01*
X54685Y-39685D02*
X54685Y-36535D01*
X54685Y-36535D02*
X55078Y-36141D01*
X55078Y-36141D02*
X55826Y-36141D01*
X56850Y-39685D02*
X57992Y-39685D01*
X57992Y-39685D02*
X57992Y-36535D01*
X57992Y-36535D02*
X57598Y-36141D01*
X57598Y-36141D02*
X56850Y-36141D01*
X55039Y-53346D02*
X55039Y-53425D01*
X57401Y-53346D02*
X57401Y-53425D01*
X57401Y-54685D02*
X57401Y-54606D01*
X55039Y-54606D02*
X55039Y-54685D01*
X55039Y-54685D02*
X57401Y-54685D01*
X57401Y-53346D02*
X55039Y-53346D01*
X56968Y-41929D02*
X56968Y-42007D01*
X59330Y-41929D02*
X59330Y-42007D01*
X59330Y-43267D02*
X59330Y-43188D01*
X56968Y-43188D02*
X56968Y-43267D01*
X56968Y-43267D02*
X59330Y-43267D01*
X59330Y-41929D02*
X56968Y-41929D01*
X56456Y-29015D02*
X56456Y-29094D01*
X58818Y-29015D02*
X58818Y-29094D01*
X58818Y-30354D02*
X58818Y-30275D01*
X56456Y-30275D02*
X56456Y-30354D01*
X56456Y-30354D02*
X58818Y-30354D01*
X58818Y-29015D02*
X56456Y-29015D01*
X45826Y-24763D02*
X45748Y-24763D01*
X45826Y-27125D02*
X45748Y-27125D01*
X44488Y-27125D02*
X44566Y-27125D01*
X44566Y-24763D02*
X44488Y-24763D01*
X44488Y-24763D02*
X44488Y-27125D01*
X45826Y-27125D02*
X45826Y-24763D01*
X39527Y-24763D02*
X39448Y-24763D01*
X39527Y-27125D02*
X39448Y-27125D01*
X38188Y-27125D02*
X38267Y-27125D01*
X38267Y-24763D02*
X38188Y-24763D01*
X38188Y-24763D02*
X38188Y-27125D01*
X39527Y-27125D02*
X39527Y-24763D01*
X55629Y-40433D02*
X55629Y-40511D01*
X57992Y-40433D02*
X57992Y-40511D01*
X57992Y-41771D02*
X57992Y-41692D01*
X55629Y-41692D02*
X55629Y-41771D01*
X55629Y-41771D02*
X57992Y-41771D01*
X57992Y-40433D02*
X55629Y-40433D01*
G54D12*
X49089Y-46906D02*
X49729Y-46906D01*
X49729Y-46006D02*
X49089Y-46006D01*
X49729Y-45826D02*
X49089Y-45826D01*
X49089Y-45826D02*
X49089Y-47086D01*
X49089Y-47086D02*
X49729Y-47086D01*
X49729Y-47086D02*
X49729Y-45826D01*
X59116Y-36333D02*
X59116Y-36973D01*
X60016Y-36973D02*
X60016Y-36333D01*
X60196Y-36973D02*
X60196Y-36333D01*
X60196Y-36333D02*
X58936Y-36333D01*
X58936Y-36333D02*
X58936Y-36973D01*
X58936Y-36973D02*
X60196Y-36973D01*
X49050Y-33757D02*
X49690Y-33757D01*
X49690Y-32857D02*
X49050Y-32857D01*
X49690Y-32677D02*
X49050Y-32677D01*
X49050Y-32677D02*
X49050Y-33937D01*
X49050Y-33937D02*
X49690Y-33937D01*
X49690Y-33937D02*
X49690Y-32677D01*
G54D10*
X41019Y-29055D02*
X44019Y-29055D01*
X44019Y-32055D02*
X41019Y-32055D01*
X41019Y-29055D02*
X41019Y-32055D01*
X44019Y-32055D02*
X44019Y-29055D01*
X46519Y-46555D02*
X38519Y-46555D01*
X38519Y-46555D02*
X38519Y-29555D01*
X38519Y-29555D02*
X46519Y-29555D01*
X46519Y-29555D02*
X46519Y-46555D01*
X66038Y-25173D02*
X66043Y-48998D01*
X66043Y-48998D02*
X73613Y-48998D01*
X73613Y-48998D02*
X73613Y-25153D01*
X73613Y-25153D02*
X66038Y-25173D01*
X43425Y-59803D02*
X49803Y-59803D01*
X49803Y-59803D02*
X49803Y-57204D01*
X49803Y-57204D02*
X43425Y-57204D01*
X43425Y-57204D02*
X43425Y-59803D01*
X36574Y-59803D02*
X42952Y-59803D01*
X42952Y-59803D02*
X42952Y-57204D01*
X42952Y-57204D02*
X36574Y-57204D01*
X36574Y-57204D02*
X36574Y-59803D01*
G54D15*
X36635Y-33545D02*
X37635Y-33545D01*
X37635Y-33545D02*
X37635Y-43545D01*
X37635Y-43545D02*
X36635Y-43545D01*
X36635Y-43545D02*
X36635Y-33545D01*
X36635Y-34545D02*
X37635Y-34545D01*
G54D16*
X0Y0D02*
X0Y0D01*
X0Y0D02*
X0Y0D01*
X0Y0D01*
X0Y0D02*
X0Y0D01*
X0Y0D01*
X0Y0D01*
X0Y0D01*
X0Y0D01*
X0Y0D01*
X0Y0D01*
X0Y0D01*
X0Y0D01*
X0Y0D01*
X0Y0D01*
X0Y0D01*
X0Y0D01*
X0Y0D01*
X0Y0D01*
X0Y0D01*
X0Y0D01*
X0Y0D01*
X0Y0D01*
X0Y0D02*
X0Y0D01*
X0Y0D02*
X0Y0D01*
X0Y0D02*
X0Y0D01*
X0Y0D01*
X0Y0D01*
X0Y0D01*
X0Y0D01*
X0Y0D01*
X0Y0D01*
X0Y0D01*
X0Y0D01*
X0Y0D02*
X0Y0D01*
X0Y0D01*
X0Y0D01*
X0Y0D01*
X0Y0D01*
X0Y0D01*
X0Y0D01*
X0Y0D01*
X0Y0D01*
X0Y0D01*
X0Y0D01*
X0Y0D01*
X0Y0D01*
X0Y0D01*
X0Y0D01*
X0Y0D01*
X0Y0D01*
X0Y0D01*
X0Y0D02*
X0Y0D01*
X0Y0D01*
X0Y0D02*
X0Y0D01*
X0Y0D02*
X0Y0D01*
X0Y0D01*
X0Y0D02*
X0Y0D01*
X0Y0D01*
X0Y0D02*
X0Y0D01*
X0Y0D02*
X0Y0D01*
X0Y0D01*
X0Y0D02*
X0Y0D01*
X0Y0D01*
X0Y0D02*
X0Y0D01*
X0Y0D02*
X0Y0D01*
X0Y0D01*
X0Y0D02*
X0Y0D01*
X0Y0D01*
G54D10*
X40663Y-28584D02*
X40663Y-28903D01*
X40682Y-28940D01*
X40701Y-28959D01*
X40738Y-28978D01*
X40813Y-28978D01*
X40851Y-28959D01*
X40869Y-28940D01*
X40888Y-28903D01*
X40888Y-28584D01*
X41282Y-28978D02*
X41057Y-28978D01*
X41169Y-28978D02*
X41169Y-28584D01*
X41132Y-28640D01*
X41094Y-28678D01*
X41057Y-28697D01*
X41526Y-28584D02*
X41563Y-28584D01*
X41601Y-28603D01*
X41619Y-28622D01*
X41638Y-28659D01*
X41657Y-28734D01*
X41657Y-28828D01*
X41638Y-28903D01*
X41619Y-28940D01*
X41601Y-28959D01*
X41563Y-28978D01*
X41526Y-28978D01*
X41488Y-28959D01*
X41469Y-28940D01*
X41451Y-28903D01*
X41432Y-28828D01*
X41432Y-28734D01*
X41451Y-28659D01*
X41469Y-28622D01*
X41488Y-28603D01*
X41526Y-28584D01*
X41807Y-28622D02*
X41826Y-28603D01*
X41863Y-28584D01*
X41957Y-28584D01*
X41994Y-28603D01*
X42013Y-28622D01*
X42032Y-28659D01*
X42032Y-28697D01*
X42013Y-28753D01*
X41788Y-28978D01*
X42032Y-28978D01*
X40160Y-25986D02*
X39972Y-25986D01*
X39972Y-25592D01*
X40291Y-25986D02*
X40291Y-25592D01*
X40422Y-25873D01*
X40553Y-25592D01*
X40553Y-25986D01*
X40703Y-25592D02*
X40947Y-25592D01*
X40816Y-25742D01*
X40872Y-25742D01*
X40910Y-25761D01*
X40928Y-25779D01*
X40947Y-25817D01*
X40947Y-25911D01*
X40928Y-25948D01*
X40910Y-25967D01*
X40872Y-25986D01*
X40760Y-25986D01*
X40722Y-25967D01*
X40703Y-25948D01*
X41322Y-25986D02*
X41097Y-25986D01*
X41210Y-25986D02*
X41210Y-25592D01*
X41172Y-25648D01*
X41135Y-25686D01*
X41097Y-25704D01*
X41453Y-25592D02*
X41716Y-25592D01*
X41547Y-25986D01*
X41866Y-25986D02*
X41866Y-25592D01*
X41997Y-25873D01*
X42128Y-25592D01*
X42128Y-25986D01*
X42316Y-25986D02*
X42316Y-25592D01*
X42410Y-25592D01*
X42466Y-25611D01*
X42503Y-25648D01*
X42522Y-25686D01*
X42541Y-25761D01*
X42541Y-25817D01*
X42522Y-25892D01*
X42503Y-25929D01*
X42466Y-25967D01*
X42410Y-25986D01*
X42316Y-25986D01*
X42653Y-25592D02*
X42878Y-25592D01*
X42766Y-25986D02*
X42766Y-25592D01*
X46844Y-28584D02*
X46844Y-28903D01*
X46863Y-28940D01*
X46882Y-28959D01*
X46919Y-28978D01*
X46994Y-28978D01*
X47032Y-28959D01*
X47050Y-28940D01*
X47069Y-28903D01*
X47069Y-28584D01*
X47463Y-28978D02*
X47238Y-28978D01*
X47350Y-28978D02*
X47350Y-28584D01*
X47313Y-28640D01*
X47275Y-28678D01*
X47238Y-28697D01*
X47707Y-28584D02*
X47744Y-28584D01*
X47782Y-28603D01*
X47800Y-28622D01*
X47819Y-28659D01*
X47838Y-28734D01*
X47838Y-28828D01*
X47819Y-28903D01*
X47800Y-28940D01*
X47782Y-28959D01*
X47744Y-28978D01*
X47707Y-28978D01*
X47669Y-28959D01*
X47650Y-28940D01*
X47632Y-28903D01*
X47613Y-28828D01*
X47613Y-28734D01*
X47632Y-28659D01*
X47650Y-28622D01*
X47669Y-28603D01*
X47707Y-28584D01*
X48213Y-28978D02*
X47988Y-28978D01*
X48100Y-28978D02*
X48100Y-28584D01*
X48063Y-28640D01*
X48025Y-28678D01*
X47988Y-28697D01*
X46341Y-25986D02*
X46153Y-25986D01*
X46153Y-25592D01*
X46472Y-25986D02*
X46472Y-25592D01*
X46603Y-25873D01*
X46735Y-25592D01*
X46735Y-25986D01*
X46885Y-25592D02*
X47128Y-25592D01*
X46997Y-25742D01*
X47053Y-25742D01*
X47091Y-25761D01*
X47110Y-25779D01*
X47128Y-25817D01*
X47128Y-25911D01*
X47110Y-25948D01*
X47091Y-25967D01*
X47053Y-25986D01*
X46941Y-25986D01*
X46903Y-25967D01*
X46885Y-25948D01*
X47503Y-25986D02*
X47278Y-25986D01*
X47391Y-25986D02*
X47391Y-25592D01*
X47353Y-25648D01*
X47316Y-25686D01*
X47278Y-25704D01*
X47634Y-25592D02*
X47897Y-25592D01*
X47728Y-25986D01*
X48047Y-25986D02*
X48047Y-25592D01*
X48178Y-25873D01*
X48309Y-25592D01*
X48309Y-25986D01*
X48497Y-25986D02*
X48497Y-25592D01*
X48591Y-25592D01*
X48647Y-25611D01*
X48684Y-25648D01*
X48703Y-25686D01*
X48722Y-25761D01*
X48722Y-25817D01*
X48703Y-25892D01*
X48684Y-25929D01*
X48647Y-25967D01*
X48591Y-25986D01*
X48497Y-25986D01*
X48834Y-25592D02*
X49059Y-25592D01*
X48947Y-25986D02*
X48947Y-25592D01*
X65084Y-39310D02*
X65065Y-39347D01*
X65028Y-39385D01*
X64972Y-39441D01*
X64953Y-39478D01*
X64953Y-39516D01*
X65047Y-39497D02*
X65028Y-39535D01*
X64990Y-39572D01*
X64915Y-39591D01*
X64784Y-39591D01*
X64709Y-39572D01*
X64672Y-39535D01*
X64653Y-39497D01*
X64653Y-39422D01*
X64672Y-39385D01*
X64709Y-39347D01*
X64784Y-39328D01*
X64915Y-39328D01*
X64990Y-39347D01*
X65028Y-39385D01*
X65047Y-39422D01*
X65047Y-39497D01*
X64690Y-39178D02*
X64672Y-39160D01*
X64653Y-39122D01*
X64653Y-39028D01*
X64672Y-38991D01*
X64690Y-38972D01*
X64728Y-38953D01*
X64765Y-38953D01*
X64822Y-38972D01*
X65047Y-39197D01*
X65047Y-38953D01*
X64653Y-38710D02*
X64653Y-38672D01*
X64672Y-38635D01*
X64690Y-38616D01*
X64728Y-38597D01*
X64803Y-38578D01*
X64897Y-38578D01*
X64972Y-38597D01*
X65009Y-38616D01*
X65028Y-38635D01*
X65047Y-38672D01*
X65047Y-38710D01*
X65028Y-38747D01*
X65009Y-38766D01*
X64972Y-38785D01*
X64897Y-38803D01*
X64803Y-38803D01*
X64728Y-38785D01*
X64690Y-38766D01*
X64672Y-38747D01*
X64653Y-38710D01*
X64784Y-38241D02*
X65047Y-38241D01*
X64634Y-38335D02*
X64915Y-38428D01*
X64915Y-38185D01*
X62094Y-40456D02*
X62094Y-40063D01*
X62244Y-40063D01*
X62281Y-40082D01*
X62300Y-40100D01*
X62319Y-40138D01*
X62319Y-40194D01*
X62300Y-40232D01*
X62281Y-40250D01*
X62244Y-40269D01*
X62094Y-40269D01*
X62469Y-40438D02*
X62525Y-40456D01*
X62619Y-40456D01*
X62656Y-40438D01*
X62675Y-40419D01*
X62694Y-40382D01*
X62694Y-40344D01*
X62675Y-40307D01*
X62656Y-40288D01*
X62619Y-40269D01*
X62544Y-40250D01*
X62506Y-40232D01*
X62487Y-40213D01*
X62469Y-40175D01*
X62469Y-40138D01*
X62487Y-40100D01*
X62506Y-40082D01*
X62544Y-40063D01*
X62637Y-40063D01*
X62694Y-40082D01*
X62862Y-40456D02*
X62862Y-40063D01*
X62994Y-40344D01*
X63125Y-40063D01*
X63125Y-40456D01*
X63312Y-40456D02*
X63312Y-40063D01*
X63537Y-40456D01*
X63537Y-40063D01*
X63781Y-40232D02*
X63744Y-40213D01*
X63725Y-40194D01*
X63706Y-40157D01*
X63706Y-40138D01*
X63725Y-40100D01*
X63744Y-40082D01*
X63781Y-40063D01*
X63856Y-40063D01*
X63893Y-40082D01*
X63912Y-40100D01*
X63931Y-40138D01*
X63931Y-40157D01*
X63912Y-40194D01*
X63893Y-40213D01*
X63856Y-40232D01*
X63781Y-40232D01*
X63744Y-40250D01*
X63725Y-40269D01*
X63706Y-40307D01*
X63706Y-40382D01*
X63725Y-40419D01*
X63744Y-40438D01*
X63781Y-40456D01*
X63856Y-40456D01*
X63893Y-40438D01*
X63912Y-40419D01*
X63931Y-40382D01*
X63931Y-40307D01*
X63912Y-40269D01*
X63893Y-40250D01*
X63856Y-40232D01*
X64325Y-40456D02*
X64193Y-40269D01*
X64100Y-40456D02*
X64100Y-40063D01*
X64250Y-40063D01*
X64287Y-40082D01*
X64306Y-40100D01*
X64325Y-40138D01*
X64325Y-40194D01*
X64306Y-40232D01*
X64287Y-40250D01*
X64250Y-40269D01*
X64100Y-40269D01*
X64568Y-40063D02*
X64606Y-40063D01*
X64643Y-40082D01*
X64662Y-40100D01*
X64681Y-40138D01*
X64700Y-40213D01*
X64700Y-40307D01*
X64681Y-40382D01*
X64662Y-40419D01*
X64643Y-40438D01*
X64606Y-40456D01*
X64568Y-40456D01*
X64531Y-40438D01*
X64512Y-40419D01*
X64493Y-40382D01*
X64475Y-40307D01*
X64475Y-40213D01*
X64493Y-40138D01*
X64512Y-40100D01*
X64531Y-40082D01*
X64568Y-40063D01*
X61372Y-46002D02*
X61353Y-46040D01*
X61315Y-46077D01*
X61259Y-46134D01*
X61240Y-46171D01*
X61240Y-46209D01*
X61334Y-46190D02*
X61315Y-46227D01*
X61278Y-46265D01*
X61203Y-46284D01*
X61072Y-46284D01*
X60997Y-46265D01*
X60959Y-46227D01*
X60940Y-46190D01*
X60940Y-46115D01*
X60959Y-46077D01*
X60997Y-46040D01*
X61072Y-46021D01*
X61203Y-46021D01*
X61278Y-46040D01*
X61315Y-46077D01*
X61334Y-46115D01*
X61334Y-46190D01*
X60940Y-45890D02*
X60940Y-45646D01*
X61090Y-45778D01*
X61090Y-45721D01*
X61109Y-45684D01*
X61128Y-45665D01*
X61165Y-45646D01*
X61259Y-45646D01*
X61297Y-45665D01*
X61315Y-45684D01*
X61334Y-45721D01*
X61334Y-45834D01*
X61315Y-45871D01*
X61297Y-45890D01*
X60940Y-45403D02*
X60940Y-45365D01*
X60959Y-45328D01*
X60978Y-45309D01*
X61015Y-45290D01*
X61090Y-45271D01*
X61184Y-45271D01*
X61259Y-45290D01*
X61297Y-45309D01*
X61315Y-45328D01*
X61334Y-45365D01*
X61334Y-45403D01*
X61315Y-45440D01*
X61297Y-45459D01*
X61259Y-45478D01*
X61184Y-45496D01*
X61090Y-45496D01*
X61015Y-45478D01*
X60978Y-45459D01*
X60959Y-45440D01*
X60940Y-45403D01*
X61334Y-44896D02*
X61334Y-45121D01*
X61334Y-45009D02*
X60940Y-45009D01*
X60997Y-45046D01*
X61034Y-45084D01*
X61053Y-45121D01*
X61381Y-44349D02*
X61381Y-43956D01*
X61531Y-43956D01*
X61569Y-43974D01*
X61587Y-43993D01*
X61606Y-44031D01*
X61606Y-44087D01*
X61587Y-44124D01*
X61569Y-44143D01*
X61531Y-44162D01*
X61381Y-44162D01*
X61756Y-44331D02*
X61812Y-44349D01*
X61906Y-44349D01*
X61944Y-44331D01*
X61962Y-44312D01*
X61981Y-44274D01*
X61981Y-44237D01*
X61962Y-44199D01*
X61944Y-44181D01*
X61906Y-44162D01*
X61831Y-44143D01*
X61794Y-44124D01*
X61775Y-44106D01*
X61756Y-44068D01*
X61756Y-44031D01*
X61775Y-43993D01*
X61794Y-43974D01*
X61831Y-43956D01*
X61925Y-43956D01*
X61981Y-43974D01*
X62150Y-44349D02*
X62150Y-43956D01*
X62281Y-44237D01*
X62412Y-43956D01*
X62412Y-44349D01*
X62600Y-44349D02*
X62600Y-43956D01*
X62825Y-44349D01*
X62825Y-43956D01*
X63068Y-44124D02*
X63031Y-44106D01*
X63012Y-44087D01*
X62993Y-44049D01*
X62993Y-44031D01*
X63012Y-43993D01*
X63031Y-43974D01*
X63068Y-43956D01*
X63143Y-43956D01*
X63181Y-43974D01*
X63200Y-43993D01*
X63218Y-44031D01*
X63218Y-44049D01*
X63200Y-44087D01*
X63181Y-44106D01*
X63143Y-44124D01*
X63068Y-44124D01*
X63031Y-44143D01*
X63012Y-44162D01*
X62993Y-44199D01*
X62993Y-44274D01*
X63012Y-44312D01*
X63031Y-44331D01*
X63068Y-44349D01*
X63143Y-44349D01*
X63181Y-44331D01*
X63200Y-44312D01*
X63218Y-44274D01*
X63218Y-44199D01*
X63200Y-44162D01*
X63181Y-44143D01*
X63143Y-44124D01*
X63612Y-44349D02*
X63481Y-44162D01*
X63387Y-44349D02*
X63387Y-43956D01*
X63537Y-43956D01*
X63575Y-43974D01*
X63593Y-43993D01*
X63612Y-44031D01*
X63612Y-44087D01*
X63593Y-44124D01*
X63575Y-44143D01*
X63537Y-44162D01*
X63387Y-44162D01*
X63856Y-43956D02*
X63893Y-43956D01*
X63931Y-43974D01*
X63950Y-43993D01*
X63968Y-44031D01*
X63987Y-44106D01*
X63987Y-44199D01*
X63968Y-44274D01*
X63950Y-44312D01*
X63931Y-44331D01*
X63893Y-44349D01*
X63856Y-44349D01*
X63818Y-44331D01*
X63800Y-44312D01*
X63781Y-44274D01*
X63762Y-44199D01*
X63762Y-44106D01*
X63781Y-44031D01*
X63800Y-43993D01*
X63818Y-43974D01*
X63856Y-43956D01*
X65084Y-43247D02*
X65065Y-43284D01*
X65028Y-43322D01*
X64972Y-43378D01*
X64953Y-43415D01*
X64953Y-43453D01*
X65047Y-43434D02*
X65028Y-43472D01*
X64990Y-43509D01*
X64915Y-43528D01*
X64784Y-43528D01*
X64709Y-43509D01*
X64672Y-43472D01*
X64653Y-43434D01*
X64653Y-43359D01*
X64672Y-43322D01*
X64709Y-43284D01*
X64784Y-43265D01*
X64915Y-43265D01*
X64990Y-43284D01*
X65028Y-43322D01*
X65047Y-43359D01*
X65047Y-43434D01*
X64653Y-43134D02*
X64653Y-42890D01*
X64803Y-43022D01*
X64803Y-42965D01*
X64822Y-42928D01*
X64840Y-42909D01*
X64878Y-42890D01*
X64972Y-42890D01*
X65009Y-42909D01*
X65028Y-42928D01*
X65047Y-42965D01*
X65047Y-43078D01*
X65028Y-43115D01*
X65009Y-43134D01*
X64653Y-42647D02*
X64653Y-42609D01*
X64672Y-42572D01*
X64690Y-42553D01*
X64728Y-42534D01*
X64803Y-42515D01*
X64897Y-42515D01*
X64972Y-42534D01*
X65009Y-42553D01*
X65028Y-42572D01*
X65047Y-42609D01*
X65047Y-42647D01*
X65028Y-42684D01*
X65009Y-42703D01*
X64972Y-42722D01*
X64897Y-42740D01*
X64803Y-42740D01*
X64728Y-42722D01*
X64690Y-42703D01*
X64672Y-42684D01*
X64653Y-42647D01*
X64690Y-42365D02*
X64672Y-42347D01*
X64653Y-42309D01*
X64653Y-42215D01*
X64672Y-42178D01*
X64690Y-42159D01*
X64728Y-42140D01*
X64765Y-42140D01*
X64822Y-42159D01*
X65047Y-42384D01*
X65047Y-42140D01*
X62094Y-44394D02*
X62094Y-44000D01*
X62244Y-44000D01*
X62281Y-44019D01*
X62300Y-44037D01*
X62319Y-44075D01*
X62319Y-44131D01*
X62300Y-44169D01*
X62281Y-44187D01*
X62244Y-44206D01*
X62094Y-44206D01*
X62469Y-44375D02*
X62525Y-44394D01*
X62619Y-44394D01*
X62656Y-44375D01*
X62675Y-44356D01*
X62694Y-44319D01*
X62694Y-44281D01*
X62675Y-44244D01*
X62656Y-44225D01*
X62619Y-44206D01*
X62544Y-44187D01*
X62506Y-44169D01*
X62487Y-44150D01*
X62469Y-44112D01*
X62469Y-44075D01*
X62487Y-44037D01*
X62506Y-44019D01*
X62544Y-44000D01*
X62637Y-44000D01*
X62694Y-44019D01*
X62862Y-44394D02*
X62862Y-44000D01*
X62994Y-44281D01*
X63125Y-44000D01*
X63125Y-44394D01*
X63312Y-44394D02*
X63312Y-44000D01*
X63537Y-44394D01*
X63537Y-44000D01*
X63781Y-44169D02*
X63744Y-44150D01*
X63725Y-44131D01*
X63706Y-44094D01*
X63706Y-44075D01*
X63725Y-44037D01*
X63744Y-44019D01*
X63781Y-44000D01*
X63856Y-44000D01*
X63893Y-44019D01*
X63912Y-44037D01*
X63931Y-44075D01*
X63931Y-44094D01*
X63912Y-44131D01*
X63893Y-44150D01*
X63856Y-44169D01*
X63781Y-44169D01*
X63744Y-44187D01*
X63725Y-44206D01*
X63706Y-44244D01*
X63706Y-44319D01*
X63725Y-44356D01*
X63744Y-44375D01*
X63781Y-44394D01*
X63856Y-44394D01*
X63893Y-44375D01*
X63912Y-44356D01*
X63931Y-44319D01*
X63931Y-44244D01*
X63912Y-44206D01*
X63893Y-44187D01*
X63856Y-44169D01*
X64325Y-44394D02*
X64193Y-44206D01*
X64100Y-44394D02*
X64100Y-44000D01*
X64250Y-44000D01*
X64287Y-44019D01*
X64306Y-44037D01*
X64325Y-44075D01*
X64325Y-44131D01*
X64306Y-44169D01*
X64287Y-44187D01*
X64250Y-44206D01*
X64100Y-44206D01*
X64568Y-44000D02*
X64606Y-44000D01*
X64643Y-44019D01*
X64662Y-44037D01*
X64681Y-44075D01*
X64700Y-44150D01*
X64700Y-44244D01*
X64681Y-44319D01*
X64662Y-44356D01*
X64643Y-44375D01*
X64606Y-44394D01*
X64568Y-44394D01*
X64531Y-44375D01*
X64512Y-44356D01*
X64493Y-44319D01*
X64475Y-44244D01*
X64475Y-44150D01*
X64493Y-44075D01*
X64512Y-44037D01*
X64531Y-44019D01*
X64568Y-44000D01*
X61372Y-49546D02*
X61353Y-49583D01*
X61315Y-49621D01*
X61259Y-49677D01*
X61240Y-49715D01*
X61240Y-49752D01*
X61334Y-49733D02*
X61315Y-49771D01*
X61278Y-49808D01*
X61203Y-49827D01*
X61072Y-49827D01*
X60997Y-49808D01*
X60959Y-49771D01*
X60940Y-49733D01*
X60940Y-49658D01*
X60959Y-49621D01*
X60997Y-49583D01*
X61072Y-49565D01*
X61203Y-49565D01*
X61278Y-49583D01*
X61315Y-49621D01*
X61334Y-49658D01*
X61334Y-49733D01*
X60940Y-49433D02*
X60940Y-49190D01*
X61090Y-49321D01*
X61090Y-49265D01*
X61109Y-49227D01*
X61128Y-49208D01*
X61165Y-49190D01*
X61259Y-49190D01*
X61297Y-49208D01*
X61315Y-49227D01*
X61334Y-49265D01*
X61334Y-49377D01*
X61315Y-49415D01*
X61297Y-49433D01*
X60940Y-48946D02*
X60940Y-48908D01*
X60959Y-48871D01*
X60978Y-48852D01*
X61015Y-48833D01*
X61090Y-48815D01*
X61184Y-48815D01*
X61259Y-48833D01*
X61297Y-48852D01*
X61315Y-48871D01*
X61334Y-48908D01*
X61334Y-48946D01*
X61315Y-48983D01*
X61297Y-49002D01*
X61259Y-49021D01*
X61184Y-49040D01*
X61090Y-49040D01*
X61015Y-49021D01*
X60978Y-49002D01*
X60959Y-48983D01*
X60940Y-48946D01*
X60940Y-48683D02*
X60940Y-48440D01*
X61090Y-48571D01*
X61090Y-48515D01*
X61109Y-48477D01*
X61128Y-48458D01*
X61165Y-48440D01*
X61259Y-48440D01*
X61297Y-48458D01*
X61315Y-48477D01*
X61334Y-48515D01*
X61334Y-48627D01*
X61315Y-48665D01*
X61297Y-48683D01*
X61381Y-47893D02*
X61381Y-47499D01*
X61531Y-47499D01*
X61569Y-47518D01*
X61587Y-47537D01*
X61606Y-47574D01*
X61606Y-47630D01*
X61587Y-47668D01*
X61569Y-47686D01*
X61531Y-47705D01*
X61381Y-47705D01*
X61756Y-47874D02*
X61812Y-47893D01*
X61906Y-47893D01*
X61944Y-47874D01*
X61962Y-47855D01*
X61981Y-47818D01*
X61981Y-47780D01*
X61962Y-47743D01*
X61944Y-47724D01*
X61906Y-47705D01*
X61831Y-47686D01*
X61794Y-47668D01*
X61775Y-47649D01*
X61756Y-47611D01*
X61756Y-47574D01*
X61775Y-47537D01*
X61794Y-47518D01*
X61831Y-47499D01*
X61925Y-47499D01*
X61981Y-47518D01*
X62150Y-47893D02*
X62150Y-47499D01*
X62281Y-47780D01*
X62412Y-47499D01*
X62412Y-47893D01*
X62600Y-47893D02*
X62600Y-47499D01*
X62825Y-47893D01*
X62825Y-47499D01*
X63068Y-47668D02*
X63031Y-47649D01*
X63012Y-47630D01*
X62993Y-47593D01*
X62993Y-47574D01*
X63012Y-47537D01*
X63031Y-47518D01*
X63068Y-47499D01*
X63143Y-47499D01*
X63181Y-47518D01*
X63200Y-47537D01*
X63218Y-47574D01*
X63218Y-47593D01*
X63200Y-47630D01*
X63181Y-47649D01*
X63143Y-47668D01*
X63068Y-47668D01*
X63031Y-47686D01*
X63012Y-47705D01*
X62993Y-47743D01*
X62993Y-47818D01*
X63012Y-47855D01*
X63031Y-47874D01*
X63068Y-47893D01*
X63143Y-47893D01*
X63181Y-47874D01*
X63200Y-47855D01*
X63218Y-47818D01*
X63218Y-47743D01*
X63200Y-47705D01*
X63181Y-47686D01*
X63143Y-47668D01*
X63612Y-47893D02*
X63481Y-47705D01*
X63387Y-47893D02*
X63387Y-47499D01*
X63537Y-47499D01*
X63575Y-47518D01*
X63593Y-47537D01*
X63612Y-47574D01*
X63612Y-47630D01*
X63593Y-47668D01*
X63575Y-47686D01*
X63537Y-47705D01*
X63387Y-47705D01*
X63856Y-47499D02*
X63893Y-47499D01*
X63931Y-47518D01*
X63950Y-47537D01*
X63968Y-47574D01*
X63987Y-47649D01*
X63987Y-47743D01*
X63968Y-47818D01*
X63950Y-47855D01*
X63931Y-47874D01*
X63893Y-47893D01*
X63856Y-47893D01*
X63818Y-47874D01*
X63800Y-47855D01*
X63781Y-47818D01*
X63762Y-47743D01*
X63762Y-47649D01*
X63781Y-47574D01*
X63800Y-47537D01*
X63818Y-47518D01*
X63856Y-47499D01*
X65084Y-51908D02*
X65065Y-51946D01*
X65028Y-51983D01*
X64972Y-52039D01*
X64953Y-52077D01*
X64953Y-52114D01*
X65047Y-52095D02*
X65028Y-52133D01*
X64990Y-52170D01*
X64915Y-52189D01*
X64784Y-52189D01*
X64709Y-52170D01*
X64672Y-52133D01*
X64653Y-52095D01*
X64653Y-52020D01*
X64672Y-51983D01*
X64709Y-51946D01*
X64784Y-51927D01*
X64915Y-51927D01*
X64990Y-51946D01*
X65028Y-51983D01*
X65047Y-52020D01*
X65047Y-52095D01*
X64653Y-51796D02*
X64653Y-51552D01*
X64803Y-51683D01*
X64803Y-51627D01*
X64822Y-51589D01*
X64840Y-51571D01*
X64878Y-51552D01*
X64972Y-51552D01*
X65009Y-51571D01*
X65028Y-51589D01*
X65047Y-51627D01*
X65047Y-51739D01*
X65028Y-51777D01*
X65009Y-51796D01*
X64653Y-51308D02*
X64653Y-51271D01*
X64672Y-51233D01*
X64690Y-51214D01*
X64728Y-51196D01*
X64803Y-51177D01*
X64897Y-51177D01*
X64972Y-51196D01*
X65009Y-51214D01*
X65028Y-51233D01*
X65047Y-51271D01*
X65047Y-51308D01*
X65028Y-51346D01*
X65009Y-51364D01*
X64972Y-51383D01*
X64897Y-51402D01*
X64803Y-51402D01*
X64728Y-51383D01*
X64690Y-51364D01*
X64672Y-51346D01*
X64653Y-51308D01*
X64784Y-50839D02*
X65047Y-50839D01*
X64634Y-50933D02*
X64915Y-51027D01*
X64915Y-50783D01*
X62094Y-53055D02*
X62094Y-52661D01*
X62244Y-52661D01*
X62281Y-52680D01*
X62300Y-52699D01*
X62319Y-52736D01*
X62319Y-52792D01*
X62300Y-52830D01*
X62281Y-52849D01*
X62244Y-52867D01*
X62094Y-52867D01*
X62469Y-53036D02*
X62525Y-53055D01*
X62619Y-53055D01*
X62656Y-53036D01*
X62675Y-53017D01*
X62694Y-52980D01*
X62694Y-52942D01*
X62675Y-52905D01*
X62656Y-52886D01*
X62619Y-52867D01*
X62544Y-52849D01*
X62506Y-52830D01*
X62487Y-52811D01*
X62469Y-52774D01*
X62469Y-52736D01*
X62487Y-52699D01*
X62506Y-52680D01*
X62544Y-52661D01*
X62637Y-52661D01*
X62694Y-52680D01*
X62862Y-53055D02*
X62862Y-52661D01*
X62994Y-52942D01*
X63125Y-52661D01*
X63125Y-53055D01*
X63312Y-53055D02*
X63312Y-52661D01*
X63537Y-53055D01*
X63537Y-52661D01*
X63781Y-52830D02*
X63744Y-52811D01*
X63725Y-52792D01*
X63706Y-52755D01*
X63706Y-52736D01*
X63725Y-52699D01*
X63744Y-52680D01*
X63781Y-52661D01*
X63856Y-52661D01*
X63893Y-52680D01*
X63912Y-52699D01*
X63931Y-52736D01*
X63931Y-52755D01*
X63912Y-52792D01*
X63893Y-52811D01*
X63856Y-52830D01*
X63781Y-52830D01*
X63744Y-52849D01*
X63725Y-52867D01*
X63706Y-52905D01*
X63706Y-52980D01*
X63725Y-53017D01*
X63744Y-53036D01*
X63781Y-53055D01*
X63856Y-53055D01*
X63893Y-53036D01*
X63912Y-53017D01*
X63931Y-52980D01*
X63931Y-52905D01*
X63912Y-52867D01*
X63893Y-52849D01*
X63856Y-52830D01*
X64325Y-53055D02*
X64193Y-52867D01*
X64100Y-53055D02*
X64100Y-52661D01*
X64250Y-52661D01*
X64287Y-52680D01*
X64306Y-52699D01*
X64325Y-52736D01*
X64325Y-52792D01*
X64306Y-52830D01*
X64287Y-52849D01*
X64250Y-52867D01*
X64100Y-52867D01*
X64568Y-52661D02*
X64606Y-52661D01*
X64643Y-52680D01*
X64662Y-52699D01*
X64681Y-52736D01*
X64700Y-52811D01*
X64700Y-52905D01*
X64681Y-52980D01*
X64662Y-53017D01*
X64643Y-53036D01*
X64606Y-53055D01*
X64568Y-53055D01*
X64531Y-53036D01*
X64512Y-53017D01*
X64493Y-52980D01*
X64475Y-52905D01*
X64475Y-52811D01*
X64493Y-52736D01*
X64512Y-52699D01*
X64531Y-52680D01*
X64568Y-52661D01*
X61372Y-36947D02*
X61353Y-36985D01*
X61315Y-37022D01*
X61259Y-37079D01*
X61240Y-37116D01*
X61240Y-37154D01*
X61334Y-37135D02*
X61315Y-37172D01*
X61278Y-37210D01*
X61203Y-37229D01*
X61072Y-37229D01*
X60997Y-37210D01*
X60959Y-37172D01*
X60940Y-37135D01*
X60940Y-37060D01*
X60959Y-37022D01*
X60997Y-36985D01*
X61072Y-36966D01*
X61203Y-36966D01*
X61278Y-36985D01*
X61315Y-37022D01*
X61334Y-37060D01*
X61334Y-37135D01*
X60978Y-36816D02*
X60959Y-36797D01*
X60940Y-36760D01*
X60940Y-36666D01*
X60959Y-36629D01*
X60978Y-36610D01*
X61015Y-36591D01*
X61053Y-36591D01*
X61109Y-36610D01*
X61334Y-36835D01*
X61334Y-36591D01*
X60940Y-36347D02*
X60940Y-36310D01*
X60959Y-36272D01*
X60978Y-36254D01*
X61015Y-36235D01*
X61090Y-36216D01*
X61184Y-36216D01*
X61259Y-36235D01*
X61297Y-36254D01*
X61315Y-36272D01*
X61334Y-36310D01*
X61334Y-36347D01*
X61315Y-36385D01*
X61297Y-36404D01*
X61259Y-36422D01*
X61184Y-36441D01*
X61090Y-36441D01*
X61015Y-36422D01*
X60978Y-36404D01*
X60959Y-36385D01*
X60940Y-36347D01*
X60940Y-36085D02*
X60940Y-35841D01*
X61090Y-35973D01*
X61090Y-35916D01*
X61109Y-35879D01*
X61128Y-35860D01*
X61165Y-35841D01*
X61259Y-35841D01*
X61297Y-35860D01*
X61315Y-35879D01*
X61334Y-35916D01*
X61334Y-36029D01*
X61315Y-36066D01*
X61297Y-36085D01*
X61381Y-35294D02*
X61381Y-34901D01*
X61531Y-34901D01*
X61569Y-34919D01*
X61587Y-34938D01*
X61606Y-34976D01*
X61606Y-35032D01*
X61587Y-35069D01*
X61569Y-35088D01*
X61531Y-35107D01*
X61381Y-35107D01*
X61756Y-35276D02*
X61812Y-35294D01*
X61906Y-35294D01*
X61944Y-35276D01*
X61962Y-35257D01*
X61981Y-35219D01*
X61981Y-35182D01*
X61962Y-35144D01*
X61944Y-35126D01*
X61906Y-35107D01*
X61831Y-35088D01*
X61794Y-35069D01*
X61775Y-35051D01*
X61756Y-35013D01*
X61756Y-34976D01*
X61775Y-34938D01*
X61794Y-34919D01*
X61831Y-34901D01*
X61925Y-34901D01*
X61981Y-34919D01*
X62150Y-35294D02*
X62150Y-34901D01*
X62281Y-35182D01*
X62412Y-34901D01*
X62412Y-35294D01*
X62600Y-35294D02*
X62600Y-34901D01*
X62825Y-35294D01*
X62825Y-34901D01*
X63068Y-35069D02*
X63031Y-35051D01*
X63012Y-35032D01*
X62993Y-34994D01*
X62993Y-34976D01*
X63012Y-34938D01*
X63031Y-34919D01*
X63068Y-34901D01*
X63143Y-34901D01*
X63181Y-34919D01*
X63200Y-34938D01*
X63218Y-34976D01*
X63218Y-34994D01*
X63200Y-35032D01*
X63181Y-35051D01*
X63143Y-35069D01*
X63068Y-35069D01*
X63031Y-35088D01*
X63012Y-35107D01*
X62993Y-35144D01*
X62993Y-35219D01*
X63012Y-35257D01*
X63031Y-35276D01*
X63068Y-35294D01*
X63143Y-35294D01*
X63181Y-35276D01*
X63200Y-35257D01*
X63218Y-35219D01*
X63218Y-35144D01*
X63200Y-35107D01*
X63181Y-35088D01*
X63143Y-35069D01*
X63612Y-35294D02*
X63481Y-35107D01*
X63387Y-35294D02*
X63387Y-34901D01*
X63537Y-34901D01*
X63575Y-34919D01*
X63593Y-34938D01*
X63612Y-34976D01*
X63612Y-35032D01*
X63593Y-35069D01*
X63575Y-35088D01*
X63537Y-35107D01*
X63387Y-35107D01*
X63856Y-34901D02*
X63893Y-34901D01*
X63931Y-34919D01*
X63950Y-34938D01*
X63968Y-34976D01*
X63987Y-35051D01*
X63987Y-35144D01*
X63968Y-35219D01*
X63950Y-35257D01*
X63931Y-35276D01*
X63893Y-35294D01*
X63856Y-35294D01*
X63818Y-35276D01*
X63800Y-35257D01*
X63781Y-35219D01*
X63762Y-35144D01*
X63762Y-35051D01*
X63781Y-34976D01*
X63800Y-34938D01*
X63818Y-34919D01*
X63856Y-34901D01*
X65084Y-31042D02*
X65065Y-31079D01*
X65028Y-31117D01*
X64972Y-31173D01*
X64953Y-31211D01*
X64953Y-31248D01*
X65047Y-31229D02*
X65028Y-31267D01*
X64990Y-31304D01*
X64915Y-31323D01*
X64784Y-31323D01*
X64709Y-31304D01*
X64672Y-31267D01*
X64653Y-31229D01*
X64653Y-31154D01*
X64672Y-31117D01*
X64709Y-31079D01*
X64784Y-31061D01*
X64915Y-31061D01*
X64990Y-31079D01*
X65028Y-31117D01*
X65047Y-31154D01*
X65047Y-31229D01*
X64690Y-30911D02*
X64672Y-30892D01*
X64653Y-30854D01*
X64653Y-30761D01*
X64672Y-30723D01*
X64690Y-30704D01*
X64728Y-30686D01*
X64765Y-30686D01*
X64822Y-30704D01*
X65047Y-30929D01*
X65047Y-30686D01*
X64653Y-30442D02*
X64653Y-30404D01*
X64672Y-30367D01*
X64690Y-30348D01*
X64728Y-30329D01*
X64803Y-30311D01*
X64897Y-30311D01*
X64972Y-30329D01*
X65009Y-30348D01*
X65028Y-30367D01*
X65047Y-30404D01*
X65047Y-30442D01*
X65028Y-30479D01*
X65009Y-30498D01*
X64972Y-30517D01*
X64897Y-30536D01*
X64803Y-30536D01*
X64728Y-30517D01*
X64690Y-30498D01*
X64672Y-30479D01*
X64653Y-30442D01*
X64690Y-30161D02*
X64672Y-30142D01*
X64653Y-30104D01*
X64653Y-30011D01*
X64672Y-29973D01*
X64690Y-29955D01*
X64728Y-29936D01*
X64765Y-29936D01*
X64822Y-29955D01*
X65047Y-30179D01*
X65047Y-29936D01*
X62094Y-32189D02*
X62094Y-31795D01*
X62244Y-31795D01*
X62281Y-31814D01*
X62300Y-31833D01*
X62319Y-31870D01*
X62319Y-31926D01*
X62300Y-31964D01*
X62281Y-31983D01*
X62244Y-32001D01*
X62094Y-32001D01*
X62469Y-32170D02*
X62525Y-32189D01*
X62619Y-32189D01*
X62656Y-32170D01*
X62675Y-32151D01*
X62694Y-32114D01*
X62694Y-32076D01*
X62675Y-32039D01*
X62656Y-32020D01*
X62619Y-32001D01*
X62544Y-31983D01*
X62506Y-31964D01*
X62487Y-31945D01*
X62469Y-31908D01*
X62469Y-31870D01*
X62487Y-31833D01*
X62506Y-31814D01*
X62544Y-31795D01*
X62637Y-31795D01*
X62694Y-31814D01*
X62862Y-32189D02*
X62862Y-31795D01*
X62994Y-32076D01*
X63125Y-31795D01*
X63125Y-32189D01*
X63312Y-32189D02*
X63312Y-31795D01*
X63537Y-32189D01*
X63537Y-31795D01*
X63781Y-31964D02*
X63744Y-31945D01*
X63725Y-31926D01*
X63706Y-31889D01*
X63706Y-31870D01*
X63725Y-31833D01*
X63744Y-31814D01*
X63781Y-31795D01*
X63856Y-31795D01*
X63893Y-31814D01*
X63912Y-31833D01*
X63931Y-31870D01*
X63931Y-31889D01*
X63912Y-31926D01*
X63893Y-31945D01*
X63856Y-31964D01*
X63781Y-31964D01*
X63744Y-31983D01*
X63725Y-32001D01*
X63706Y-32039D01*
X63706Y-32114D01*
X63725Y-32151D01*
X63744Y-32170D01*
X63781Y-32189D01*
X63856Y-32189D01*
X63893Y-32170D01*
X63912Y-32151D01*
X63931Y-32114D01*
X63931Y-32039D01*
X63912Y-32001D01*
X63893Y-31983D01*
X63856Y-31964D01*
X64325Y-32189D02*
X64193Y-32001D01*
X64100Y-32189D02*
X64100Y-31795D01*
X64250Y-31795D01*
X64287Y-31814D01*
X64306Y-31833D01*
X64325Y-31870D01*
X64325Y-31926D01*
X64306Y-31964D01*
X64287Y-31983D01*
X64250Y-32001D01*
X64100Y-32001D01*
X64568Y-31795D02*
X64606Y-31795D01*
X64643Y-31814D01*
X64662Y-31833D01*
X64681Y-31870D01*
X64700Y-31945D01*
X64700Y-32039D01*
X64681Y-32114D01*
X64662Y-32151D01*
X64643Y-32170D01*
X64606Y-32189D01*
X64568Y-32189D01*
X64531Y-32170D01*
X64512Y-32151D01*
X64493Y-32114D01*
X64475Y-32039D01*
X64475Y-31945D01*
X64493Y-31870D01*
X64512Y-31833D01*
X64531Y-31814D01*
X64568Y-31795D01*
X61372Y-33404D02*
X61353Y-33442D01*
X61315Y-33479D01*
X61259Y-33535D01*
X61240Y-33573D01*
X61240Y-33610D01*
X61334Y-33592D02*
X61315Y-33629D01*
X61278Y-33667D01*
X61203Y-33685D01*
X61072Y-33685D01*
X60997Y-33667D01*
X60959Y-33629D01*
X60940Y-33592D01*
X60940Y-33517D01*
X60959Y-33479D01*
X60997Y-33442D01*
X61072Y-33423D01*
X61203Y-33423D01*
X61278Y-33442D01*
X61315Y-33479D01*
X61334Y-33517D01*
X61334Y-33592D01*
X60978Y-33273D02*
X60959Y-33254D01*
X60940Y-33217D01*
X60940Y-33123D01*
X60959Y-33085D01*
X60978Y-33067D01*
X61015Y-33048D01*
X61053Y-33048D01*
X61109Y-33067D01*
X61334Y-33292D01*
X61334Y-33048D01*
X60940Y-32804D02*
X60940Y-32767D01*
X60959Y-32729D01*
X60978Y-32710D01*
X61015Y-32692D01*
X61090Y-32673D01*
X61184Y-32673D01*
X61259Y-32692D01*
X61297Y-32710D01*
X61315Y-32729D01*
X61334Y-32767D01*
X61334Y-32804D01*
X61315Y-32842D01*
X61297Y-32860D01*
X61259Y-32879D01*
X61184Y-32898D01*
X61090Y-32898D01*
X61015Y-32879D01*
X60978Y-32860D01*
X60959Y-32842D01*
X60940Y-32804D01*
X61334Y-32298D02*
X61334Y-32523D01*
X61334Y-32410D02*
X60940Y-32410D01*
X60997Y-32448D01*
X61034Y-32485D01*
X61053Y-32523D01*
X61381Y-31751D02*
X61381Y-31357D01*
X61531Y-31357D01*
X61569Y-31376D01*
X61587Y-31395D01*
X61606Y-31432D01*
X61606Y-31489D01*
X61587Y-31526D01*
X61569Y-31545D01*
X61531Y-31564D01*
X61381Y-31564D01*
X61756Y-31732D02*
X61812Y-31751D01*
X61906Y-31751D01*
X61944Y-31732D01*
X61962Y-31713D01*
X61981Y-31676D01*
X61981Y-31638D01*
X61962Y-31601D01*
X61944Y-31582D01*
X61906Y-31564D01*
X61831Y-31545D01*
X61794Y-31526D01*
X61775Y-31507D01*
X61756Y-31470D01*
X61756Y-31432D01*
X61775Y-31395D01*
X61794Y-31376D01*
X61831Y-31357D01*
X61925Y-31357D01*
X61981Y-31376D01*
X62150Y-31751D02*
X62150Y-31357D01*
X62281Y-31638D01*
X62412Y-31357D01*
X62412Y-31751D01*
X62600Y-31751D02*
X62600Y-31357D01*
X62825Y-31751D01*
X62825Y-31357D01*
X63068Y-31526D02*
X63031Y-31507D01*
X63012Y-31489D01*
X62993Y-31451D01*
X62993Y-31432D01*
X63012Y-31395D01*
X63031Y-31376D01*
X63068Y-31357D01*
X63143Y-31357D01*
X63181Y-31376D01*
X63200Y-31395D01*
X63218Y-31432D01*
X63218Y-31451D01*
X63200Y-31489D01*
X63181Y-31507D01*
X63143Y-31526D01*
X63068Y-31526D01*
X63031Y-31545D01*
X63012Y-31564D01*
X62993Y-31601D01*
X62993Y-31676D01*
X63012Y-31713D01*
X63031Y-31732D01*
X63068Y-31751D01*
X63143Y-31751D01*
X63181Y-31732D01*
X63200Y-31713D01*
X63218Y-31676D01*
X63218Y-31601D01*
X63200Y-31564D01*
X63181Y-31545D01*
X63143Y-31526D01*
X63612Y-31751D02*
X63481Y-31564D01*
X63387Y-31751D02*
X63387Y-31357D01*
X63537Y-31357D01*
X63575Y-31376D01*
X63593Y-31395D01*
X63612Y-31432D01*
X63612Y-31489D01*
X63593Y-31526D01*
X63575Y-31545D01*
X63537Y-31564D01*
X63387Y-31564D01*
X63856Y-31357D02*
X63893Y-31357D01*
X63931Y-31376D01*
X63950Y-31395D01*
X63968Y-31432D01*
X63987Y-31507D01*
X63987Y-31601D01*
X63968Y-31676D01*
X63950Y-31713D01*
X63931Y-31732D01*
X63893Y-31751D01*
X63856Y-31751D01*
X63818Y-31732D01*
X63800Y-31713D01*
X63781Y-31676D01*
X63762Y-31601D01*
X63762Y-31507D01*
X63781Y-31432D01*
X63800Y-31395D01*
X63818Y-31376D01*
X63856Y-31357D01*
G54D17*
X51344Y-47534D02*
X51344Y-47773D01*
X51358Y-47801D01*
X51372Y-47815D01*
X51400Y-47829D01*
X51457Y-47829D01*
X51485Y-47815D01*
X51499Y-47801D01*
X51513Y-47773D01*
X51513Y-47534D01*
X51625Y-47534D02*
X51808Y-47534D01*
X51709Y-47647D01*
X51752Y-47647D01*
X51780Y-47661D01*
X51794Y-47675D01*
X51808Y-47703D01*
X51808Y-47773D01*
X51794Y-47801D01*
X51780Y-47815D01*
X51752Y-47829D01*
X51667Y-47829D01*
X51639Y-47815D01*
X51625Y-47801D01*
X51990Y-47534D02*
X52018Y-47534D01*
X52047Y-47548D01*
X52061Y-47562D01*
X52075Y-47590D01*
X52089Y-47647D01*
X52089Y-47717D01*
X52075Y-47773D01*
X52061Y-47801D01*
X52047Y-47815D01*
X52018Y-47829D01*
X51990Y-47829D01*
X51962Y-47815D01*
X51948Y-47801D01*
X51934Y-47773D01*
X51920Y-47717D01*
X51920Y-47647D01*
X51934Y-47590D01*
X51948Y-47562D01*
X51962Y-47548D01*
X51990Y-47534D01*
X52370Y-47829D02*
X52201Y-47829D01*
X52285Y-47829D02*
X52285Y-47534D01*
X52257Y-47576D01*
X52229Y-47604D01*
X52201Y-47618D01*
X51485Y-48432D02*
X51485Y-48629D01*
X51414Y-48320D02*
X51344Y-48531D01*
X51527Y-48531D01*
X51695Y-48334D02*
X51723Y-48334D01*
X51752Y-48348D01*
X51766Y-48362D01*
X51780Y-48390D01*
X51794Y-48447D01*
X51794Y-48517D01*
X51780Y-48573D01*
X51766Y-48601D01*
X51752Y-48615D01*
X51723Y-48629D01*
X51695Y-48629D01*
X51667Y-48615D01*
X51653Y-48601D01*
X51639Y-48573D01*
X51625Y-48517D01*
X51625Y-48447D01*
X51639Y-48390D01*
X51653Y-48362D01*
X51667Y-48348D01*
X51695Y-48334D01*
X51976Y-48334D02*
X52004Y-48334D01*
X52033Y-48348D01*
X52047Y-48362D01*
X52061Y-48390D01*
X52075Y-48447D01*
X52075Y-48517D01*
X52061Y-48573D01*
X52047Y-48601D01*
X52033Y-48615D01*
X52004Y-48629D01*
X51976Y-48629D01*
X51948Y-48615D01*
X51934Y-48601D01*
X51920Y-48573D01*
X51906Y-48517D01*
X51906Y-48447D01*
X51920Y-48390D01*
X51934Y-48362D01*
X51948Y-48348D01*
X51976Y-48334D01*
X52356Y-48629D02*
X52187Y-48629D01*
X52271Y-48629D02*
X52271Y-48334D01*
X52243Y-48376D01*
X52215Y-48404D01*
X52187Y-48418D01*
X51147Y-34424D02*
X51147Y-34663D01*
X51161Y-34691D01*
X51175Y-34705D01*
X51204Y-34719D01*
X51260Y-34719D01*
X51288Y-34705D01*
X51302Y-34691D01*
X51316Y-34663D01*
X51316Y-34424D01*
X51442Y-34452D02*
X51456Y-34438D01*
X51484Y-34424D01*
X51555Y-34424D01*
X51583Y-34438D01*
X51597Y-34452D01*
X51611Y-34480D01*
X51611Y-34508D01*
X51597Y-34550D01*
X51428Y-34719D01*
X51611Y-34719D01*
X51794Y-34424D02*
X51822Y-34424D01*
X51850Y-34438D01*
X51864Y-34452D01*
X51878Y-34480D01*
X51892Y-34536D01*
X51892Y-34607D01*
X51878Y-34663D01*
X51864Y-34691D01*
X51850Y-34705D01*
X51822Y-34719D01*
X51794Y-34719D01*
X51765Y-34705D01*
X51751Y-34691D01*
X51737Y-34663D01*
X51723Y-34607D01*
X51723Y-34536D01*
X51737Y-34480D01*
X51751Y-34452D01*
X51765Y-34438D01*
X51794Y-34424D01*
X52173Y-34719D02*
X52004Y-34719D01*
X52089Y-34719D02*
X52089Y-34424D01*
X52060Y-34466D01*
X52032Y-34494D01*
X52004Y-34508D01*
X51288Y-35322D02*
X51288Y-35519D01*
X51218Y-35210D02*
X51147Y-35421D01*
X51330Y-35421D01*
X51499Y-35224D02*
X51527Y-35224D01*
X51555Y-35238D01*
X51569Y-35252D01*
X51583Y-35280D01*
X51597Y-35336D01*
X51597Y-35407D01*
X51583Y-35463D01*
X51569Y-35491D01*
X51555Y-35505D01*
X51527Y-35519D01*
X51499Y-35519D01*
X51470Y-35505D01*
X51456Y-35491D01*
X51442Y-35463D01*
X51428Y-35407D01*
X51428Y-35336D01*
X51442Y-35280D01*
X51456Y-35252D01*
X51470Y-35238D01*
X51499Y-35224D01*
X51779Y-35224D02*
X51808Y-35224D01*
X51836Y-35238D01*
X51850Y-35252D01*
X51864Y-35280D01*
X51878Y-35336D01*
X51878Y-35407D01*
X51864Y-35463D01*
X51850Y-35491D01*
X51836Y-35505D01*
X51808Y-35519D01*
X51779Y-35519D01*
X51751Y-35505D01*
X51737Y-35491D01*
X51723Y-35463D01*
X51709Y-35407D01*
X51709Y-35336D01*
X51723Y-35280D01*
X51737Y-35252D01*
X51751Y-35238D01*
X51779Y-35224D01*
X52159Y-35519D02*
X51990Y-35519D01*
X52074Y-35519D02*
X52074Y-35224D01*
X52046Y-35266D01*
X52018Y-35294D01*
X51990Y-35308D01*
G54D18*
X42159Y-25456D02*
X42065Y-25522D01*
X42159Y-25569D02*
X41962Y-25569D01*
X41962Y-25494D01*
X41971Y-25475D01*
X41981Y-25466D01*
X41999Y-25456D01*
X42028Y-25456D01*
X42046Y-25466D01*
X42056Y-25475D01*
X42065Y-25494D01*
X42065Y-25569D01*
X42159Y-25269D02*
X42159Y-25381D01*
X42159Y-25325D02*
X41962Y-25325D01*
X41990Y-25344D01*
X42009Y-25362D01*
X42018Y-25381D01*
X41962Y-25147D02*
X41962Y-25128D01*
X41971Y-25109D01*
X41981Y-25100D01*
X41999Y-25090D01*
X42037Y-25081D01*
X42084Y-25081D01*
X42121Y-25090D01*
X42140Y-25100D01*
X42150Y-25109D01*
X42159Y-25128D01*
X42159Y-25147D01*
X42150Y-25165D01*
X42140Y-25175D01*
X42121Y-25184D01*
X42084Y-25194D01*
X42037Y-25194D01*
X41999Y-25184D01*
X41981Y-25175D01*
X41971Y-25165D01*
X41962Y-25147D01*
X42028Y-24912D02*
X42159Y-24912D01*
X41953Y-24959D02*
X42093Y-25006D01*
X42093Y-24884D01*
X42434Y-25353D02*
X42434Y-25466D01*
X42434Y-25409D02*
X42237Y-25409D01*
X42265Y-25428D01*
X42284Y-25447D01*
X42293Y-25466D01*
X42237Y-25231D02*
X42237Y-25212D01*
X42246Y-25194D01*
X42256Y-25184D01*
X42274Y-25175D01*
X42312Y-25165D01*
X42359Y-25165D01*
X42396Y-25175D01*
X42415Y-25184D01*
X42425Y-25194D01*
X42434Y-25212D01*
X42434Y-25231D01*
X42425Y-25250D01*
X42415Y-25259D01*
X42396Y-25269D01*
X42359Y-25278D01*
X42312Y-25278D01*
X42274Y-25269D01*
X42256Y-25259D01*
X42246Y-25250D01*
X42237Y-25231D01*
X42434Y-25081D02*
X42237Y-25081D01*
X42359Y-25062D02*
X42434Y-25006D01*
X42303Y-25006D02*
X42378Y-25081D01*
X60624Y-53291D02*
X60530Y-53356D01*
X60624Y-53403D02*
X60427Y-53403D01*
X60427Y-53328D01*
X60436Y-53310D01*
X60445Y-53300D01*
X60464Y-53291D01*
X60492Y-53291D01*
X60511Y-53300D01*
X60520Y-53310D01*
X60530Y-53328D01*
X60530Y-53403D01*
X60427Y-53225D02*
X60427Y-53103D01*
X60502Y-53169D01*
X60502Y-53141D01*
X60511Y-53122D01*
X60520Y-53113D01*
X60539Y-53103D01*
X60586Y-53103D01*
X60605Y-53113D01*
X60614Y-53122D01*
X60624Y-53141D01*
X60624Y-53197D01*
X60614Y-53216D01*
X60605Y-53225D01*
X60427Y-52981D02*
X60427Y-52962D01*
X60436Y-52944D01*
X60445Y-52934D01*
X60464Y-52925D01*
X60502Y-52916D01*
X60548Y-52916D01*
X60586Y-52925D01*
X60605Y-52934D01*
X60614Y-52944D01*
X60624Y-52962D01*
X60624Y-52981D01*
X60614Y-53000D01*
X60605Y-53009D01*
X60586Y-53019D01*
X60548Y-53028D01*
X60502Y-53028D01*
X60464Y-53019D01*
X60445Y-53009D01*
X60436Y-53000D01*
X60427Y-52981D01*
X60427Y-52747D02*
X60427Y-52784D01*
X60436Y-52803D01*
X60445Y-52812D01*
X60473Y-52831D01*
X60511Y-52841D01*
X60586Y-52841D01*
X60605Y-52831D01*
X60614Y-52822D01*
X60624Y-52803D01*
X60624Y-52765D01*
X60614Y-52747D01*
X60605Y-52737D01*
X60586Y-52728D01*
X60539Y-52728D01*
X60520Y-52737D01*
X60511Y-52747D01*
X60502Y-52765D01*
X60502Y-52803D01*
X60511Y-52822D01*
X60520Y-52831D01*
X60539Y-52841D01*
X60899Y-53009D02*
X60805Y-53075D01*
X60899Y-53122D02*
X60702Y-53122D01*
X60702Y-53047D01*
X60711Y-53028D01*
X60720Y-53019D01*
X60739Y-53009D01*
X60767Y-53009D01*
X60786Y-53019D01*
X60795Y-53028D01*
X60805Y-53047D01*
X60805Y-53122D01*
X60251Y-43813D02*
X60186Y-43719D01*
X60139Y-43813D02*
X60139Y-43616D01*
X60214Y-43616D01*
X60233Y-43625D01*
X60242Y-43634D01*
X60251Y-43653D01*
X60251Y-43681D01*
X60242Y-43700D01*
X60233Y-43709D01*
X60214Y-43719D01*
X60139Y-43719D01*
X60317Y-43616D02*
X60439Y-43616D01*
X60373Y-43691D01*
X60402Y-43691D01*
X60420Y-43700D01*
X60430Y-43709D01*
X60439Y-43728D01*
X60439Y-43775D01*
X60430Y-43794D01*
X60420Y-43803D01*
X60402Y-43813D01*
X60345Y-43813D01*
X60327Y-43803D01*
X60317Y-43794D01*
X60561Y-43616D02*
X60580Y-43616D01*
X60599Y-43625D01*
X60608Y-43634D01*
X60617Y-43653D01*
X60627Y-43691D01*
X60627Y-43737D01*
X60617Y-43775D01*
X60608Y-43794D01*
X60599Y-43803D01*
X60580Y-43813D01*
X60561Y-43813D01*
X60542Y-43803D01*
X60533Y-43794D01*
X60524Y-43775D01*
X60514Y-43737D01*
X60514Y-43691D01*
X60524Y-43653D01*
X60533Y-43634D01*
X60542Y-43625D01*
X60561Y-43616D01*
X60796Y-43681D02*
X60796Y-43813D01*
X60749Y-43606D02*
X60702Y-43747D01*
X60824Y-43747D01*
X60533Y-44088D02*
X60467Y-43994D01*
X60420Y-44088D02*
X60420Y-43891D01*
X60495Y-43891D01*
X60514Y-43900D01*
X60524Y-43909D01*
X60533Y-43928D01*
X60533Y-43956D01*
X60524Y-43975D01*
X60514Y-43984D01*
X60495Y-43994D01*
X60420Y-43994D01*
X58677Y-43852D02*
X58611Y-43758D01*
X58564Y-43852D02*
X58564Y-43655D01*
X58639Y-43655D01*
X58658Y-43664D01*
X58667Y-43674D01*
X58677Y-43692D01*
X58677Y-43721D01*
X58667Y-43739D01*
X58658Y-43749D01*
X58639Y-43758D01*
X58564Y-43758D01*
X58742Y-43655D02*
X58864Y-43655D01*
X58799Y-43730D01*
X58827Y-43730D01*
X58846Y-43739D01*
X58855Y-43749D01*
X58864Y-43767D01*
X58864Y-43814D01*
X58855Y-43833D01*
X58846Y-43842D01*
X58827Y-43852D01*
X58770Y-43852D01*
X58752Y-43842D01*
X58742Y-43833D01*
X58986Y-43655D02*
X59005Y-43655D01*
X59024Y-43664D01*
X59033Y-43674D01*
X59043Y-43692D01*
X59052Y-43730D01*
X59052Y-43777D01*
X59043Y-43814D01*
X59033Y-43833D01*
X59024Y-43842D01*
X59005Y-43852D01*
X58986Y-43852D01*
X58967Y-43842D01*
X58958Y-43833D01*
X58949Y-43814D01*
X58939Y-43777D01*
X58939Y-43730D01*
X58949Y-43692D01*
X58958Y-43674D01*
X58967Y-43664D01*
X58986Y-43655D01*
X59118Y-43655D02*
X59240Y-43655D01*
X59174Y-43730D01*
X59202Y-43730D01*
X59221Y-43739D01*
X59230Y-43749D01*
X59240Y-43767D01*
X59240Y-43814D01*
X59230Y-43833D01*
X59221Y-43842D01*
X59202Y-43852D01*
X59146Y-43852D01*
X59127Y-43842D01*
X59118Y-43833D01*
X58958Y-44127D02*
X58892Y-44033D01*
X58846Y-44127D02*
X58846Y-43930D01*
X58921Y-43930D01*
X58939Y-43939D01*
X58949Y-43949D01*
X58958Y-43967D01*
X58958Y-43996D01*
X58949Y-44014D01*
X58939Y-44024D01*
X58921Y-44033D01*
X58846Y-44033D01*
X40921Y-25584D02*
X40855Y-25490D01*
X40808Y-25584D02*
X40808Y-25387D01*
X40883Y-25387D01*
X40902Y-25397D01*
X40911Y-25406D01*
X40921Y-25425D01*
X40921Y-25453D01*
X40911Y-25472D01*
X40902Y-25481D01*
X40883Y-25490D01*
X40808Y-25490D01*
X41108Y-25584D02*
X40996Y-25584D01*
X41052Y-25584D02*
X41052Y-25387D01*
X41033Y-25415D01*
X41015Y-25434D01*
X40996Y-25443D01*
X41230Y-25387D02*
X41249Y-25387D01*
X41268Y-25397D01*
X41277Y-25406D01*
X41287Y-25425D01*
X41296Y-25462D01*
X41296Y-25509D01*
X41287Y-25547D01*
X41277Y-25565D01*
X41268Y-25575D01*
X41249Y-25584D01*
X41230Y-25584D01*
X41212Y-25575D01*
X41202Y-25565D01*
X41193Y-25547D01*
X41183Y-25509D01*
X41183Y-25462D01*
X41193Y-25425D01*
X41202Y-25406D01*
X41212Y-25397D01*
X41230Y-25387D01*
X41362Y-25387D02*
X41484Y-25387D01*
X41418Y-25462D01*
X41446Y-25462D01*
X41465Y-25472D01*
X41474Y-25481D01*
X41484Y-25500D01*
X41484Y-25547D01*
X41474Y-25565D01*
X41465Y-25575D01*
X41446Y-25584D01*
X41390Y-25584D01*
X41371Y-25575D01*
X41362Y-25565D01*
X40808Y-25662D02*
X40930Y-25662D01*
X40864Y-25737D01*
X40893Y-25737D01*
X40911Y-25747D01*
X40921Y-25756D01*
X40930Y-25775D01*
X40930Y-25822D01*
X40921Y-25840D01*
X40911Y-25850D01*
X40893Y-25859D01*
X40836Y-25859D01*
X40818Y-25850D01*
X40808Y-25840D01*
X41015Y-25859D02*
X41015Y-25662D01*
X41033Y-25784D02*
X41090Y-25859D01*
X41090Y-25728D02*
X41015Y-25803D01*
X41202Y-25747D02*
X41183Y-25737D01*
X41174Y-25728D01*
X41165Y-25709D01*
X41165Y-25700D01*
X41174Y-25681D01*
X41183Y-25672D01*
X41202Y-25662D01*
X41240Y-25662D01*
X41258Y-25672D01*
X41268Y-25681D01*
X41277Y-25700D01*
X41277Y-25709D01*
X41268Y-25728D01*
X41258Y-25737D01*
X41240Y-25747D01*
X41202Y-25747D01*
X41183Y-25756D01*
X41174Y-25765D01*
X41165Y-25784D01*
X41165Y-25822D01*
X41174Y-25840D01*
X41183Y-25850D01*
X41202Y-25859D01*
X41240Y-25859D01*
X41258Y-25850D01*
X41268Y-25840D01*
X41277Y-25822D01*
X41277Y-25784D01*
X41268Y-25765D01*
X41258Y-25756D01*
X41240Y-25747D01*
X41455Y-25662D02*
X41362Y-25662D01*
X41352Y-25756D01*
X41362Y-25747D01*
X41380Y-25737D01*
X41427Y-25737D01*
X41446Y-25747D01*
X41455Y-25756D01*
X41465Y-25775D01*
X41465Y-25822D01*
X41455Y-25840D01*
X41446Y-25850D01*
X41427Y-25859D01*
X41380Y-25859D01*
X41362Y-25850D01*
X41352Y-25840D01*
X48498Y-25496D02*
X48404Y-25561D01*
X48498Y-25608D02*
X48301Y-25608D01*
X48301Y-25533D01*
X48310Y-25514D01*
X48319Y-25505D01*
X48338Y-25496D01*
X48366Y-25496D01*
X48385Y-25505D01*
X48394Y-25514D01*
X48404Y-25533D01*
X48404Y-25608D01*
X48498Y-25308D02*
X48498Y-25420D01*
X48498Y-25364D02*
X48301Y-25364D01*
X48329Y-25383D01*
X48347Y-25402D01*
X48357Y-25420D01*
X48301Y-25186D02*
X48301Y-25167D01*
X48310Y-25148D01*
X48319Y-25139D01*
X48338Y-25130D01*
X48376Y-25120D01*
X48422Y-25120D01*
X48460Y-25130D01*
X48479Y-25139D01*
X48488Y-25148D01*
X48498Y-25167D01*
X48498Y-25186D01*
X48488Y-25205D01*
X48479Y-25214D01*
X48460Y-25223D01*
X48422Y-25233D01*
X48376Y-25233D01*
X48338Y-25223D01*
X48319Y-25214D01*
X48310Y-25205D01*
X48301Y-25186D01*
X48319Y-25045D02*
X48310Y-25036D01*
X48301Y-25017D01*
X48301Y-24970D01*
X48310Y-24951D01*
X48319Y-24942D01*
X48338Y-24933D01*
X48357Y-24933D01*
X48385Y-24942D01*
X48498Y-25055D01*
X48498Y-24933D01*
X48773Y-25392D02*
X48773Y-25505D01*
X48773Y-25449D02*
X48576Y-25449D01*
X48604Y-25467D01*
X48622Y-25486D01*
X48632Y-25505D01*
X48576Y-25270D02*
X48576Y-25252D01*
X48585Y-25233D01*
X48594Y-25223D01*
X48613Y-25214D01*
X48651Y-25205D01*
X48697Y-25205D01*
X48735Y-25214D01*
X48754Y-25223D01*
X48763Y-25233D01*
X48773Y-25252D01*
X48773Y-25270D01*
X48763Y-25289D01*
X48754Y-25299D01*
X48735Y-25308D01*
X48697Y-25317D01*
X48651Y-25317D01*
X48613Y-25308D01*
X48594Y-25299D01*
X48585Y-25289D01*
X48576Y-25270D01*
X48773Y-25120D02*
X48576Y-25120D01*
X48697Y-25102D02*
X48773Y-25045D01*
X48641Y-25045D02*
X48716Y-25120D01*
X47181Y-25624D02*
X47115Y-25530D01*
X47068Y-25624D02*
X47068Y-25427D01*
X47143Y-25427D01*
X47162Y-25436D01*
X47171Y-25445D01*
X47181Y-25464D01*
X47181Y-25492D01*
X47171Y-25511D01*
X47162Y-25520D01*
X47143Y-25530D01*
X47068Y-25530D01*
X47368Y-25624D02*
X47256Y-25624D01*
X47312Y-25624D02*
X47312Y-25427D01*
X47293Y-25455D01*
X47274Y-25473D01*
X47256Y-25483D01*
X47490Y-25427D02*
X47509Y-25427D01*
X47528Y-25436D01*
X47537Y-25445D01*
X47546Y-25464D01*
X47556Y-25502D01*
X47556Y-25548D01*
X47546Y-25586D01*
X47537Y-25605D01*
X47528Y-25614D01*
X47509Y-25624D01*
X47490Y-25624D01*
X47471Y-25614D01*
X47462Y-25605D01*
X47453Y-25586D01*
X47443Y-25548D01*
X47443Y-25502D01*
X47453Y-25464D01*
X47462Y-25445D01*
X47471Y-25436D01*
X47490Y-25427D01*
X47743Y-25624D02*
X47631Y-25624D01*
X47687Y-25624D02*
X47687Y-25427D01*
X47668Y-25455D01*
X47650Y-25473D01*
X47631Y-25483D01*
X47096Y-25899D02*
X46984Y-25899D01*
X47040Y-25899D02*
X47040Y-25702D01*
X47021Y-25730D01*
X47002Y-25748D01*
X46984Y-25758D01*
X47181Y-25899D02*
X47181Y-25702D01*
X47199Y-25823D02*
X47256Y-25899D01*
X47256Y-25767D02*
X47181Y-25842D01*
X47378Y-25702D02*
X47396Y-25702D01*
X47415Y-25711D01*
X47425Y-25720D01*
X47434Y-25739D01*
X47443Y-25777D01*
X47443Y-25823D01*
X47434Y-25861D01*
X47425Y-25880D01*
X47415Y-25889D01*
X47396Y-25899D01*
X47378Y-25899D01*
X47359Y-25889D01*
X47349Y-25880D01*
X47340Y-25861D01*
X47331Y-25823D01*
X47331Y-25777D01*
X47340Y-25739D01*
X47349Y-25720D01*
X47359Y-25711D01*
X47378Y-25702D01*
X47518Y-25720D02*
X47528Y-25711D01*
X47546Y-25702D01*
X47593Y-25702D01*
X47612Y-25711D01*
X47622Y-25720D01*
X47631Y-25739D01*
X47631Y-25758D01*
X47622Y-25786D01*
X47509Y-25899D01*
X47631Y-25899D01*
X47819Y-25899D02*
X47706Y-25899D01*
X47762Y-25899D02*
X47762Y-25702D01*
X47743Y-25730D01*
X47725Y-25748D01*
X47706Y-25758D01*
X60860Y-40259D02*
X60766Y-40325D01*
X60860Y-40372D02*
X60663Y-40372D01*
X60663Y-40297D01*
X60672Y-40278D01*
X60682Y-40269D01*
X60700Y-40259D01*
X60728Y-40259D01*
X60747Y-40269D01*
X60757Y-40278D01*
X60766Y-40297D01*
X60766Y-40372D01*
X60682Y-40184D02*
X60672Y-40175D01*
X60663Y-40156D01*
X60663Y-40109D01*
X60672Y-40090D01*
X60682Y-40081D01*
X60700Y-40072D01*
X60719Y-40072D01*
X60747Y-40081D01*
X60860Y-40194D01*
X60860Y-40072D01*
X60663Y-39950D02*
X60663Y-39931D01*
X60672Y-39912D01*
X60682Y-39903D01*
X60700Y-39893D01*
X60738Y-39884D01*
X60785Y-39884D01*
X60822Y-39893D01*
X60841Y-39903D01*
X60850Y-39912D01*
X60860Y-39931D01*
X60860Y-39950D01*
X60850Y-39969D01*
X60841Y-39978D01*
X60822Y-39987D01*
X60785Y-39997D01*
X60738Y-39997D01*
X60700Y-39987D01*
X60682Y-39978D01*
X60672Y-39969D01*
X60663Y-39950D01*
X60663Y-39715D02*
X60663Y-39753D01*
X60672Y-39772D01*
X60682Y-39781D01*
X60710Y-39800D01*
X60747Y-39809D01*
X60822Y-39809D01*
X60841Y-39800D01*
X60850Y-39790D01*
X60860Y-39772D01*
X60860Y-39734D01*
X60850Y-39715D01*
X60841Y-39706D01*
X60822Y-39696D01*
X60775Y-39696D01*
X60757Y-39706D01*
X60747Y-39715D01*
X60738Y-39734D01*
X60738Y-39772D01*
X60747Y-39790D01*
X60757Y-39800D01*
X60775Y-39809D01*
X61135Y-39978D02*
X61041Y-40044D01*
X61135Y-40090D02*
X60938Y-40090D01*
X60938Y-40015D01*
X60947Y-39997D01*
X60957Y-39987D01*
X60975Y-39978D01*
X61003Y-39978D01*
X61022Y-39987D01*
X61032Y-39997D01*
X61041Y-40015D01*
X61041Y-40090D01*
X60212Y-31490D02*
X60146Y-31396D01*
X60100Y-31490D02*
X60100Y-31293D01*
X60175Y-31293D01*
X60193Y-31302D01*
X60203Y-31311D01*
X60212Y-31330D01*
X60212Y-31358D01*
X60203Y-31377D01*
X60193Y-31386D01*
X60175Y-31396D01*
X60100Y-31396D01*
X60287Y-31311D02*
X60297Y-31302D01*
X60315Y-31293D01*
X60362Y-31293D01*
X60381Y-31302D01*
X60390Y-31311D01*
X60400Y-31330D01*
X60400Y-31349D01*
X60390Y-31377D01*
X60278Y-31490D01*
X60400Y-31490D01*
X60522Y-31293D02*
X60540Y-31293D01*
X60559Y-31302D01*
X60569Y-31311D01*
X60578Y-31330D01*
X60587Y-31368D01*
X60587Y-31415D01*
X60578Y-31452D01*
X60569Y-31471D01*
X60559Y-31480D01*
X60540Y-31490D01*
X60522Y-31490D01*
X60503Y-31480D01*
X60494Y-31471D01*
X60484Y-31452D01*
X60475Y-31415D01*
X60475Y-31368D01*
X60484Y-31330D01*
X60494Y-31311D01*
X60503Y-31302D01*
X60522Y-31293D01*
X60756Y-31358D02*
X60756Y-31490D01*
X60709Y-31283D02*
X60662Y-31424D01*
X60784Y-31424D01*
X60494Y-31765D02*
X60428Y-31671D01*
X60381Y-31765D02*
X60381Y-31568D01*
X60456Y-31568D01*
X60475Y-31577D01*
X60484Y-31586D01*
X60494Y-31605D01*
X60494Y-31633D01*
X60484Y-31652D01*
X60475Y-31661D01*
X60456Y-31671D01*
X60381Y-31671D01*
X58795Y-31529D02*
X58729Y-31435D01*
X58682Y-31529D02*
X58682Y-31332D01*
X58757Y-31332D01*
X58776Y-31341D01*
X58785Y-31351D01*
X58795Y-31370D01*
X58795Y-31398D01*
X58785Y-31416D01*
X58776Y-31426D01*
X58757Y-31435D01*
X58682Y-31435D01*
X58870Y-31351D02*
X58879Y-31341D01*
X58898Y-31332D01*
X58945Y-31332D01*
X58964Y-31341D01*
X58973Y-31351D01*
X58982Y-31370D01*
X58982Y-31388D01*
X58973Y-31416D01*
X58860Y-31529D01*
X58982Y-31529D01*
X59104Y-31332D02*
X59123Y-31332D01*
X59142Y-31341D01*
X59151Y-31351D01*
X59161Y-31370D01*
X59170Y-31407D01*
X59170Y-31454D01*
X59161Y-31492D01*
X59151Y-31510D01*
X59142Y-31520D01*
X59123Y-31529D01*
X59104Y-31529D01*
X59086Y-31520D01*
X59076Y-31510D01*
X59067Y-31492D01*
X59057Y-31454D01*
X59057Y-31407D01*
X59067Y-31370D01*
X59076Y-31351D01*
X59086Y-31341D01*
X59104Y-31332D01*
X59236Y-31332D02*
X59358Y-31332D01*
X59292Y-31407D01*
X59320Y-31407D01*
X59339Y-31416D01*
X59348Y-31426D01*
X59358Y-31445D01*
X59358Y-31492D01*
X59348Y-31510D01*
X59339Y-31520D01*
X59320Y-31529D01*
X59264Y-31529D01*
X59245Y-31520D01*
X59236Y-31510D01*
X59076Y-31804D02*
X59011Y-31710D01*
X58964Y-31804D02*
X58964Y-31607D01*
X59039Y-31607D01*
X59057Y-31616D01*
X59067Y-31626D01*
X59076Y-31645D01*
X59076Y-31673D01*
X59067Y-31691D01*
X59057Y-31701D01*
X59039Y-31710D01*
X58964Y-31710D01*
G54D14*
X47849Y-38681D02*
X47849Y-38281D01*
X48077Y-38681D02*
X47906Y-38453D01*
X48077Y-38281D02*
X47849Y-38510D01*
X48458Y-38681D02*
X48229Y-38681D01*
X48344Y-38681D02*
X48344Y-38281D01*
X48306Y-38339D01*
X48268Y-38377D01*
X48229Y-38396D01*
X48706Y-38281D02*
X48744Y-38281D01*
X48782Y-38301D01*
X48801Y-38320D01*
X48820Y-38358D01*
X48839Y-38434D01*
X48839Y-38529D01*
X48820Y-38605D01*
X48801Y-38643D01*
X48782Y-38662D01*
X48744Y-38681D01*
X48706Y-38681D01*
X48668Y-38662D01*
X48649Y-38643D01*
X48629Y-38605D01*
X48610Y-38529D01*
X48610Y-38434D01*
X48629Y-38358D01*
X48649Y-38320D01*
X48668Y-38301D01*
X48706Y-38281D01*
X48991Y-38320D02*
X49010Y-38301D01*
X49049Y-38281D01*
X49144Y-38281D01*
X49182Y-38301D01*
X49201Y-38320D01*
X49220Y-38358D01*
X49220Y-38396D01*
X49201Y-38453D01*
X48972Y-38681D01*
X49220Y-38681D01*
X47849Y-39705D02*
X47849Y-39305D01*
X48077Y-39705D02*
X47906Y-39477D01*
X48077Y-39305D02*
X47849Y-39534D01*
X48458Y-39705D02*
X48229Y-39705D01*
X48344Y-39705D02*
X48344Y-39305D01*
X48306Y-39362D01*
X48268Y-39400D01*
X48229Y-39419D01*
X48706Y-39305D02*
X48744Y-39305D01*
X48782Y-39324D01*
X48801Y-39343D01*
X48820Y-39381D01*
X48839Y-39457D01*
X48839Y-39553D01*
X48820Y-39629D01*
X48801Y-39667D01*
X48782Y-39686D01*
X48744Y-39705D01*
X48706Y-39705D01*
X48668Y-39686D01*
X48649Y-39667D01*
X48629Y-39629D01*
X48610Y-39553D01*
X48610Y-39457D01*
X48629Y-39381D01*
X48649Y-39343D01*
X48668Y-39324D01*
X48706Y-39305D01*
X49220Y-39705D02*
X48991Y-39705D01*
X49106Y-39705D02*
X49106Y-39305D01*
X49068Y-39362D01*
X49029Y-39400D01*
X48991Y-39419D01*
G54D10*
X43584Y-50547D02*
X43190Y-50547D01*
X43584Y-50322D02*
X43359Y-50491D01*
X43190Y-50322D02*
X43415Y-50547D01*
X43584Y-49947D02*
X43584Y-50172D01*
X43584Y-50059D02*
X43190Y-50059D01*
X43247Y-50097D01*
X43284Y-50134D01*
X43303Y-50172D01*
X43190Y-49703D02*
X43190Y-49666D01*
X43209Y-49628D01*
X43228Y-49610D01*
X43265Y-49591D01*
X43340Y-49572D01*
X43434Y-49572D01*
X43509Y-49591D01*
X43547Y-49610D01*
X43565Y-49628D01*
X43584Y-49666D01*
X43584Y-49703D01*
X43565Y-49741D01*
X43547Y-49760D01*
X43509Y-49778D01*
X43434Y-49797D01*
X43340Y-49797D01*
X43265Y-49778D01*
X43228Y-49760D01*
X43209Y-49741D01*
X43190Y-49703D01*
X43190Y-49216D02*
X43190Y-49403D01*
X43378Y-49422D01*
X43359Y-49403D01*
X43340Y-49366D01*
X43340Y-49272D01*
X43359Y-49235D01*
X43378Y-49216D01*
X43415Y-49197D01*
X43509Y-49197D01*
X43547Y-49216D01*
X43565Y-49235D01*
X43584Y-49272D01*
X43584Y-49366D01*
X43565Y-49403D01*
X43547Y-49422D01*
X43545Y-57379D02*
X43357Y-57510D01*
X43545Y-57604D02*
X43151Y-57604D01*
X43151Y-57454D01*
X43170Y-57416D01*
X43188Y-57397D01*
X43226Y-57379D01*
X43282Y-57379D01*
X43320Y-57397D01*
X43338Y-57416D01*
X43357Y-57454D01*
X43357Y-57604D01*
X43338Y-57210D02*
X43338Y-57079D01*
X43545Y-57022D02*
X43545Y-57210D01*
X43151Y-57210D01*
X43151Y-57022D01*
X43545Y-56666D02*
X43545Y-56854D01*
X43151Y-56854D01*
X43432Y-56554D02*
X43432Y-56366D01*
X43545Y-56591D02*
X43151Y-56460D01*
X43545Y-56329D01*
X43357Y-56122D02*
X43545Y-56122D01*
X43151Y-56254D02*
X43357Y-56122D01*
X43151Y-55991D01*
X43582Y-55954D02*
X43582Y-55654D01*
X43545Y-55354D02*
X43545Y-55579D01*
X43545Y-55466D02*
X43151Y-55466D01*
X43207Y-55504D01*
X43245Y-55541D01*
X43263Y-55579D01*
X43545Y-54960D02*
X43357Y-55091D01*
X43545Y-55185D02*
X43151Y-55185D01*
X43151Y-55035D01*
X43170Y-54998D01*
X43188Y-54979D01*
X43226Y-54960D01*
X43282Y-54960D01*
X43320Y-54979D01*
X43338Y-54998D01*
X43357Y-55035D01*
X43357Y-55185D01*
X43151Y-54848D02*
X43151Y-54623D01*
X43545Y-54735D02*
X43151Y-54735D01*
X50356Y-50547D02*
X49962Y-50547D01*
X50356Y-50322D02*
X50131Y-50491D01*
X49962Y-50322D02*
X50187Y-50547D01*
X50356Y-49947D02*
X50356Y-50172D01*
X50356Y-50059D02*
X49962Y-50059D01*
X50018Y-50097D01*
X50056Y-50134D01*
X50074Y-50172D01*
X49962Y-49703D02*
X49962Y-49666D01*
X49981Y-49628D01*
X50000Y-49610D01*
X50037Y-49591D01*
X50112Y-49572D01*
X50206Y-49572D01*
X50281Y-49591D01*
X50318Y-49610D01*
X50337Y-49628D01*
X50356Y-49666D01*
X50356Y-49703D01*
X50337Y-49741D01*
X50318Y-49760D01*
X50281Y-49778D01*
X50206Y-49797D01*
X50112Y-49797D01*
X50037Y-49778D01*
X50000Y-49760D01*
X49981Y-49741D01*
X49962Y-49703D01*
X49962Y-49441D02*
X49962Y-49197D01*
X50112Y-49328D01*
X50112Y-49272D01*
X50131Y-49235D01*
X50149Y-49216D01*
X50187Y-49197D01*
X50281Y-49197D01*
X50318Y-49216D01*
X50337Y-49235D01*
X50356Y-49272D01*
X50356Y-49385D01*
X50337Y-49422D01*
X50318Y-49441D01*
X50316Y-57379D02*
X50129Y-57510D01*
X50316Y-57604D02*
X49923Y-57604D01*
X49923Y-57454D01*
X49941Y-57416D01*
X49960Y-57397D01*
X49998Y-57379D01*
X50054Y-57379D01*
X50091Y-57397D01*
X50110Y-57416D01*
X50129Y-57454D01*
X50129Y-57604D01*
X50110Y-57210D02*
X50110Y-57079D01*
X50316Y-57022D02*
X50316Y-57210D01*
X49923Y-57210D01*
X49923Y-57022D01*
X50316Y-56666D02*
X50316Y-56854D01*
X49923Y-56854D01*
X50204Y-56554D02*
X50204Y-56366D01*
X50316Y-56591D02*
X49923Y-56460D01*
X50316Y-56329D01*
X50129Y-56122D02*
X50316Y-56122D01*
X49923Y-56254D02*
X50129Y-56122D01*
X49923Y-55991D01*
X50354Y-55954D02*
X50354Y-55654D01*
X50316Y-55354D02*
X50316Y-55579D01*
X50316Y-55466D02*
X49923Y-55466D01*
X49979Y-55504D01*
X50016Y-55541D01*
X50035Y-55579D01*
X50316Y-54960D02*
X50129Y-55091D01*
X50316Y-55185D02*
X49923Y-55185D01*
X49923Y-55035D01*
X49941Y-54998D01*
X49960Y-54979D01*
X49998Y-54960D01*
X50054Y-54960D01*
X50091Y-54979D01*
X50110Y-54998D01*
X50129Y-55035D01*
X50129Y-55185D01*
X49923Y-54848D02*
X49923Y-54623D01*
X50316Y-54735D02*
X49923Y-54735D01*
X58625Y-51267D02*
X58644Y-51286D01*
X58663Y-51342D01*
X58663Y-51379D01*
X58644Y-51436D01*
X58607Y-51473D01*
X58569Y-51492D01*
X58494Y-51511D01*
X58438Y-51511D01*
X58363Y-51492D01*
X58325Y-51473D01*
X58288Y-51436D01*
X58269Y-51379D01*
X58269Y-51342D01*
X58288Y-51286D01*
X58307Y-51267D01*
X58663Y-50892D02*
X58663Y-51117D01*
X58663Y-51004D02*
X58269Y-51004D01*
X58325Y-51042D01*
X58363Y-51079D01*
X58382Y-51117D01*
X58269Y-50648D02*
X58269Y-50611D01*
X58288Y-50573D01*
X58307Y-50554D01*
X58344Y-50536D01*
X58419Y-50517D01*
X58513Y-50517D01*
X58588Y-50536D01*
X58625Y-50554D01*
X58644Y-50573D01*
X58663Y-50611D01*
X58663Y-50648D01*
X58644Y-50686D01*
X58625Y-50704D01*
X58588Y-50723D01*
X58513Y-50742D01*
X58419Y-50742D01*
X58344Y-50723D01*
X58307Y-50704D01*
X58288Y-50686D01*
X58269Y-50648D01*
X58663Y-50142D02*
X58663Y-50367D01*
X58663Y-50254D02*
X58269Y-50254D01*
X58325Y-50292D01*
X58363Y-50329D01*
X58382Y-50367D01*
X54490Y-51503D02*
X54490Y-51728D01*
X54490Y-51616D02*
X54096Y-51616D01*
X54152Y-51653D01*
X54190Y-51691D01*
X54208Y-51728D01*
X54096Y-51259D02*
X54096Y-51222D01*
X54115Y-51184D01*
X54133Y-51166D01*
X54171Y-51147D01*
X54246Y-51128D01*
X54340Y-51128D01*
X54415Y-51147D01*
X54452Y-51166D01*
X54471Y-51184D01*
X54490Y-51222D01*
X54490Y-51259D01*
X54471Y-51297D01*
X54452Y-51316D01*
X54415Y-51334D01*
X54340Y-51353D01*
X54246Y-51353D01*
X54171Y-51334D01*
X54133Y-51316D01*
X54115Y-51297D01*
X54096Y-51259D01*
X54096Y-50884D02*
X54096Y-50847D01*
X54115Y-50809D01*
X54133Y-50791D01*
X54171Y-50772D01*
X54246Y-50753D01*
X54340Y-50753D01*
X54415Y-50772D01*
X54452Y-50791D01*
X54471Y-50809D01*
X54490Y-50847D01*
X54490Y-50884D01*
X54471Y-50922D01*
X54452Y-50941D01*
X54415Y-50959D01*
X54340Y-50978D01*
X54246Y-50978D01*
X54171Y-50959D01*
X54133Y-50941D01*
X54115Y-50922D01*
X54096Y-50884D01*
X54227Y-50416D02*
X54490Y-50416D01*
X54227Y-50584D02*
X54433Y-50584D01*
X54471Y-50566D01*
X54490Y-50528D01*
X54490Y-50472D01*
X54471Y-50434D01*
X54452Y-50416D01*
X55639Y-48693D02*
X55639Y-48393D01*
X55789Y-48543D02*
X55489Y-48543D01*
X54413Y-33353D02*
X54431Y-33372D01*
X54450Y-33428D01*
X54450Y-33466D01*
X54431Y-33522D01*
X54394Y-33560D01*
X54356Y-33578D01*
X54281Y-33597D01*
X54225Y-33597D01*
X54150Y-33578D01*
X54113Y-33560D01*
X54075Y-33522D01*
X54056Y-33466D01*
X54056Y-33428D01*
X54075Y-33372D01*
X54094Y-33353D01*
X54094Y-33203D02*
X54075Y-33185D01*
X54056Y-33147D01*
X54056Y-33053D01*
X54075Y-33016D01*
X54094Y-32997D01*
X54131Y-32979D01*
X54169Y-32979D01*
X54225Y-32997D01*
X54450Y-33222D01*
X54450Y-32979D01*
X54056Y-32735D02*
X54056Y-32697D01*
X54075Y-32660D01*
X54094Y-32641D01*
X54131Y-32622D01*
X54206Y-32604D01*
X54300Y-32604D01*
X54375Y-32622D01*
X54413Y-32641D01*
X54431Y-32660D01*
X54450Y-32697D01*
X54450Y-32735D01*
X54431Y-32772D01*
X54413Y-32791D01*
X54375Y-32810D01*
X54300Y-32829D01*
X54206Y-32829D01*
X54131Y-32810D01*
X54094Y-32791D01*
X54075Y-32772D01*
X54056Y-32735D01*
X54056Y-32266D02*
X54056Y-32341D01*
X54075Y-32379D01*
X54094Y-32397D01*
X54150Y-32435D01*
X54225Y-32454D01*
X54375Y-32454D01*
X54413Y-32435D01*
X54431Y-32416D01*
X54450Y-32379D01*
X54450Y-32304D01*
X54431Y-32266D01*
X54413Y-32247D01*
X54375Y-32229D01*
X54281Y-32229D01*
X54244Y-32247D01*
X54225Y-32266D01*
X54206Y-32304D01*
X54206Y-32379D01*
X54225Y-32416D01*
X54244Y-32435D01*
X54281Y-32454D01*
X58623Y-33117D02*
X58623Y-33342D01*
X58623Y-33230D02*
X58230Y-33230D01*
X58286Y-33267D01*
X58323Y-33305D01*
X58342Y-33342D01*
X58230Y-32874D02*
X58230Y-32836D01*
X58248Y-32799D01*
X58267Y-32780D01*
X58305Y-32761D01*
X58380Y-32742D01*
X58473Y-32742D01*
X58548Y-32761D01*
X58586Y-32780D01*
X58605Y-32799D01*
X58623Y-32836D01*
X58623Y-32874D01*
X58605Y-32911D01*
X58586Y-32930D01*
X58548Y-32949D01*
X58473Y-32967D01*
X58380Y-32967D01*
X58305Y-32949D01*
X58267Y-32930D01*
X58248Y-32911D01*
X58230Y-32874D01*
X58230Y-32499D02*
X58230Y-32461D01*
X58248Y-32424D01*
X58267Y-32405D01*
X58305Y-32386D01*
X58380Y-32367D01*
X58473Y-32367D01*
X58548Y-32386D01*
X58586Y-32405D01*
X58605Y-32424D01*
X58623Y-32461D01*
X58623Y-32499D01*
X58605Y-32536D01*
X58586Y-32555D01*
X58548Y-32574D01*
X58473Y-32592D01*
X58380Y-32592D01*
X58305Y-32574D01*
X58267Y-32555D01*
X58248Y-32536D01*
X58230Y-32499D01*
X58361Y-32030D02*
X58623Y-32030D01*
X58361Y-32199D02*
X58567Y-32199D01*
X58605Y-32180D01*
X58623Y-32142D01*
X58623Y-32086D01*
X58605Y-32049D01*
X58586Y-32030D01*
X57174Y-35346D02*
X57174Y-35046D01*
X57324Y-35196D02*
X57024Y-35196D01*
X61606Y-29334D02*
X61587Y-29353D01*
X61531Y-29371D01*
X61494Y-29371D01*
X61437Y-29353D01*
X61400Y-29315D01*
X61381Y-29278D01*
X61362Y-29203D01*
X61362Y-29146D01*
X61381Y-29071D01*
X61400Y-29034D01*
X61437Y-28997D01*
X61494Y-28978D01*
X61531Y-28978D01*
X61587Y-28997D01*
X61606Y-29015D01*
X61756Y-29015D02*
X61775Y-28997D01*
X61812Y-28978D01*
X61906Y-28978D01*
X61944Y-28997D01*
X61962Y-29015D01*
X61981Y-29053D01*
X61981Y-29090D01*
X61962Y-29146D01*
X61737Y-29371D01*
X61981Y-29371D01*
X62225Y-28978D02*
X62262Y-28978D01*
X62300Y-28997D01*
X62319Y-29015D01*
X62337Y-29053D01*
X62356Y-29128D01*
X62356Y-29221D01*
X62337Y-29296D01*
X62319Y-29334D01*
X62300Y-29353D01*
X62262Y-29371D01*
X62225Y-29371D01*
X62187Y-29353D01*
X62169Y-29334D01*
X62150Y-29296D01*
X62131Y-29221D01*
X62131Y-29128D01*
X62150Y-29053D01*
X62169Y-29015D01*
X62187Y-28997D01*
X62225Y-28978D01*
X62487Y-28978D02*
X62750Y-28978D01*
X62581Y-29371D01*
X61370Y-25198D02*
X61145Y-25198D01*
X61257Y-25198D02*
X61257Y-24805D01*
X61220Y-24861D01*
X61182Y-24898D01*
X61145Y-24917D01*
X61614Y-24805D02*
X61651Y-24805D01*
X61689Y-24823D01*
X61707Y-24842D01*
X61726Y-24880D01*
X61745Y-24955D01*
X61745Y-25048D01*
X61726Y-25123D01*
X61707Y-25161D01*
X61689Y-25179D01*
X61651Y-25198D01*
X61614Y-25198D01*
X61576Y-25179D01*
X61557Y-25161D01*
X61539Y-25123D01*
X61520Y-25048D01*
X61520Y-24955D01*
X61539Y-24880D01*
X61557Y-24842D01*
X61576Y-24823D01*
X61614Y-24805D01*
X61989Y-24805D02*
X62026Y-24805D01*
X62064Y-24823D01*
X62082Y-24842D01*
X62101Y-24880D01*
X62120Y-24955D01*
X62120Y-25048D01*
X62101Y-25123D01*
X62082Y-25161D01*
X62064Y-25179D01*
X62026Y-25198D01*
X61989Y-25198D01*
X61951Y-25179D01*
X61932Y-25161D01*
X61914Y-25123D01*
X61895Y-25048D01*
X61895Y-24955D01*
X61914Y-24880D01*
X61932Y-24842D01*
X61951Y-24823D01*
X61989Y-24805D01*
X62457Y-24936D02*
X62457Y-25198D01*
X62289Y-24936D02*
X62289Y-25142D01*
X62307Y-25179D01*
X62345Y-25198D01*
X62401Y-25198D01*
X62439Y-25179D01*
X62457Y-25161D01*
X64180Y-26347D02*
X64480Y-26347D01*
X64330Y-26497D02*
X64330Y-26197D01*
X54531Y-46306D02*
X54550Y-46325D01*
X54568Y-46381D01*
X54568Y-46419D01*
X54550Y-46475D01*
X54512Y-46512D01*
X54475Y-46531D01*
X54400Y-46550D01*
X54343Y-46550D01*
X54268Y-46531D01*
X54231Y-46512D01*
X54193Y-46475D01*
X54175Y-46419D01*
X54175Y-46381D01*
X54193Y-46325D01*
X54212Y-46306D01*
X54175Y-46175D02*
X54175Y-45931D01*
X54325Y-46062D01*
X54325Y-46006D01*
X54343Y-45969D01*
X54362Y-45950D01*
X54400Y-45931D01*
X54493Y-45931D01*
X54531Y-45950D01*
X54550Y-45969D01*
X54568Y-46006D01*
X54568Y-46119D01*
X54550Y-46156D01*
X54531Y-46175D01*
X54175Y-45688D02*
X54175Y-45650D01*
X54193Y-45613D01*
X54212Y-45594D01*
X54250Y-45575D01*
X54325Y-45556D01*
X54418Y-45556D01*
X54493Y-45575D01*
X54531Y-45594D01*
X54550Y-45613D01*
X54568Y-45650D01*
X54568Y-45688D01*
X54550Y-45725D01*
X54531Y-45744D01*
X54493Y-45763D01*
X54418Y-45781D01*
X54325Y-45781D01*
X54250Y-45763D01*
X54212Y-45744D01*
X54193Y-45725D01*
X54175Y-45688D01*
X54175Y-45219D02*
X54175Y-45294D01*
X54193Y-45331D01*
X54212Y-45350D01*
X54268Y-45388D01*
X54343Y-45406D01*
X54493Y-45406D01*
X54531Y-45388D01*
X54550Y-45369D01*
X54568Y-45331D01*
X54568Y-45256D01*
X54550Y-45219D01*
X54531Y-45200D01*
X54493Y-45181D01*
X54400Y-45181D01*
X54362Y-45200D01*
X54343Y-45219D01*
X54325Y-45256D01*
X54325Y-45331D01*
X54343Y-45369D01*
X54362Y-45388D01*
X54400Y-45406D01*
X58742Y-46070D02*
X58742Y-46295D01*
X58742Y-46182D02*
X58348Y-46182D01*
X58404Y-46220D01*
X58442Y-46257D01*
X58460Y-46295D01*
X58348Y-45826D02*
X58348Y-45789D01*
X58367Y-45751D01*
X58385Y-45733D01*
X58423Y-45714D01*
X58498Y-45695D01*
X58592Y-45695D01*
X58667Y-45714D01*
X58704Y-45733D01*
X58723Y-45751D01*
X58742Y-45789D01*
X58742Y-45826D01*
X58723Y-45864D01*
X58704Y-45883D01*
X58667Y-45901D01*
X58592Y-45920D01*
X58498Y-45920D01*
X58423Y-45901D01*
X58385Y-45883D01*
X58367Y-45864D01*
X58348Y-45826D01*
X58348Y-45451D02*
X58348Y-45414D01*
X58367Y-45376D01*
X58385Y-45358D01*
X58423Y-45339D01*
X58498Y-45320D01*
X58592Y-45320D01*
X58667Y-45339D01*
X58704Y-45358D01*
X58723Y-45376D01*
X58742Y-45414D01*
X58742Y-45451D01*
X58723Y-45489D01*
X58704Y-45508D01*
X58667Y-45526D01*
X58592Y-45545D01*
X58498Y-45545D01*
X58423Y-45526D01*
X58385Y-45508D01*
X58367Y-45489D01*
X58348Y-45451D01*
X58479Y-44983D02*
X58742Y-44983D01*
X58479Y-45151D02*
X58685Y-45151D01*
X58723Y-45133D01*
X58742Y-45095D01*
X58742Y-45039D01*
X58723Y-45001D01*
X58704Y-44983D01*
X57292Y-48299D02*
X57292Y-47999D01*
X57442Y-48149D02*
X57142Y-48149D01*
X58507Y-38393D02*
X58526Y-38412D01*
X58545Y-38468D01*
X58545Y-38505D01*
X58526Y-38562D01*
X58488Y-38599D01*
X58451Y-38618D01*
X58376Y-38637D01*
X58320Y-38637D01*
X58245Y-38618D01*
X58207Y-38599D01*
X58170Y-38562D01*
X58151Y-38505D01*
X58151Y-38468D01*
X58170Y-38412D01*
X58188Y-38393D01*
X58151Y-38262D02*
X58151Y-38018D01*
X58301Y-38149D01*
X58301Y-38093D01*
X58320Y-38055D01*
X58338Y-38037D01*
X58376Y-38018D01*
X58470Y-38018D01*
X58507Y-38037D01*
X58526Y-38055D01*
X58545Y-38093D01*
X58545Y-38205D01*
X58526Y-38243D01*
X58507Y-38262D01*
X58151Y-37774D02*
X58151Y-37737D01*
X58170Y-37699D01*
X58188Y-37680D01*
X58226Y-37662D01*
X58301Y-37643D01*
X58395Y-37643D01*
X58470Y-37662D01*
X58507Y-37680D01*
X58526Y-37699D01*
X58545Y-37737D01*
X58545Y-37774D01*
X58526Y-37812D01*
X58507Y-37830D01*
X58470Y-37849D01*
X58395Y-37868D01*
X58301Y-37868D01*
X58226Y-37849D01*
X58188Y-37830D01*
X58170Y-37812D01*
X58151Y-37774D01*
X58151Y-37512D02*
X58151Y-37249D01*
X58545Y-37418D01*
X54371Y-38629D02*
X54371Y-38854D01*
X54371Y-38742D02*
X53978Y-38742D01*
X54034Y-38779D01*
X54071Y-38817D01*
X54090Y-38854D01*
X53978Y-38385D02*
X53978Y-38348D01*
X53997Y-38310D01*
X54015Y-38292D01*
X54053Y-38273D01*
X54128Y-38254D01*
X54221Y-38254D01*
X54296Y-38273D01*
X54334Y-38292D01*
X54353Y-38310D01*
X54371Y-38348D01*
X54371Y-38385D01*
X54353Y-38423D01*
X54334Y-38442D01*
X54296Y-38460D01*
X54221Y-38479D01*
X54128Y-38479D01*
X54053Y-38460D01*
X54015Y-38442D01*
X53997Y-38423D01*
X53978Y-38385D01*
X53978Y-38010D02*
X53978Y-37973D01*
X53997Y-37935D01*
X54015Y-37917D01*
X54053Y-37898D01*
X54128Y-37879D01*
X54221Y-37879D01*
X54296Y-37898D01*
X54334Y-37917D01*
X54353Y-37935D01*
X54371Y-37973D01*
X54371Y-38010D01*
X54353Y-38048D01*
X54334Y-38067D01*
X54296Y-38085D01*
X54221Y-38104D01*
X54128Y-38104D01*
X54053Y-38085D01*
X54015Y-38067D01*
X53997Y-38048D01*
X53978Y-38010D01*
X54109Y-37542D02*
X54371Y-37542D01*
X54109Y-37710D02*
X54315Y-37710D01*
X54353Y-37692D01*
X54371Y-37654D01*
X54371Y-37598D01*
X54353Y-37560D01*
X54334Y-37542D01*
X55521Y-35819D02*
X55521Y-35519D01*
X55671Y-35669D02*
X55371Y-35669D01*
X55779Y-55318D02*
X55761Y-55337D01*
X55704Y-55356D01*
X55667Y-55356D01*
X55611Y-55337D01*
X55573Y-55299D01*
X55554Y-55262D01*
X55536Y-55187D01*
X55536Y-55131D01*
X55554Y-55056D01*
X55573Y-55018D01*
X55611Y-54981D01*
X55667Y-54962D01*
X55704Y-54962D01*
X55761Y-54981D01*
X55779Y-55000D01*
X55911Y-54962D02*
X56154Y-54962D01*
X56023Y-55112D01*
X56079Y-55112D01*
X56117Y-55131D01*
X56136Y-55149D01*
X56154Y-55187D01*
X56154Y-55281D01*
X56136Y-55318D01*
X56117Y-55337D01*
X56079Y-55356D01*
X55967Y-55356D01*
X55929Y-55337D01*
X55911Y-55318D01*
X56529Y-55356D02*
X56304Y-55356D01*
X56417Y-55356D02*
X56417Y-54962D01*
X56379Y-55018D01*
X56342Y-55056D01*
X56304Y-55074D01*
X56773Y-54962D02*
X56811Y-54962D01*
X56848Y-54981D01*
X56867Y-55000D01*
X56886Y-55037D01*
X56904Y-55112D01*
X56904Y-55206D01*
X56886Y-55281D01*
X56867Y-55318D01*
X56848Y-55337D01*
X56811Y-55356D01*
X56773Y-55356D01*
X56736Y-55337D01*
X56717Y-55318D01*
X56698Y-55281D01*
X56679Y-55206D01*
X56679Y-55112D01*
X56698Y-55037D01*
X56717Y-55000D01*
X56736Y-54981D01*
X56773Y-54962D01*
X55967Y-52875D02*
X55742Y-52875D01*
X55854Y-52875D02*
X55854Y-52482D01*
X55817Y-52538D01*
X55779Y-52575D01*
X55742Y-52594D01*
X56211Y-52482D02*
X56248Y-52482D01*
X56286Y-52500D01*
X56304Y-52519D01*
X56323Y-52557D01*
X56342Y-52632D01*
X56342Y-52725D01*
X56323Y-52800D01*
X56304Y-52838D01*
X56286Y-52857D01*
X56248Y-52875D01*
X56211Y-52875D01*
X56173Y-52857D01*
X56154Y-52838D01*
X56136Y-52800D01*
X56117Y-52725D01*
X56117Y-52632D01*
X56136Y-52557D01*
X56154Y-52519D01*
X56173Y-52500D01*
X56211Y-52482D01*
X56679Y-52613D02*
X56679Y-52875D01*
X56511Y-52613D02*
X56511Y-52819D01*
X56529Y-52857D01*
X56567Y-52875D01*
X56623Y-52875D01*
X56661Y-52857D01*
X56679Y-52838D01*
X57527Y-53237D02*
X57827Y-53237D01*
X57677Y-53387D02*
X57677Y-53087D01*
X57709Y-43901D02*
X57690Y-43920D01*
X57634Y-43938D01*
X57596Y-43938D01*
X57540Y-43920D01*
X57502Y-43882D01*
X57484Y-43845D01*
X57465Y-43770D01*
X57465Y-43713D01*
X57484Y-43638D01*
X57502Y-43601D01*
X57540Y-43563D01*
X57596Y-43545D01*
X57634Y-43545D01*
X57690Y-43563D01*
X57709Y-43582D01*
X57840Y-43545D02*
X58083Y-43545D01*
X57952Y-43695D01*
X58008Y-43695D01*
X58046Y-43713D01*
X58065Y-43732D01*
X58083Y-43770D01*
X58083Y-43863D01*
X58065Y-43901D01*
X58046Y-43920D01*
X58008Y-43938D01*
X57896Y-43938D01*
X57859Y-43920D01*
X57840Y-43901D01*
X58458Y-43938D02*
X58233Y-43938D01*
X58346Y-43938D02*
X58346Y-43545D01*
X58308Y-43601D01*
X58271Y-43638D01*
X58233Y-43657D01*
X58833Y-43938D02*
X58608Y-43938D01*
X58721Y-43938D02*
X58721Y-43545D01*
X58683Y-43601D01*
X58646Y-43638D01*
X58608Y-43657D01*
X57896Y-41458D02*
X57671Y-41458D01*
X57784Y-41458D02*
X57784Y-41064D01*
X57746Y-41121D01*
X57709Y-41158D01*
X57671Y-41177D01*
X58140Y-41064D02*
X58177Y-41064D01*
X58215Y-41083D01*
X58233Y-41102D01*
X58252Y-41139D01*
X58271Y-41214D01*
X58271Y-41308D01*
X58252Y-41383D01*
X58233Y-41421D01*
X58215Y-41439D01*
X58177Y-41458D01*
X58140Y-41458D01*
X58102Y-41439D01*
X58083Y-41421D01*
X58065Y-41383D01*
X58046Y-41308D01*
X58046Y-41214D01*
X58065Y-41139D01*
X58083Y-41102D01*
X58102Y-41083D01*
X58140Y-41064D01*
X58608Y-41196D02*
X58608Y-41458D01*
X58440Y-41196D02*
X58440Y-41402D01*
X58458Y-41439D01*
X58496Y-41458D01*
X58552Y-41458D01*
X58590Y-41439D01*
X58608Y-41421D01*
X59456Y-41820D02*
X59756Y-41820D01*
X59606Y-41970D02*
X59606Y-41670D01*
X57197Y-30988D02*
X57178Y-31006D01*
X57122Y-31025D01*
X57084Y-31025D01*
X57028Y-31006D01*
X56991Y-30969D01*
X56972Y-30931D01*
X56953Y-30856D01*
X56953Y-30800D01*
X56972Y-30725D01*
X56991Y-30688D01*
X57028Y-30650D01*
X57084Y-30631D01*
X57122Y-30631D01*
X57178Y-30650D01*
X57197Y-30669D01*
X57347Y-30669D02*
X57365Y-30650D01*
X57403Y-30631D01*
X57497Y-30631D01*
X57534Y-30650D01*
X57553Y-30669D01*
X57572Y-30706D01*
X57572Y-30744D01*
X57553Y-30800D01*
X57328Y-31025D01*
X57572Y-31025D01*
X57947Y-31025D02*
X57722Y-31025D01*
X57834Y-31025D02*
X57834Y-30631D01*
X57797Y-30688D01*
X57759Y-30725D01*
X57722Y-30744D01*
X58190Y-30631D02*
X58228Y-30631D01*
X58265Y-30650D01*
X58284Y-30669D01*
X58303Y-30706D01*
X58322Y-30781D01*
X58322Y-30875D01*
X58303Y-30950D01*
X58284Y-30988D01*
X58265Y-31006D01*
X58228Y-31025D01*
X58190Y-31025D01*
X58153Y-31006D01*
X58134Y-30988D01*
X58115Y-30950D01*
X58097Y-30875D01*
X58097Y-30781D01*
X58115Y-30706D01*
X58134Y-30669D01*
X58153Y-30650D01*
X58190Y-30631D01*
X57384Y-28545D02*
X57159Y-28545D01*
X57272Y-28545D02*
X57272Y-28151D01*
X57234Y-28207D01*
X57197Y-28245D01*
X57159Y-28263D01*
X57628Y-28151D02*
X57665Y-28151D01*
X57703Y-28170D01*
X57722Y-28188D01*
X57740Y-28226D01*
X57759Y-28301D01*
X57759Y-28395D01*
X57740Y-28470D01*
X57722Y-28507D01*
X57703Y-28526D01*
X57665Y-28545D01*
X57628Y-28545D01*
X57590Y-28526D01*
X57572Y-28507D01*
X57553Y-28470D01*
X57534Y-28395D01*
X57534Y-28301D01*
X57553Y-28226D01*
X57572Y-28188D01*
X57590Y-28170D01*
X57628Y-28151D01*
X58097Y-28282D02*
X58097Y-28545D01*
X57928Y-28282D02*
X57928Y-28488D01*
X57947Y-28526D01*
X57984Y-28545D01*
X58040Y-28545D01*
X58078Y-28526D01*
X58097Y-28507D01*
X58944Y-28907D02*
X59244Y-28907D01*
X59094Y-29056D02*
X59094Y-28757D01*
X43535Y-26066D02*
X43517Y-26085D01*
X43460Y-26104D01*
X43423Y-26104D01*
X43367Y-26085D01*
X43329Y-26047D01*
X43310Y-26010D01*
X43292Y-25935D01*
X43292Y-25879D01*
X43310Y-25804D01*
X43329Y-25766D01*
X43367Y-25729D01*
X43423Y-25710D01*
X43460Y-25710D01*
X43517Y-25729D01*
X43535Y-25748D01*
X43910Y-26104D02*
X43685Y-26104D01*
X43798Y-26104D02*
X43798Y-25710D01*
X43760Y-25766D01*
X43723Y-25804D01*
X43685Y-25823D01*
X44154Y-25710D02*
X44191Y-25710D01*
X44229Y-25729D01*
X44248Y-25748D01*
X44266Y-25785D01*
X44285Y-25860D01*
X44285Y-25954D01*
X44266Y-26029D01*
X44248Y-26066D01*
X44229Y-26085D01*
X44191Y-26104D01*
X44154Y-26104D01*
X44116Y-26085D01*
X44098Y-26066D01*
X44079Y-26029D01*
X44060Y-25954D01*
X44060Y-25860D01*
X44079Y-25785D01*
X44098Y-25748D01*
X44116Y-25729D01*
X44154Y-25710D01*
X44435Y-25748D02*
X44454Y-25729D01*
X44491Y-25710D01*
X44585Y-25710D01*
X44623Y-25729D01*
X44641Y-25748D01*
X44660Y-25785D01*
X44660Y-25823D01*
X44641Y-25879D01*
X44416Y-26104D01*
X44660Y-26104D01*
X46616Y-26197D02*
X46616Y-26422D01*
X46616Y-26310D02*
X46222Y-26310D01*
X46278Y-26347D01*
X46316Y-26385D01*
X46334Y-26422D01*
X46222Y-25954D02*
X46222Y-25916D01*
X46241Y-25879D01*
X46259Y-25860D01*
X46297Y-25841D01*
X46372Y-25823D01*
X46466Y-25823D01*
X46541Y-25841D01*
X46578Y-25860D01*
X46597Y-25879D01*
X46616Y-25916D01*
X46616Y-25954D01*
X46597Y-25991D01*
X46578Y-26010D01*
X46541Y-26029D01*
X46466Y-26047D01*
X46372Y-26047D01*
X46297Y-26029D01*
X46259Y-26010D01*
X46241Y-25991D01*
X46222Y-25954D01*
X46353Y-25485D02*
X46616Y-25485D01*
X46353Y-25654D02*
X46559Y-25654D01*
X46597Y-25635D01*
X46616Y-25598D01*
X46616Y-25541D01*
X46597Y-25504D01*
X46578Y-25485D01*
X45954Y-27551D02*
X45954Y-27251D01*
X46104Y-27401D02*
X45804Y-27401D01*
X37799Y-26385D02*
X37817Y-26404D01*
X37836Y-26460D01*
X37836Y-26497D01*
X37817Y-26554D01*
X37780Y-26591D01*
X37742Y-26610D01*
X37667Y-26629D01*
X37611Y-26629D01*
X37536Y-26610D01*
X37499Y-26591D01*
X37461Y-26554D01*
X37442Y-26497D01*
X37442Y-26460D01*
X37461Y-26404D01*
X37480Y-26385D01*
X37836Y-26010D02*
X37836Y-26235D01*
X37836Y-26122D02*
X37442Y-26122D01*
X37499Y-26160D01*
X37536Y-26197D01*
X37555Y-26235D01*
X37442Y-25766D02*
X37442Y-25729D01*
X37461Y-25691D01*
X37480Y-25673D01*
X37517Y-25654D01*
X37592Y-25635D01*
X37686Y-25635D01*
X37761Y-25654D01*
X37799Y-25673D01*
X37817Y-25691D01*
X37836Y-25729D01*
X37836Y-25766D01*
X37817Y-25804D01*
X37799Y-25823D01*
X37761Y-25841D01*
X37686Y-25860D01*
X37592Y-25860D01*
X37517Y-25841D01*
X37480Y-25823D01*
X37461Y-25804D01*
X37442Y-25766D01*
X37442Y-25504D02*
X37442Y-25260D01*
X37592Y-25391D01*
X37592Y-25335D01*
X37611Y-25298D01*
X37630Y-25279D01*
X37667Y-25260D01*
X37761Y-25260D01*
X37799Y-25279D01*
X37817Y-25298D01*
X37836Y-25335D01*
X37836Y-25448D01*
X37817Y-25485D01*
X37799Y-25504D01*
X40316Y-26197D02*
X40316Y-26422D01*
X40316Y-26310D02*
X39923Y-26310D01*
X39979Y-26347D01*
X40016Y-26385D01*
X40035Y-26422D01*
X39923Y-25954D02*
X39923Y-25916D01*
X39941Y-25879D01*
X39960Y-25860D01*
X39998Y-25841D01*
X40073Y-25823D01*
X40166Y-25823D01*
X40241Y-25841D01*
X40279Y-25860D01*
X40298Y-25879D01*
X40316Y-25916D01*
X40316Y-25954D01*
X40298Y-25991D01*
X40279Y-26010D01*
X40241Y-26029D01*
X40166Y-26047D01*
X40073Y-26047D01*
X39998Y-26029D01*
X39960Y-26010D01*
X39941Y-25991D01*
X39923Y-25954D01*
X40054Y-25485D02*
X40316Y-25485D01*
X40054Y-25654D02*
X40260Y-25654D01*
X40298Y-25635D01*
X40316Y-25598D01*
X40316Y-25541D01*
X40298Y-25504D01*
X40279Y-25485D01*
X39655Y-27551D02*
X39655Y-27251D01*
X39805Y-27401D02*
X39505Y-27401D01*
X56370Y-42405D02*
X56351Y-42424D01*
X56295Y-42442D01*
X56257Y-42442D01*
X56201Y-42424D01*
X56164Y-42386D01*
X56145Y-42349D01*
X56126Y-42274D01*
X56126Y-42217D01*
X56145Y-42142D01*
X56164Y-42105D01*
X56201Y-42067D01*
X56257Y-42049D01*
X56295Y-42049D01*
X56351Y-42067D01*
X56370Y-42086D01*
X56520Y-42086D02*
X56539Y-42067D01*
X56576Y-42049D01*
X56670Y-42049D01*
X56707Y-42067D01*
X56726Y-42086D01*
X56745Y-42124D01*
X56745Y-42161D01*
X56726Y-42217D01*
X56501Y-42442D01*
X56745Y-42442D01*
X57120Y-42442D02*
X56895Y-42442D01*
X57007Y-42442D02*
X57007Y-42049D01*
X56970Y-42105D01*
X56932Y-42142D01*
X56895Y-42161D01*
X57495Y-42442D02*
X57270Y-42442D01*
X57382Y-42442D02*
X57382Y-42049D01*
X57345Y-42105D01*
X57307Y-42142D01*
X57270Y-42161D01*
X56557Y-39962D02*
X56332Y-39962D01*
X56445Y-39962D02*
X56445Y-39568D01*
X56407Y-39625D01*
X56370Y-39662D01*
X56332Y-39681D01*
X56801Y-39568D02*
X56839Y-39568D01*
X56876Y-39587D01*
X56895Y-39606D01*
X56914Y-39643D01*
X56932Y-39718D01*
X56932Y-39812D01*
X56914Y-39887D01*
X56895Y-39925D01*
X56876Y-39943D01*
X56839Y-39962D01*
X56801Y-39962D01*
X56764Y-39943D01*
X56745Y-39925D01*
X56726Y-39887D01*
X56707Y-39812D01*
X56707Y-39718D01*
X56726Y-39643D01*
X56745Y-39606D01*
X56764Y-39587D01*
X56801Y-39568D01*
X57270Y-39700D02*
X57270Y-39962D01*
X57101Y-39700D02*
X57101Y-39906D01*
X57120Y-39943D01*
X57157Y-39962D01*
X57214Y-39962D01*
X57251Y-39943D01*
X57270Y-39925D01*
X58117Y-40324D02*
X58417Y-40324D01*
X58267Y-40474D02*
X58267Y-40174D01*
G54D19*
X49980Y-46687D02*
X49989Y-46696D01*
X49999Y-46724D01*
X49999Y-46743D01*
X49989Y-46771D01*
X49971Y-46790D01*
X49952Y-46799D01*
X49914Y-46809D01*
X49886Y-46809D01*
X49849Y-46799D01*
X49830Y-46790D01*
X49811Y-46771D01*
X49802Y-46743D01*
X49802Y-46724D01*
X49811Y-46696D01*
X49820Y-46687D01*
X49802Y-46621D02*
X49802Y-46499D01*
X49877Y-46565D01*
X49877Y-46537D01*
X49886Y-46518D01*
X49895Y-46508D01*
X49914Y-46499D01*
X49961Y-46499D01*
X49980Y-46508D01*
X49989Y-46518D01*
X49999Y-46537D01*
X49999Y-46593D01*
X49989Y-46612D01*
X49980Y-46621D01*
X49802Y-46377D02*
X49802Y-46358D01*
X49811Y-46340D01*
X49820Y-46330D01*
X49839Y-46321D01*
X49877Y-46311D01*
X49924Y-46311D01*
X49961Y-46321D01*
X49980Y-46330D01*
X49989Y-46340D01*
X49999Y-46358D01*
X49999Y-46377D01*
X49989Y-46396D01*
X49980Y-46405D01*
X49961Y-46415D01*
X49924Y-46424D01*
X49877Y-46424D01*
X49839Y-46415D01*
X49820Y-46405D01*
X49811Y-46396D01*
X49802Y-46377D01*
X49999Y-46124D02*
X49999Y-46236D01*
X49999Y-46180D02*
X49802Y-46180D01*
X49830Y-46199D01*
X49849Y-46218D01*
X49858Y-46236D01*
X59336Y-37224D02*
X59327Y-37233D01*
X59298Y-37243D01*
X59280Y-37243D01*
X59252Y-37233D01*
X59233Y-37215D01*
X59223Y-37196D01*
X59214Y-37158D01*
X59214Y-37130D01*
X59223Y-37093D01*
X59233Y-37074D01*
X59252Y-37055D01*
X59280Y-37046D01*
X59298Y-37046D01*
X59327Y-37055D01*
X59336Y-37065D01*
X59411Y-37065D02*
X59420Y-37055D01*
X59439Y-37046D01*
X59486Y-37046D01*
X59505Y-37055D01*
X59514Y-37065D01*
X59524Y-37083D01*
X59524Y-37102D01*
X59514Y-37130D01*
X59402Y-37243D01*
X59524Y-37243D01*
X59646Y-37046D02*
X59664Y-37046D01*
X59683Y-37055D01*
X59692Y-37065D01*
X59702Y-37083D01*
X59711Y-37121D01*
X59711Y-37168D01*
X59702Y-37205D01*
X59692Y-37224D01*
X59683Y-37233D01*
X59664Y-37243D01*
X59646Y-37243D01*
X59627Y-37233D01*
X59617Y-37224D01*
X59608Y-37205D01*
X59599Y-37168D01*
X59599Y-37121D01*
X59608Y-37083D01*
X59617Y-37065D01*
X59627Y-37055D01*
X59646Y-37046D01*
X59805Y-37243D02*
X59843Y-37243D01*
X59861Y-37233D01*
X59871Y-37224D01*
X59889Y-37196D01*
X59899Y-37158D01*
X59899Y-37083D01*
X59889Y-37065D01*
X59880Y-37055D01*
X59861Y-37046D01*
X59824Y-37046D01*
X59805Y-37055D01*
X59796Y-37065D01*
X59786Y-37083D01*
X59786Y-37130D01*
X59796Y-37149D01*
X59805Y-37158D01*
X59824Y-37168D01*
X59861Y-37168D01*
X59880Y-37158D01*
X59889Y-37149D01*
X59899Y-37130D01*
X49941Y-33537D02*
X49950Y-33546D01*
X49959Y-33575D01*
X49959Y-33593D01*
X49950Y-33621D01*
X49931Y-33640D01*
X49912Y-33650D01*
X49875Y-33659D01*
X49847Y-33659D01*
X49809Y-33650D01*
X49790Y-33640D01*
X49772Y-33621D01*
X49762Y-33593D01*
X49762Y-33575D01*
X49772Y-33546D01*
X49781Y-33537D01*
X49781Y-33462D02*
X49772Y-33453D01*
X49762Y-33434D01*
X49762Y-33387D01*
X49772Y-33368D01*
X49781Y-33359D01*
X49800Y-33349D01*
X49819Y-33349D01*
X49847Y-33359D01*
X49959Y-33471D01*
X49959Y-33349D01*
X49762Y-33227D02*
X49762Y-33209D01*
X49772Y-33190D01*
X49781Y-33181D01*
X49800Y-33171D01*
X49837Y-33162D01*
X49884Y-33162D01*
X49922Y-33171D01*
X49941Y-33181D01*
X49950Y-33190D01*
X49959Y-33209D01*
X49959Y-33227D01*
X49950Y-33246D01*
X49941Y-33256D01*
X49922Y-33265D01*
X49884Y-33274D01*
X49837Y-33274D01*
X49800Y-33265D01*
X49781Y-33256D01*
X49772Y-33246D01*
X49762Y-33227D01*
X49959Y-32974D02*
X49959Y-33087D01*
X49959Y-33030D02*
X49762Y-33030D01*
X49790Y-33049D01*
X49809Y-33068D01*
X49819Y-33087D01*
G54D10*
X43844Y-46820D02*
X43844Y-47139D01*
X43863Y-47176D01*
X43882Y-47195D01*
X43919Y-47214D01*
X43994Y-47214D01*
X44032Y-47195D01*
X44050Y-47176D01*
X44069Y-47139D01*
X44069Y-46820D01*
X44463Y-47214D02*
X44238Y-47214D01*
X44350Y-47214D02*
X44350Y-46820D01*
X44313Y-46877D01*
X44275Y-46914D01*
X44238Y-46933D01*
X44707Y-46820D02*
X44744Y-46820D01*
X44782Y-46839D01*
X44800Y-46858D01*
X44819Y-46895D01*
X44838Y-46970D01*
X44838Y-47064D01*
X44819Y-47139D01*
X44800Y-47176D01*
X44782Y-47195D01*
X44744Y-47214D01*
X44707Y-47214D01*
X44669Y-47195D01*
X44650Y-47176D01*
X44632Y-47139D01*
X44613Y-47064D01*
X44613Y-46970D01*
X44632Y-46895D01*
X44650Y-46858D01*
X44669Y-46839D01*
X44707Y-46820D01*
X44969Y-46820D02*
X45213Y-46820D01*
X45082Y-46970D01*
X45138Y-46970D01*
X45175Y-46989D01*
X45194Y-47008D01*
X45213Y-47045D01*
X45213Y-47139D01*
X45194Y-47176D01*
X45175Y-47195D01*
X45138Y-47214D01*
X45025Y-47214D01*
X44988Y-47195D01*
X44969Y-47176D01*
X37382Y-47101D02*
X37569Y-47101D01*
X37344Y-47214D02*
X37476Y-46820D01*
X37607Y-47214D01*
X37963Y-47214D02*
X37832Y-47026D01*
X37738Y-47214D02*
X37738Y-46820D01*
X37888Y-46820D01*
X37926Y-46839D01*
X37944Y-46858D01*
X37963Y-46895D01*
X37963Y-46952D01*
X37944Y-46989D01*
X37926Y-47008D01*
X37888Y-47026D01*
X37738Y-47026D01*
X38132Y-47214D02*
X38132Y-46820D01*
X38226Y-46820D01*
X38282Y-46839D01*
X38319Y-46877D01*
X38338Y-46914D01*
X38357Y-46989D01*
X38357Y-47045D01*
X38338Y-47120D01*
X38319Y-47158D01*
X38282Y-47195D01*
X38226Y-47214D01*
X38132Y-47214D01*
X38526Y-46820D02*
X38526Y-47139D01*
X38544Y-47176D01*
X38563Y-47195D01*
X38601Y-47214D01*
X38676Y-47214D01*
X38713Y-47195D01*
X38732Y-47176D01*
X38751Y-47139D01*
X38751Y-46820D01*
X38938Y-47214D02*
X38938Y-46820D01*
X39125Y-47214D02*
X39125Y-46820D01*
X39350Y-47214D01*
X39350Y-46820D01*
X39613Y-46820D02*
X39688Y-46820D01*
X39725Y-46839D01*
X39763Y-46877D01*
X39782Y-46952D01*
X39782Y-47083D01*
X39763Y-47158D01*
X39725Y-47195D01*
X39688Y-47214D01*
X39613Y-47214D01*
X39575Y-47195D01*
X39538Y-47158D01*
X39519Y-47083D01*
X39519Y-46952D01*
X39538Y-46877D01*
X39575Y-46839D01*
X39613Y-46820D01*
X39857Y-47251D02*
X40157Y-47251D01*
X40250Y-47214D02*
X40250Y-46820D01*
X40475Y-47214D01*
X40475Y-46820D01*
X40644Y-47101D02*
X40832Y-47101D01*
X40607Y-47214D02*
X40738Y-46820D01*
X40869Y-47214D01*
X41000Y-47214D02*
X41000Y-46820D01*
X41225Y-47214D01*
X41225Y-46820D01*
X41488Y-46820D02*
X41563Y-46820D01*
X41600Y-46839D01*
X41638Y-46877D01*
X41656Y-46952D01*
X41656Y-47083D01*
X41638Y-47158D01*
X41600Y-47195D01*
X41563Y-47214D01*
X41488Y-47214D01*
X41450Y-47195D01*
X41413Y-47158D01*
X41394Y-47083D01*
X41394Y-46952D01*
X41413Y-46877D01*
X41450Y-46839D01*
X41488Y-46820D01*
X74267Y-29089D02*
X73874Y-29089D01*
X73874Y-28939D01*
X73892Y-28901D01*
X73911Y-28882D01*
X73949Y-28864D01*
X74005Y-28864D01*
X74042Y-28882D01*
X74061Y-28901D01*
X74080Y-28939D01*
X74080Y-29089D01*
X74267Y-28489D02*
X74267Y-28714D01*
X74267Y-28601D02*
X73874Y-28601D01*
X73930Y-28639D01*
X73967Y-28676D01*
X73986Y-28714D01*
X73874Y-28245D02*
X73874Y-28208D01*
X73892Y-28170D01*
X73911Y-28151D01*
X73949Y-28133D01*
X74024Y-28114D01*
X74117Y-28114D01*
X74192Y-28133D01*
X74230Y-28151D01*
X74249Y-28170D01*
X74267Y-28208D01*
X74267Y-28245D01*
X74249Y-28283D01*
X74230Y-28301D01*
X74192Y-28320D01*
X74117Y-28339D01*
X74024Y-28339D01*
X73949Y-28320D01*
X73911Y-28301D01*
X73892Y-28283D01*
X73874Y-28245D01*
X74267Y-27739D02*
X74267Y-27964D01*
X74267Y-27851D02*
X73874Y-27851D01*
X73930Y-27889D01*
X73967Y-27926D01*
X73986Y-27964D01*
X74195Y-48122D02*
X74214Y-48141D01*
X74232Y-48197D01*
X74232Y-48235D01*
X74214Y-48291D01*
X74176Y-48329D01*
X74139Y-48347D01*
X74064Y-48366D01*
X74007Y-48366D01*
X73932Y-48347D01*
X73895Y-48329D01*
X73857Y-48291D01*
X73839Y-48235D01*
X73839Y-48197D01*
X73857Y-48141D01*
X73876Y-48122D01*
X73839Y-47879D02*
X73839Y-47804D01*
X73857Y-47766D01*
X73895Y-47729D01*
X73970Y-47710D01*
X74101Y-47710D01*
X74176Y-47729D01*
X74214Y-47766D01*
X74232Y-47804D01*
X74232Y-47879D01*
X74214Y-47916D01*
X74176Y-47954D01*
X74101Y-47972D01*
X73970Y-47972D01*
X73895Y-47954D01*
X73857Y-47916D01*
X73839Y-47879D01*
X74232Y-47541D02*
X73839Y-47541D01*
X74232Y-47316D01*
X73839Y-47316D01*
X74232Y-47129D02*
X73839Y-47129D01*
X74232Y-46904D01*
X73839Y-46904D01*
X74270Y-46810D02*
X74270Y-46510D01*
X73839Y-46248D02*
X73839Y-46323D01*
X73857Y-46360D01*
X73876Y-46379D01*
X73932Y-46416D01*
X74007Y-46435D01*
X74157Y-46435D01*
X74195Y-46416D01*
X74214Y-46398D01*
X74232Y-46360D01*
X74232Y-46285D01*
X74214Y-46248D01*
X74195Y-46229D01*
X74157Y-46210D01*
X74064Y-46210D01*
X74026Y-46229D01*
X74007Y-46248D01*
X73989Y-46285D01*
X73989Y-46360D01*
X74007Y-46398D01*
X74026Y-46416D01*
X74064Y-46435D01*
X45948Y-57049D02*
X45948Y-56655D01*
X46173Y-57049D02*
X46004Y-56824D01*
X46173Y-56655D02*
X45948Y-56880D01*
X46548Y-57049D02*
X46323Y-57049D01*
X46436Y-57049D02*
X46436Y-56655D01*
X46398Y-56711D01*
X46361Y-56749D01*
X46323Y-56767D01*
X46792Y-56655D02*
X46829Y-56655D01*
X46867Y-56674D01*
X46886Y-56692D01*
X46904Y-56730D01*
X46923Y-56805D01*
X46923Y-56899D01*
X46904Y-56974D01*
X46886Y-57011D01*
X46867Y-57030D01*
X46829Y-57049D01*
X46792Y-57049D01*
X46754Y-57030D01*
X46736Y-57011D01*
X46717Y-56974D01*
X46698Y-56899D01*
X46698Y-56805D01*
X46717Y-56730D01*
X46736Y-56692D01*
X46754Y-56674D01*
X46792Y-56655D01*
X47260Y-56786D02*
X47260Y-57049D01*
X47167Y-56636D02*
X47073Y-56917D01*
X47317Y-56917D01*
X50279Y-58865D02*
X50298Y-58884D01*
X50316Y-58940D01*
X50316Y-58978D01*
X50298Y-59034D01*
X50260Y-59071D01*
X50223Y-59090D01*
X50148Y-59109D01*
X50091Y-59109D01*
X50016Y-59090D01*
X49979Y-59071D01*
X49941Y-59034D01*
X49923Y-58978D01*
X49923Y-58940D01*
X49941Y-58884D01*
X49960Y-58865D01*
X49923Y-58622D02*
X49923Y-58547D01*
X49941Y-58509D01*
X49979Y-58472D01*
X50054Y-58453D01*
X50185Y-58453D01*
X50260Y-58472D01*
X50298Y-58509D01*
X50316Y-58547D01*
X50316Y-58622D01*
X50298Y-58659D01*
X50260Y-58697D01*
X50185Y-58715D01*
X50054Y-58715D01*
X49979Y-58697D01*
X49941Y-58659D01*
X49923Y-58622D01*
X50316Y-58284D02*
X49923Y-58284D01*
X50316Y-58059D01*
X49923Y-58059D01*
X50316Y-57872D02*
X49923Y-57872D01*
X50316Y-57647D01*
X49923Y-57647D01*
X50354Y-57553D02*
X50354Y-57253D01*
X49923Y-57197D02*
X49923Y-56953D01*
X50073Y-57084D01*
X50073Y-57028D01*
X50091Y-56991D01*
X50110Y-56972D01*
X50148Y-56953D01*
X50241Y-56953D01*
X50279Y-56972D01*
X50298Y-56991D01*
X50316Y-57028D01*
X50316Y-57140D01*
X50298Y-57178D01*
X50279Y-57197D01*
X39098Y-57049D02*
X39098Y-56655D01*
X39323Y-57049D02*
X39154Y-56824D01*
X39323Y-56655D02*
X39098Y-56880D01*
X39698Y-57049D02*
X39473Y-57049D01*
X39585Y-57049D02*
X39585Y-56655D01*
X39548Y-56711D01*
X39510Y-56749D01*
X39473Y-56767D01*
X39941Y-56655D02*
X39979Y-56655D01*
X40016Y-56674D01*
X40035Y-56692D01*
X40054Y-56730D01*
X40073Y-56805D01*
X40073Y-56899D01*
X40054Y-56974D01*
X40035Y-57011D01*
X40016Y-57030D01*
X39979Y-57049D01*
X39941Y-57049D01*
X39904Y-57030D01*
X39885Y-57011D01*
X39866Y-56974D01*
X39848Y-56899D01*
X39848Y-56805D01*
X39866Y-56730D01*
X39885Y-56692D01*
X39904Y-56674D01*
X39941Y-56655D01*
X40410Y-56655D02*
X40335Y-56655D01*
X40298Y-56674D01*
X40279Y-56692D01*
X40241Y-56749D01*
X40223Y-56824D01*
X40223Y-56974D01*
X40241Y-57011D01*
X40260Y-57030D01*
X40298Y-57049D01*
X40373Y-57049D01*
X40410Y-57030D01*
X40429Y-57011D01*
X40448Y-56974D01*
X40448Y-56880D01*
X40429Y-56842D01*
X40410Y-56824D01*
X40373Y-56805D01*
X40298Y-56805D01*
X40260Y-56824D01*
X40241Y-56842D01*
X40223Y-56880D01*
X43428Y-58865D02*
X43447Y-58884D01*
X43466Y-58940D01*
X43466Y-58978D01*
X43447Y-59034D01*
X43410Y-59071D01*
X43372Y-59090D01*
X43297Y-59109D01*
X43241Y-59109D01*
X43166Y-59090D01*
X43128Y-59071D01*
X43091Y-59034D01*
X43072Y-58978D01*
X43072Y-58940D01*
X43091Y-58884D01*
X43110Y-58865D01*
X43072Y-58622D02*
X43072Y-58547D01*
X43091Y-58509D01*
X43128Y-58472D01*
X43203Y-58453D01*
X43335Y-58453D01*
X43410Y-58472D01*
X43447Y-58509D01*
X43466Y-58547D01*
X43466Y-58622D01*
X43447Y-58659D01*
X43410Y-58697D01*
X43335Y-58715D01*
X43203Y-58715D01*
X43128Y-58697D01*
X43091Y-58659D01*
X43072Y-58622D01*
X43466Y-58284D02*
X43072Y-58284D01*
X43466Y-58059D01*
X43072Y-58059D01*
X43466Y-57872D02*
X43072Y-57872D01*
X43466Y-57647D01*
X43072Y-57647D01*
X43503Y-57553D02*
X43503Y-57253D01*
X43072Y-57197D02*
X43072Y-56953D01*
X43222Y-57084D01*
X43222Y-57028D01*
X43241Y-56991D01*
X43260Y-56972D01*
X43297Y-56953D01*
X43391Y-56953D01*
X43428Y-56972D01*
X43447Y-56991D01*
X43466Y-57028D01*
X43466Y-57140D01*
X43447Y-57178D01*
X43428Y-57197D01*
G54D20*
X38410Y-36360D02*
X37729Y-36360D01*
X37729Y-36197D01*
X37762Y-36157D01*
X37794Y-36136D01*
X37859Y-36116D01*
X37956Y-36116D01*
X38021Y-36136D01*
X38053Y-36157D01*
X38086Y-36197D01*
X38086Y-36360D01*
X38410Y-35708D02*
X38410Y-35953D01*
X38410Y-35831D02*
X37729Y-35831D01*
X37826Y-35871D01*
X37891Y-35912D01*
X37924Y-35953D01*
G54D15*
G54D21*
X38320Y-42083D02*
X38349Y-42102D01*
X38377Y-42159D01*
X38377Y-42197D01*
X38349Y-42254D01*
X38292Y-42292D01*
X38235Y-42311D01*
X38120Y-42330D01*
X38035Y-42330D01*
X37920Y-42311D01*
X37863Y-42292D01*
X37806Y-42254D01*
X37777Y-42197D01*
X37777Y-42159D01*
X37806Y-42102D01*
X37835Y-42083D01*
X37777Y-41835D02*
X37777Y-41759D01*
X37806Y-41721D01*
X37863Y-41683D01*
X37977Y-41664D01*
X38177Y-41664D01*
X38292Y-41683D01*
X38349Y-41721D01*
X38377Y-41759D01*
X38377Y-41835D01*
X38349Y-41873D01*
X38292Y-41911D01*
X38177Y-41930D01*
X37977Y-41930D01*
X37863Y-41911D01*
X37806Y-41873D01*
X37777Y-41835D01*
X38377Y-41492D02*
X37777Y-41492D01*
X38377Y-41264D01*
X37777Y-41264D01*
X38377Y-41073D02*
X37777Y-41073D01*
X38377Y-40845D01*
X37777Y-40845D01*
X38435Y-40749D02*
X38435Y-40445D01*
X38377Y-40140D02*
X38377Y-40368D01*
X38377Y-40254D02*
X37777Y-40254D01*
X37863Y-40292D01*
X37920Y-40330D01*
X37949Y-40368D01*
X37777Y-39892D02*
X37777Y-39854D01*
X37806Y-39816D01*
X37835Y-39797D01*
X37892Y-39778D01*
X38006Y-39759D01*
X38149Y-39759D01*
X38263Y-39778D01*
X38320Y-39797D01*
X38349Y-39816D01*
X38377Y-39854D01*
X38377Y-39892D01*
X38349Y-39930D01*
X38320Y-39949D01*
X38263Y-39968D01*
X38149Y-39987D01*
X38006Y-39987D01*
X37892Y-39968D01*
X37835Y-39949D01*
X37806Y-39930D01*
X37777Y-39892D01*
G54D15*
%LPC*%
G54D22*
X41003Y-27322D03*
G54D23*
X43582Y-28228D03*
X43582Y-26417D03*
G54D22*
X47185Y-27322D03*
G54D23*
X49763Y-28228D03*
X49763Y-26417D03*
G54D24*
X63248Y-38897D03*
G54D25*
X64153Y-38897D03*
G54D26*
X61837Y-38147D03*
G54D27*
X61837Y-38647D03*
X61837Y-39147D03*
X61837Y-39647D03*
G54D24*
X62814Y-45590D03*
G54D25*
X61909Y-45590D03*
G54D26*
X64225Y-46340D03*
G54D27*
X64225Y-45840D03*
X64225Y-45340D03*
X64225Y-44840D03*
G54D24*
X63248Y-42834D03*
G54D25*
X64153Y-42834D03*
G54D26*
X61837Y-42084D03*
G54D27*
X61837Y-42584D03*
X61837Y-43084D03*
X61837Y-43584D03*
G54D24*
X62814Y-49133D03*
G54D25*
X61909Y-49133D03*
G54D26*
X64225Y-49883D03*
G54D27*
X64225Y-49383D03*
X64225Y-48883D03*
X64225Y-48383D03*
G54D24*
X63248Y-51496D03*
G54D25*
X64153Y-51496D03*
G54D26*
X61837Y-50746D03*
G54D27*
X61837Y-51246D03*
X61837Y-51746D03*
X61837Y-52246D03*
G54D24*
X62814Y-36535D03*
G54D25*
X61909Y-36535D03*
G54D26*
X64225Y-37285D03*
G54D27*
X64225Y-36785D03*
X64225Y-36285D03*
X64225Y-35785D03*
G54D24*
X63248Y-30629D03*
G54D25*
X64153Y-30629D03*
G54D26*
X61837Y-29879D03*
G54D27*
X61837Y-30379D03*
X61837Y-30879D03*
X61837Y-31379D03*
G54D24*
X62814Y-32992D03*
G54D25*
X61909Y-32992D03*
G54D26*
X64225Y-33742D03*
G54D27*
X64225Y-33242D03*
X64225Y-32742D03*
X64225Y-32242D03*
G54D28*
X50350Y-49210D03*
X50850Y-49210D03*
X51350Y-49210D03*
X51850Y-49210D03*
X52350Y-49210D03*
X52850Y-49210D03*
X53350Y-49210D03*
X53350Y-47010D03*
X52850Y-47010D03*
X52350Y-47010D03*
X51850Y-47010D03*
X51350Y-47010D03*
X50850Y-47010D03*
X50350Y-47010D03*
X50153Y-36100D03*
X50653Y-36100D03*
X51153Y-36100D03*
X51653Y-36100D03*
X52153Y-36100D03*
X52653Y-36100D03*
X53153Y-36100D03*
X53153Y-33900D03*
X52653Y-33900D03*
X52153Y-33900D03*
X51653Y-33900D03*
X51153Y-33900D03*
X50653Y-33900D03*
X50153Y-33900D03*
G54D29*
X42204Y-25611D03*
X42204Y-24861D03*
X60669Y-53445D03*
X60669Y-52695D03*
G54D30*
X60097Y-43858D03*
X60847Y-43858D03*
X58522Y-43897D03*
X59272Y-43897D03*
X40766Y-25629D03*
X41516Y-25629D03*
G54D29*
X48543Y-25650D03*
X48543Y-24900D03*
G54D30*
X47026Y-25669D03*
X47776Y-25669D03*
G54D29*
X60905Y-40414D03*
X60905Y-39664D03*
G54D30*
X60058Y-31535D03*
X60808Y-31535D03*
X58640Y-31574D03*
X59390Y-31574D03*
G54D31*
X47425Y-39370D03*
G54D32*
X48425Y-39370D03*
X49425Y-39370D03*
G54D31*
X47425Y-40393D03*
G54D32*
X48425Y-40393D03*
X49425Y-40393D03*
G54D33*
X39783Y-48877D03*
X42145Y-49665D03*
X42145Y-53681D03*
X37421Y-53681D03*
X37421Y-49665D03*
X46555Y-48877D03*
X48917Y-49665D03*
X48917Y-53681D03*
X44192Y-53681D03*
X44192Y-49665D03*
G54D34*
X56456Y-49370D03*
X56456Y-52204D03*
X56338Y-34370D03*
X56338Y-31535D03*
G54D35*
X63503Y-27165D03*
X60669Y-27165D03*
G54D34*
X56456Y-47322D03*
X56456Y-44488D03*
X56338Y-36496D03*
X56338Y-39330D03*
G54D36*
X57244Y-54015D03*
X55157Y-54015D03*
X59173Y-42598D03*
X57086Y-42598D03*
X58661Y-29685D03*
X56574Y-29685D03*
G54D37*
X45157Y-26968D03*
X45157Y-24881D03*
X38858Y-26968D03*
X38858Y-24881D03*
G54D36*
X57834Y-41102D03*
X55748Y-41102D03*
G54D38*
X49409Y-47006D03*
X49409Y-45906D03*
G54D39*
X59016Y-36653D03*
X60116Y-36653D03*
G54D38*
X49370Y-33857D03*
X49370Y-32757D03*
G54D40*
X45519Y-45055D03*
X45519Y-44055D03*
X45519Y-43055D03*
X45519Y-42055D03*
X45519Y-41055D03*
X45519Y-40055D03*
X45519Y-39055D03*
X45519Y-38055D03*
X45519Y-37055D03*
X45519Y-36055D03*
X45519Y-35055D03*
X45519Y-34055D03*
X45519Y-33055D03*
X45519Y-32055D03*
X45519Y-31055D03*
X39519Y-31055D03*
X39519Y-32055D03*
X39519Y-33055D03*
X39519Y-34055D03*
X39519Y-35055D03*
X39519Y-36055D03*
X39519Y-37055D03*
X39519Y-38055D03*
X39519Y-39055D03*
X39519Y-40055D03*
X39519Y-41055D03*
X39519Y-42055D03*
X39519Y-43055D03*
X39519Y-44055D03*
X39519Y-45055D03*
G54D33*
X72598Y-26023D03*
X72598Y-27603D03*
X68598Y-30023D03*
X68598Y-31603D03*
X72598Y-34023D03*
X72598Y-35603D03*
X68598Y-38023D03*
X68598Y-39603D03*
X72588Y-42023D03*
X72593Y-43603D03*
X68598Y-46023D03*
X68598Y-47603D03*
G54D41*
X44645Y-58503D03*
X46614Y-58503D03*
X48582Y-58503D03*
X37795Y-58503D03*
X39763Y-58503D03*
X41732Y-58503D03*
G54D42*
X37135Y-34045D03*
G54D43*
X37135Y-35045D03*
X37135Y-36045D03*
X37135Y-37045D03*
X37135Y-38045D03*
X37135Y-39045D03*
X37135Y-40045D03*
X37135Y-41045D03*
X37135Y-42045D03*
X37135Y-43045D03*
M02*
