G04 (created by PCBNEW (2013-07-07 BZR 4022)-stable) date 30/10/2014 17:58:33*
%MOIN*%
G04 Gerber Fmt 3.4, Leading zero omitted, Abs format*
%FSLAX34Y34*%
G01*
G70*
G90*
G04 APERTURE LIST*
%ADD10C,0.00590551*%
%ADD11R,0.224409X0.216535*%
%ADD12R,0.0748031X0.0551181*%
%ADD13R,0.122047X0.165354*%
%ADD14R,0.0708661X0.19685*%
%ADD15R,0.0787402X0.0275591*%
%ADD16R,0.025X0.05*%
%ADD17R,0.055X0.035*%
%ADD18R,0.035X0.055*%
%ADD19R,0.0787402X0.173228*%
%ADD20R,0.173228X0.0787402*%
%ADD21R,0.114173X0.0944882*%
%ADD22R,0.0944882X0.114173*%
%ADD23R,0.071X0.063*%
%ADD24R,0.063X0.071*%
G04 APERTURE END LIST*
G54D10*
G54D11*
X41003Y-27322D03*
G54D12*
X43582Y-28228D03*
X43582Y-26417D03*
G54D11*
X47185Y-27322D03*
G54D12*
X49763Y-28228D03*
X49763Y-26417D03*
G54D13*
X63248Y-38897D03*
G54D14*
X64153Y-38897D03*
G54D15*
X61837Y-38147D03*
X61837Y-38647D03*
X61837Y-39147D03*
X61837Y-39647D03*
G54D13*
X62814Y-45590D03*
G54D14*
X61909Y-45590D03*
G54D15*
X64225Y-46340D03*
X64225Y-45840D03*
X64225Y-45340D03*
X64225Y-44840D03*
G54D13*
X63248Y-42834D03*
G54D14*
X64153Y-42834D03*
G54D15*
X61837Y-42084D03*
X61837Y-42584D03*
X61837Y-43084D03*
X61837Y-43584D03*
G54D13*
X62814Y-49133D03*
G54D14*
X61909Y-49133D03*
G54D15*
X64225Y-49883D03*
X64225Y-49383D03*
X64225Y-48883D03*
X64225Y-48383D03*
G54D13*
X63248Y-51496D03*
G54D14*
X64153Y-51496D03*
G54D15*
X61837Y-50746D03*
X61837Y-51246D03*
X61837Y-51746D03*
X61837Y-52246D03*
G54D13*
X62814Y-36535D03*
G54D14*
X61909Y-36535D03*
G54D15*
X64225Y-37285D03*
X64225Y-36785D03*
X64225Y-36285D03*
X64225Y-35785D03*
G54D13*
X63248Y-30629D03*
G54D14*
X64153Y-30629D03*
G54D15*
X61837Y-29879D03*
X61837Y-30379D03*
X61837Y-30879D03*
X61837Y-31379D03*
G54D13*
X62814Y-32992D03*
G54D14*
X61909Y-32992D03*
G54D15*
X64225Y-33742D03*
X64225Y-33242D03*
X64225Y-32742D03*
X64225Y-32242D03*
G54D16*
X50350Y-49210D03*
X50850Y-49210D03*
X51350Y-49210D03*
X51850Y-49210D03*
X52350Y-49210D03*
X52850Y-49210D03*
X53350Y-49210D03*
X53350Y-47010D03*
X52850Y-47010D03*
X52350Y-47010D03*
X51850Y-47010D03*
X51350Y-47010D03*
X50850Y-47010D03*
X50350Y-47010D03*
X50153Y-36100D03*
X50653Y-36100D03*
X51153Y-36100D03*
X51653Y-36100D03*
X52153Y-36100D03*
X52653Y-36100D03*
X53153Y-36100D03*
X53153Y-33900D03*
X52653Y-33900D03*
X52153Y-33900D03*
X51653Y-33900D03*
X51153Y-33900D03*
X50653Y-33900D03*
X50153Y-33900D03*
G54D17*
X42204Y-25611D03*
X42204Y-24861D03*
X60669Y-53445D03*
X60669Y-52695D03*
G54D18*
X60097Y-43858D03*
X60847Y-43858D03*
X58522Y-43897D03*
X59272Y-43897D03*
X40766Y-25629D03*
X41516Y-25629D03*
G54D17*
X48543Y-25650D03*
X48543Y-24900D03*
G54D18*
X47026Y-25669D03*
X47776Y-25669D03*
G54D17*
X60905Y-40414D03*
X60905Y-39664D03*
G54D18*
X60058Y-31535D03*
X60808Y-31535D03*
X58640Y-31574D03*
X59390Y-31574D03*
G54D19*
X56456Y-49370D03*
X56456Y-52204D03*
X56338Y-34370D03*
X56338Y-31535D03*
G54D20*
X63503Y-27165D03*
X60669Y-27165D03*
G54D19*
X56456Y-47322D03*
X56456Y-44488D03*
X56338Y-36496D03*
X56338Y-39330D03*
G54D21*
X57244Y-54015D03*
X55157Y-54015D03*
X59173Y-42598D03*
X57086Y-42598D03*
X58661Y-29685D03*
X56574Y-29685D03*
G54D22*
X45157Y-26968D03*
X45157Y-24881D03*
X38858Y-26968D03*
X38858Y-24881D03*
G54D21*
X57834Y-41102D03*
X55748Y-41102D03*
G54D23*
X49409Y-47006D03*
X49409Y-45906D03*
G54D24*
X59016Y-36653D03*
X60116Y-36653D03*
G54D23*
X49370Y-33857D03*
X49370Y-32757D03*
M02*
